%TF.GenerationSoftware,KiCad,Pcbnew,9.0.3*%
%TF.CreationDate,2025-08-22T16:08:22-07:00*%
%TF.ProjectId,gear_indicator_pcb,67656172-5f69-46e6-9469-6361746f725f,rev?*%
%TF.SameCoordinates,Original*%
%TF.FileFunction,Profile,NP*%
%FSLAX46Y46*%
G04 Gerber Fmt 4.6, Leading zero omitted, Abs format (unit mm)*
G04 Created by KiCad (PCBNEW 9.0.3) date 2025-08-22 16:08:22*
%MOMM*%
%LPD*%
G01*
G04 APERTURE LIST*
%TA.AperFunction,Profile*%
%ADD10C,0.001623*%
%TD*%
G04 APERTURE END LIST*
D10*
X55010535Y-138309445D02*
X54664558Y-137558921D01*
X88911617Y-185353860D02*
X87872496Y-185061681D01*
X32176308Y-29209902D02*
X33076185Y-28663522D01*
X36184630Y-35087637D02*
X36359348Y-35625729D01*
X32078926Y-33613822D02*
X32526680Y-33405675D01*
X81175446Y-181643206D02*
X80323356Y-180968018D01*
X32526680Y-33405675D02*
X32997646Y-33283177D01*
X159126313Y-47532231D02*
X158991402Y-47789659D01*
X151172977Y-161912257D02*
X150596994Y-162411189D01*
X53384831Y-59771403D02*
X53546848Y-58709815D01*
X30384564Y-129278958D02*
X29872090Y-128359106D01*
X27597169Y-121383882D02*
X27468125Y-120331525D01*
X144466868Y-165536337D02*
X143698889Y-165713594D01*
X86258893Y-165741139D02*
X85503881Y-165577220D01*
X151724274Y-161386644D02*
X151172977Y-161912257D01*
X87872496Y-185061681D02*
X86850269Y-184718901D01*
X153514530Y-35367474D02*
X153621395Y-35097045D01*
X159233079Y-47261913D02*
X159126313Y-47532231D01*
X27854784Y-35012950D02*
X28221833Y-34010382D01*
X147503818Y-185915863D02*
X146395730Y-186000126D01*
X29872090Y-128359106D02*
X29405078Y-127416649D01*
X166111730Y-170697166D02*
X165768680Y-171710998D01*
X153766073Y-184313779D02*
X152775204Y-184704473D01*
X152748820Y-160259364D02*
X152249887Y-160835347D01*
X159314041Y-35625729D02*
X159373963Y-36194375D01*
X35276800Y-33950413D02*
X35521100Y-34171318D01*
X84758634Y-165378191D02*
X84024364Y-165144532D01*
X30418819Y-46357731D02*
X30418819Y-36233154D01*
X56764819Y-141116820D02*
X56271967Y-140447150D01*
X33479714Y-33246185D02*
X33960773Y-33294556D01*
X35521100Y-34171318D02*
X35902690Y-34597151D01*
X27364044Y-43381436D02*
X27364044Y-38258033D01*
X154808351Y-157044072D02*
X154457787Y-157728522D01*
X28005741Y-123455303D02*
X27776610Y-122425717D01*
X156314594Y-60457011D02*
X156373737Y-61628262D01*
X33480633Y-49333757D02*
X33013359Y-49299128D01*
X158641359Y-48256644D02*
X158428335Y-48461599D01*
X167092725Y-164208697D02*
X167064332Y-165331523D01*
X80559982Y-163473599D02*
X79916967Y-163042246D01*
X158231493Y-33950413D02*
X158475793Y-34171318D01*
X54356895Y-136791893D02*
X54088184Y-136009842D01*
X166871179Y-36105911D02*
X167036425Y-37188893D01*
X149377296Y-51073077D02*
X150378662Y-51555459D01*
X154075555Y-158393274D02*
X153662651Y-159037330D01*
X158991402Y-47789659D02*
X158829399Y-48031897D01*
X34030223Y-28204260D02*
X35032934Y-27837602D01*
X156353081Y-150979033D02*
X156291779Y-151785159D01*
X155858726Y-58221770D02*
X156141004Y-59319595D01*
X155126248Y-156340921D02*
X154808351Y-157044072D01*
X142122789Y-165954149D02*
X141316663Y-166015451D01*
X153389532Y-35937834D02*
X153436891Y-35648506D01*
X36278386Y-47261913D02*
X36171620Y-47532231D01*
X167092725Y-54018599D02*
X167092725Y-137915812D01*
X155873967Y-154129238D02*
X155660054Y-154882506D01*
X78690477Y-162086215D02*
X78109420Y-161562498D01*
X153373512Y-36233154D02*
X153389532Y-35937834D01*
X165377985Y-172701866D02*
X164941017Y-173668399D01*
X153947022Y-48030937D02*
X153776666Y-47784839D01*
X159357957Y-46691809D02*
X159310645Y-46981005D01*
X152775204Y-184704473D02*
X151761372Y-185047524D01*
X156915466Y-33294556D02*
X157383407Y-33428146D01*
X83302278Y-164876724D02*
X82593588Y-164575246D01*
X80323356Y-180968018D02*
X79502981Y-180248456D01*
X32119922Y-48988723D02*
X31715723Y-48712690D01*
X57855253Y-142382915D02*
X57292793Y-141762570D01*
X153522163Y-47245872D02*
X153440360Y-46957967D01*
X156373737Y-113477612D02*
X156373737Y-150162187D01*
X30992329Y-48030937D02*
X30821973Y-47784839D01*
X33604185Y-133478752D02*
X32874977Y-132697809D01*
X155968052Y-49299128D02*
X155510821Y-49184159D01*
X32187706Y-131885632D02*
X31543077Y-131043947D01*
X146089581Y-50231998D02*
X147226998Y-50405588D01*
X56271967Y-140447150D02*
X55814878Y-139755042D01*
X91033133Y-185783307D02*
X89965780Y-185594662D01*
X31413388Y-48463944D02*
X31189858Y-48258133D01*
X85846790Y-184326300D02*
X84863911Y-183884655D01*
X53546848Y-58709815D02*
X53810309Y-57685180D01*
X154417336Y-55223430D02*
X154991134Y-56167930D01*
X156587180Y-182869540D02*
X155673432Y-183394941D01*
X140499817Y-166036107D02*
X139354276Y-166036107D01*
X53859062Y-135214252D02*
X53670168Y-134406605D01*
X159139323Y-35087637D02*
X159314041Y-35625729D01*
X36355952Y-46981005D02*
X36278386Y-47261913D01*
X153436891Y-35648506D02*
X153514530Y-35367474D01*
X53522140Y-133588385D02*
X53415616Y-132761075D01*
X82057399Y-182273242D02*
X81175446Y-181643206D01*
X27390181Y-119270372D02*
X27364044Y-118202149D01*
X53351233Y-131926158D02*
X53329631Y-131085117D01*
X28681468Y-33056523D02*
X29228199Y-32156860D01*
X82967363Y-182857348D02*
X82057399Y-182273242D01*
X156051224Y-153361259D02*
X155873967Y-154129238D01*
X31152090Y-34372414D02*
X31365297Y-34167439D01*
X165768680Y-171710998D02*
X165377985Y-172701866D01*
X167064332Y-165331523D02*
X166980069Y-166439612D01*
X153756430Y-34839521D02*
X153918578Y-34597209D01*
X57292793Y-141762570D02*
X56764819Y-141116820D01*
X143698889Y-165713594D02*
X142917197Y-165853197D01*
X167092725Y-137915812D02*
X167092725Y-164208697D01*
X166405766Y-169661739D02*
X166111730Y-170697166D01*
X84863911Y-183884655D02*
X83903484Y-183394744D01*
X30567470Y-47245872D02*
X30485667Y-46957967D01*
X154368081Y-48463944D02*
X154144551Y-48258133D01*
X154991134Y-56167930D02*
X155473516Y-57169296D01*
X159373963Y-46396625D02*
X159357957Y-46691809D01*
X33960773Y-33294556D02*
X34428714Y-33428146D01*
X159943974Y-180360050D02*
X159152247Y-181045863D01*
X148595798Y-185777100D02*
X147503818Y-185915863D01*
X31543077Y-131043947D02*
X30941795Y-130174481D01*
X54088184Y-136009842D02*
X53859062Y-135214252D01*
X27364044Y-38258033D02*
X27420400Y-37142262D01*
X146678551Y-164788618D02*
X145957697Y-165072852D01*
X30435726Y-46661093D02*
X30418819Y-46357731D01*
X159430300Y-27885663D02*
X160432275Y-28252739D01*
X79293395Y-162579624D02*
X78690477Y-162086215D01*
X156190827Y-152579567D02*
X156051224Y-153361259D01*
X29228199Y-32156860D02*
X29856538Y-31316879D01*
X163898712Y-30591095D02*
X164602555Y-31365795D01*
X31189858Y-48258133D02*
X30992329Y-48030937D01*
X28283858Y-124470916D02*
X28005741Y-123455303D01*
X149374960Y-163325021D02*
X148730904Y-163737924D01*
X53670168Y-134406605D02*
X53522140Y-133588385D01*
X141316663Y-166015451D02*
X140499817Y-166036107D01*
X82593588Y-164575246D02*
X81899502Y-164240579D01*
X163366186Y-176408273D02*
X162757836Y-177263753D01*
X131062745Y-186028518D02*
X94295800Y-186028518D01*
X153621395Y-35097045D02*
X153756430Y-34839521D01*
X36036709Y-47789659D02*
X35874706Y-48031897D01*
X154106783Y-34372414D02*
X154319990Y-34167439D01*
X157302272Y-27450894D02*
X158385139Y-27616555D01*
X53810309Y-57685180D02*
X54169838Y-56702871D01*
X30482198Y-35648506D02*
X30559837Y-35367474D01*
X35902690Y-34597151D02*
X36184630Y-35087637D01*
X153662651Y-159037330D02*
X153220073Y-159659692D01*
X30963885Y-34597209D02*
X31152090Y-34372414D01*
X155473516Y-57169296D02*
X155858726Y-58221770D01*
X35874706Y-48031897D02*
X35686666Y-48256644D01*
X165230333Y-32205576D02*
X165776563Y-33104959D01*
X54664558Y-137558921D02*
X54356895Y-136791893D01*
X155033619Y-33613822D02*
X155481373Y-33405675D01*
X83903484Y-183394744D02*
X82967363Y-182857348D01*
X30434839Y-35937834D02*
X30482198Y-35648506D01*
X57220421Y-52614323D02*
X58043505Y-51998832D01*
X36359348Y-35625729D02*
X36419270Y-36194375D01*
X53329631Y-60864568D02*
X53384831Y-59771403D01*
X87793377Y-165961724D02*
X87022462Y-165869467D01*
X161385584Y-28712300D02*
X162284746Y-29258868D01*
X84024364Y-165144532D02*
X83302278Y-164876724D01*
X30941795Y-130174481D02*
X30384564Y-129278958D01*
X28610257Y-125470828D02*
X28283858Y-124470916D01*
X61866590Y-50390073D02*
X62928178Y-50228055D01*
X35686666Y-48256644D02*
X35473642Y-48461599D01*
X147226998Y-50405588D02*
X148324822Y-50687867D01*
X30801737Y-34839521D02*
X30963885Y-34597209D01*
X55814878Y-139755042D02*
X55394188Y-139041979D01*
X34871426Y-33646813D02*
X35276800Y-33950413D01*
X30679963Y-47522323D02*
X30567470Y-47245872D01*
X55771098Y-54063646D02*
X56461161Y-53304386D01*
X33013359Y-49299128D02*
X32556128Y-49184159D01*
X164941017Y-173668399D02*
X164459147Y-174609225D01*
X145957697Y-165072852D02*
X145220137Y-165322424D01*
X31365297Y-34167439D02*
X31666492Y-33907761D01*
X163933746Y-175522974D02*
X163366186Y-176408273D01*
X155510821Y-49184159D02*
X155074615Y-48988723D01*
X78716175Y-179485300D02*
X33604185Y-133478752D01*
X157383407Y-33428146D02*
X157826119Y-33646813D01*
X153634656Y-47522323D02*
X153522163Y-47245872D01*
X154670416Y-48712690D02*
X154368081Y-48463944D01*
X33076185Y-28663522D02*
X34030223Y-28204260D01*
X148730904Y-163737924D02*
X148066152Y-164120157D01*
X166841306Y-167531592D02*
X166649415Y-168606091D01*
X32874977Y-132697809D02*
X32187706Y-131885632D01*
X159310645Y-46981005D02*
X159233079Y-47261913D01*
X160701767Y-179637561D02*
X159943974Y-180360050D01*
X156373737Y-150162187D02*
X156353081Y-150979033D01*
X31715723Y-48712690D02*
X31413388Y-48463944D01*
X157787565Y-48956894D02*
X157356065Y-49162512D01*
X153776666Y-47784839D02*
X153634656Y-47522323D01*
X167092725Y-38304073D02*
X167092725Y-54018599D01*
X38278209Y-27348128D02*
X156187178Y-27394162D01*
X150378662Y-51555459D02*
X151323162Y-52129256D01*
X27364044Y-118202149D02*
X27364044Y-75565673D01*
X29405078Y-127416649D02*
X28984232Y-126453315D01*
X164459147Y-174609225D02*
X163933746Y-175522974D01*
X144918331Y-50172855D02*
X146089581Y-50231998D01*
X155673432Y-183394941D02*
X154732605Y-183876811D01*
X28221833Y-34010382D02*
X28681468Y-33056523D01*
X151323162Y-52129256D02*
X152205037Y-52788710D01*
X145220137Y-165322424D02*
X144466868Y-165536337D01*
X156373737Y-61628262D02*
X156373737Y-67874185D01*
X32997646Y-33283177D02*
X33479714Y-33246185D01*
X35473642Y-48461599D02*
X35230482Y-48671451D01*
X147381702Y-164470721D02*
X146678551Y-164788618D01*
X55394188Y-139041979D02*
X55010535Y-138309445D01*
X149997323Y-162882443D02*
X149374960Y-163325021D01*
X159373963Y-36194375D02*
X159373963Y-46396625D01*
X153440360Y-46957967D02*
X153390419Y-46661093D01*
X31336082Y-29837913D02*
X32176308Y-29209902D01*
X58043505Y-51998832D02*
X58925038Y-51463287D01*
X33946965Y-49288176D02*
X33480633Y-49333757D01*
X36403264Y-46691809D02*
X36355952Y-46981005D01*
X157472479Y-182301979D02*
X156587180Y-182869540D01*
X56461161Y-53304386D02*
X57220421Y-52614323D01*
X153220073Y-159659692D02*
X152748820Y-160259364D01*
X37162416Y-27404049D02*
X38278209Y-27348128D01*
X54169838Y-56702871D02*
X54620063Y-55768263D01*
X87022462Y-165869467D02*
X86258893Y-165741139D01*
X94295800Y-186028518D02*
X93199995Y-186001013D01*
X35032934Y-27837602D02*
X36078828Y-27569036D01*
X78109420Y-161562498D02*
X58451561Y-142976374D01*
X166980069Y-166439612D02*
X166841306Y-167531592D01*
X155074615Y-48988723D02*
X154670416Y-48712690D01*
X149670297Y-185585208D02*
X148595798Y-185777100D01*
X156291779Y-151785159D02*
X156190827Y-152579567D01*
X89965780Y-185594662D02*
X88911617Y-185353860D01*
X146395730Y-186000126D02*
X145272903Y-186028518D01*
X36419270Y-46396625D02*
X36403264Y-46691809D01*
X62928178Y-50228055D02*
X64021343Y-50172855D01*
X35230482Y-48671451D02*
X34832872Y-48956894D01*
X53415616Y-132761075D02*
X53351233Y-131926158D01*
X148066152Y-164120157D02*
X147381702Y-164470721D01*
X153918578Y-34597209D02*
X154106783Y-34372414D01*
X158857383Y-34597151D02*
X159139323Y-35087637D01*
X157356065Y-49162512D02*
X156901658Y-49288176D01*
X30418819Y-36233154D02*
X30434839Y-35937834D01*
X166649415Y-168606091D02*
X166405766Y-169661739D01*
X155952339Y-33283177D02*
X156434407Y-33246185D01*
X163124282Y-29886960D02*
X163898712Y-30591095D01*
X53329631Y-117487004D02*
X53329631Y-61955559D01*
X161424256Y-178879768D02*
X160701767Y-179637561D01*
X165776563Y-33104959D02*
X166235768Y-34058463D01*
X162757836Y-177263753D02*
X162110069Y-178088041D01*
X79502981Y-180248456D02*
X78716175Y-179485300D01*
X27585810Y-36058739D02*
X27854784Y-35012950D01*
X34428714Y-33428146D02*
X34871426Y-33646813D01*
X154319990Y-34167439D02*
X154621185Y-33907761D01*
X160432275Y-28252739D02*
X161385584Y-28712300D01*
X53329631Y-61955559D02*
X53329631Y-60864568D01*
X151761372Y-185047524D02*
X150725946Y-185341559D01*
X36078828Y-27569036D02*
X37162416Y-27404049D01*
X156435326Y-49333757D02*
X155968052Y-49299128D01*
X60841955Y-50653534D02*
X61866590Y-50390073D01*
X58451561Y-142976374D02*
X57855253Y-142382915D01*
X152249887Y-160835347D02*
X151724274Y-161386644D01*
X27364044Y-75565673D02*
X27364044Y-43381436D01*
X53329631Y-131085117D02*
X53329631Y-117487004D01*
X64021343Y-50172855D02*
X144918331Y-50172855D01*
X30559837Y-35367474D02*
X30666702Y-35097045D01*
X166235768Y-34058463D02*
X166602467Y-35060608D01*
X159152247Y-181045863D02*
X158327959Y-181693630D01*
X88570430Y-166017431D02*
X87793377Y-165961724D01*
X54620063Y-55768263D02*
X55155607Y-54886730D01*
X32556128Y-49184159D02*
X32119922Y-48988723D01*
X59859646Y-51013063D02*
X60841955Y-50653534D01*
X36419270Y-36194375D02*
X36419270Y-46396625D01*
X164602555Y-31365795D02*
X165230333Y-32205576D01*
X145272903Y-186028518D02*
X131062745Y-186028518D01*
X153757883Y-54341555D02*
X154417336Y-55223430D01*
X155481373Y-33405675D02*
X155952339Y-33283177D01*
X153018530Y-53528062D02*
X153757883Y-54341555D01*
X30821973Y-47784839D02*
X30679963Y-47522323D01*
X89352410Y-166036107D02*
X88570430Y-166017431D01*
X156434407Y-33246185D02*
X156915466Y-33294556D01*
X154457787Y-157728522D02*
X154075555Y-158393274D01*
X156373737Y-67874185D02*
X156373737Y-113477612D01*
X93199995Y-186001013D02*
X92111822Y-185919016D01*
X153373512Y-46357731D02*
X153373512Y-36233154D01*
X158185175Y-48671451D02*
X157787565Y-48956894D01*
X79916967Y-163042246D02*
X79293395Y-162579624D01*
X167036425Y-37188893D02*
X167092725Y-38304073D01*
X162284746Y-29258868D02*
X163124282Y-29886960D01*
X81899502Y-164240579D02*
X81221230Y-163873204D01*
X29856538Y-31316879D02*
X30560995Y-30542068D01*
X152205037Y-52788710D02*
X153018530Y-53528062D01*
X28984232Y-126453315D02*
X28610257Y-125470828D01*
X30560995Y-30542068D02*
X31336082Y-29837913D01*
X85503881Y-165577220D02*
X84758634Y-165378191D01*
X34401372Y-49162512D02*
X33946965Y-49288176D01*
X154621185Y-33907761D02*
X155033619Y-33613822D01*
X58925038Y-51463287D02*
X59859646Y-51013063D01*
X27420400Y-37142262D02*
X27585810Y-36058739D01*
X157826119Y-33646813D02*
X158231493Y-33950413D01*
X153390419Y-46661093D02*
X153373512Y-46357731D01*
X166602467Y-35060608D02*
X166871179Y-36105911D01*
X92111822Y-185919016D02*
X91033133Y-185783307D01*
X139354276Y-166036107D02*
X89352410Y-166036107D01*
X156901658Y-49288176D02*
X156435326Y-49333757D01*
X36171620Y-47532231D02*
X36036709Y-47789659D01*
X55155607Y-54886730D02*
X55771098Y-54063646D01*
X162110069Y-178088041D02*
X161424256Y-178879768D01*
X158327959Y-181693630D02*
X157472479Y-182301979D01*
X27776610Y-122425717D02*
X27597169Y-121383882D01*
X34832872Y-48956894D02*
X34401372Y-49162512D01*
X150596994Y-162411189D02*
X149997323Y-162882443D01*
X154144551Y-48258133D02*
X153947022Y-48030937D01*
X155660054Y-154882506D02*
X155410482Y-155620067D01*
X156141004Y-59319595D02*
X156314594Y-60457011D01*
X86850269Y-184718901D02*
X85846790Y-184326300D01*
X158829399Y-48031897D02*
X158641359Y-48256644D01*
X158385139Y-27616555D02*
X159430300Y-27885663D01*
X154732605Y-183876811D02*
X153766073Y-184313779D01*
X31666492Y-33907761D02*
X32078926Y-33613822D01*
X142917197Y-165853197D02*
X142122789Y-165954149D01*
X158475793Y-34171318D02*
X158857383Y-34597151D01*
X158428335Y-48461599D02*
X158185175Y-48671451D01*
X150725946Y-185341559D02*
X149670297Y-185585208D01*
X30485667Y-46957967D02*
X30435726Y-46661093D01*
X27468125Y-120331525D02*
X27390181Y-119270372D01*
X148324822Y-50687867D02*
X149377296Y-51073077D01*
X156187178Y-27394162D02*
X157302272Y-27450894D01*
X81221230Y-163873204D02*
X80559982Y-163473599D01*
X155410482Y-155620067D02*
X155126248Y-156340921D01*
X30666702Y-35097045D02*
X30801737Y-34839521D01*
M02*
