%TF.GenerationSoftware,KiCad,Pcbnew,9.0.3*%
%TF.CreationDate,2025-08-22T16:08:22-07:00*%
%TF.ProjectId,gear_indicator_pcb,67656172-5f69-46e6-9469-6361746f725f,rev?*%
%TF.SameCoordinates,Original*%
%TF.FileFunction,Copper,L2,Bot*%
%TF.FilePolarity,Positive*%
%FSLAX46Y46*%
G04 Gerber Fmt 4.6, Leading zero omitted, Abs format (unit mm)*
G04 Created by KiCad (PCBNEW 9.0.3) date 2025-08-22 16:08:22*
%MOMM*%
%LPD*%
G01*
G04 APERTURE LIST*
G04 Aperture macros list*
%AMRotRect*
0 Rectangle, with rotation*
0 The origin of the aperture is its center*
0 $1 length*
0 $2 width*
0 $3 Rotation angle, in degrees counterclockwise*
0 Add horizontal line*
21,1,$1,$2,0,0,$3*%
G04 Aperture macros list end*
%TA.AperFunction,Conductor*%
%ADD10C,0.200000*%
%TD*%
%TA.AperFunction,ComponentPad*%
%ADD11C,1.700000*%
%TD*%
%TA.AperFunction,ComponentPad*%
%ADD12R,1.700000X1.700000*%
%TD*%
%TA.AperFunction,ComponentPad*%
%ADD13RotRect,1.700000X1.700000X315.000000*%
%TD*%
G04 APERTURE END LIST*
D10*
%TO.N,Net-(CONNECTOR1-VCC)*%
X143950000Y-43350000D02*
G75*
G02*
X162749997Y-63950001I-16215570J-33677310D01*
G01*
X162771647Y-157950000D02*
G75*
G02*
X146821647Y-173899997I-15949997J0D01*
G01*
X44150000Y-55000000D02*
G75*
G02*
X55800000Y-43350000I11650000J0D01*
G01*
%TD*%
D11*
%TO.P,HALL11_1,1,VCC*%
%TO.N,Net-(CONNECTOR1-VCC)*%
X160509449Y-80676548D03*
D12*
%TO.P,HALL11_1,2,GND*%
%TO.N,Net-(CONNECTOR1-GND)*%
X160509449Y-83216548D03*
D11*
%TO.P,HALL11_1,3,OUT*%
%TO.N,Net-(CONNECTOR1-A11)*%
X160509449Y-85756548D03*
%TD*%
%TO.P,HALL13,1,VCC*%
%TO.N,Net-(CONNECTOR1-VCC)*%
X85450000Y-170750000D03*
D12*
%TO.P,HALL13,2,GND*%
%TO.N,Net-(CONNECTOR1-GND)*%
X82910000Y-170750000D03*
D11*
%TO.P,HALL13,3,OUT*%
%TO.N,Net-(CONNECTOR1-A13)*%
X80370000Y-170750000D03*
%TD*%
%TO.P,HALL11_0,1,VCC*%
%TO.N,Net-(CONNECTOR1-VCC)*%
X137950000Y-45750000D03*
D12*
%TO.P,HALL11_0,2,GND*%
%TO.N,Net-(CONNECTOR1-GND)*%
X140490000Y-45750000D03*
D11*
%TO.P,HALL11_0,3,OUT*%
%TO.N,Net-(CONNECTOR1-A11)*%
X143030000Y-45750000D03*
%TD*%
%TO.P,HALL10,1,VCC*%
%TO.N,Net-(CONNECTOR1-VCC)*%
X109360000Y-45600000D03*
D12*
%TO.P,HALL10,2,GND*%
%TO.N,Net-(CONNECTOR1-GND)*%
X111900000Y-45600000D03*
D11*
%TO.P,HALL10,3,OUT*%
%TO.N,Net-(CONNECTOR1-A10)*%
X114440000Y-45600000D03*
%TD*%
%TO.P,HALL8_1,1,VCC*%
%TO.N,Net-(CONNECTOR1-VCC)*%
X51463398Y-52862599D03*
D13*
%TO.P,HALL8_1,2,GND*%
%TO.N,Net-(CONNECTOR1-GND)*%
X53259449Y-51066548D03*
D11*
%TO.P,HALL8_1,3,OUT*%
%TO.N,Net-(CONNECTOR1-A8)*%
X55055500Y-49270497D03*
%TD*%
%TO.P,HALL9,1,VCC*%
%TO.N,Net-(CONNECTOR1-VCC)*%
X80170000Y-45750000D03*
D12*
%TO.P,HALL9,2,GND*%
%TO.N,Net-(CONNECTOR1-GND)*%
X82710000Y-45750000D03*
D11*
%TO.P,HALL9,3,OUT*%
%TO.N,Net-(CONNECTOR1-A9)*%
X85250000Y-45750000D03*
%TD*%
%TO.P,HALL8_0,1,VCC*%
%TO.N,Net-(CONNECTOR1-VCC)*%
X48950000Y-86550000D03*
D12*
%TO.P,HALL8_0,2,GND*%
%TO.N,Net-(CONNECTOR1-GND)*%
X48950000Y-84010000D03*
D11*
%TO.P,HALL8_0,3,OUT*%
%TO.N,Net-(CONNECTOR1-A8)*%
X48950000Y-81470000D03*
%TD*%
D12*
%TO.P,CONNECTOR1,1,GND*%
%TO.N,Net-(CONNECTOR1-GND)*%
X110900000Y-31200000D03*
D11*
%TO.P,CONNECTOR1,2,VCC*%
%TO.N,Net-(CONNECTOR1-VCC)*%
X108360000Y-31200000D03*
%TO.P,CONNECTOR1,3,A13*%
%TO.N,Net-(CONNECTOR1-A13)*%
X105820000Y-31200000D03*
%TO.P,CONNECTOR1,4,A12*%
%TO.N,Net-(CONNECTOR1-A12)*%
X103280000Y-31200000D03*
%TO.P,CONNECTOR1,5,A11*%
%TO.N,Net-(CONNECTOR1-A11)*%
X100740000Y-31200000D03*
%TO.P,CONNECTOR1,6,A10*%
%TO.N,Net-(CONNECTOR1-A10)*%
X98200000Y-31200000D03*
%TO.P,CONNECTOR1,7,A9*%
%TO.N,Net-(CONNECTOR1-A9)*%
X95660000Y-31200000D03*
%TO.P,CONNECTOR1,8,A8*%
%TO.N,Net-(CONNECTOR1-A8)*%
X93120000Y-31200000D03*
%TD*%
%TO.P,HALL12,1,VCC*%
%TO.N,Net-(CONNECTOR1-VCC)*%
X115500000Y-170750000D03*
D12*
%TO.P,HALL12,2,GND*%
%TO.N,Net-(CONNECTOR1-GND)*%
X112960000Y-170750000D03*
D11*
%TO.P,HALL12,3,OUT*%
%TO.N,Net-(CONNECTOR1-A12)*%
X110420000Y-170750000D03*
%TD*%
D10*
%TO.N,Net-(CONNECTOR1-VCC)*%
X108360000Y-43260000D02*
X108450000Y-43350000D01*
X115500000Y-173900000D02*
X85500000Y-173900000D01*
X51463398Y-52862599D02*
X47562206Y-48961407D01*
X162771647Y-80676548D02*
X162771647Y-63971647D01*
X85450000Y-170750000D02*
X85450000Y-173850000D01*
X162350000Y-80676548D02*
X161660449Y-80676548D01*
X80170000Y-45750000D02*
X80170000Y-43430000D01*
X44150000Y-55000000D02*
X44150000Y-86550000D01*
X48950000Y-86550000D02*
X44150000Y-86550000D01*
X161660449Y-80676548D02*
X160509449Y-80676548D01*
X137950000Y-43350000D02*
X109050000Y-43350000D01*
X115500000Y-170750000D02*
X115500000Y-173900000D01*
X108450000Y-43350000D02*
X80250000Y-43350000D01*
X55800000Y-43350000D02*
X80250000Y-43350000D01*
X80170000Y-43430000D02*
X80250000Y-43350000D01*
X137950000Y-45750000D02*
X137950000Y-43350000D01*
X108360000Y-31200000D02*
X108360000Y-43260000D01*
X85450000Y-173850000D02*
X85500000Y-173900000D01*
X47562206Y-48961407D02*
X47562206Y-46762206D01*
X108450000Y-43350000D02*
X109050000Y-43350000D01*
X109050000Y-43350000D02*
X109050000Y-45750000D01*
X162771647Y-80676548D02*
X162350000Y-80676548D01*
X162771647Y-63971647D02*
X162750000Y-63950000D01*
X162771647Y-157950000D02*
X162771647Y-80676548D01*
X143950000Y-43350000D02*
X137950000Y-43350000D01*
X115500000Y-173900000D02*
X146821647Y-173900000D01*
%TD*%
%TA.AperFunction,Conductor*%
%TO.N,Net-(CONNECTOR1-GND)*%
G36*
X156171268Y-27894655D02*
G01*
X156177461Y-27894814D01*
X157245339Y-27949144D01*
X157257765Y-27950407D01*
X158278508Y-28106564D01*
X158290662Y-28109052D01*
X159275493Y-28362627D01*
X159287223Y-28366276D01*
X160231345Y-28712158D01*
X160242521Y-28716885D01*
X161140959Y-29149994D01*
X161151501Y-29155721D01*
X161918775Y-29622120D01*
X161999104Y-29670949D01*
X162008977Y-29677621D01*
X162800541Y-30269824D01*
X162809677Y-30277366D01*
X163539948Y-30941349D01*
X163548307Y-30949710D01*
X163620289Y-31028938D01*
X164212031Y-31680252D01*
X164219570Y-31689392D01*
X164811480Y-32481193D01*
X164818142Y-32491061D01*
X165261059Y-33220336D01*
X165333045Y-33338863D01*
X165338779Y-33349427D01*
X165771543Y-34248027D01*
X165776273Y-34259221D01*
X166121795Y-35203491D01*
X166125441Y-35215228D01*
X166378640Y-36200182D01*
X166381126Y-36212351D01*
X166536890Y-37233194D01*
X166538151Y-37245646D01*
X166592067Y-38313568D01*
X166592225Y-38319820D01*
X166592225Y-164200829D01*
X166592185Y-164203964D01*
X166564390Y-165303065D01*
X166564073Y-165309332D01*
X166482206Y-166385918D01*
X166481574Y-166392148D01*
X166346779Y-167452903D01*
X166345837Y-167459071D01*
X166159459Y-168502699D01*
X166158214Y-168508786D01*
X165921584Y-169534022D01*
X165920044Y-169540009D01*
X165634493Y-170545556D01*
X165632667Y-170551426D01*
X165299526Y-171535973D01*
X165297425Y-171541714D01*
X164917974Y-172504064D01*
X164915606Y-172509661D01*
X164491235Y-173448332D01*
X164488612Y-173453777D01*
X164020581Y-174367582D01*
X164017712Y-174372865D01*
X163507368Y-175260428D01*
X163504261Y-175265542D01*
X162952935Y-176125517D01*
X162949599Y-176130455D01*
X162358612Y-176961518D01*
X162355055Y-176966274D01*
X161725768Y-177767047D01*
X161721997Y-177771617D01*
X161055709Y-178540804D01*
X161051730Y-178545182D01*
X160349800Y-179281411D01*
X160345619Y-179285592D01*
X159609387Y-179987524D01*
X159605009Y-179991503D01*
X158835821Y-180657792D01*
X158831251Y-180661563D01*
X158030485Y-181290846D01*
X158025729Y-181294403D01*
X157194657Y-181885395D01*
X157189719Y-181888731D01*
X156329732Y-182440065D01*
X156324618Y-182443172D01*
X155437072Y-182953507D01*
X155431789Y-182956376D01*
X154517984Y-183424406D01*
X154512539Y-183427029D01*
X153573856Y-183851406D01*
X153568258Y-183853774D01*
X152605927Y-184233215D01*
X152600187Y-184235316D01*
X151615632Y-184568461D01*
X151609762Y-184570287D01*
X150604217Y-184855837D01*
X150598230Y-184857377D01*
X149572990Y-185094008D01*
X149566903Y-185095253D01*
X148523291Y-185281629D01*
X148517123Y-185282571D01*
X147456354Y-185417368D01*
X147450124Y-185418000D01*
X146373539Y-185499867D01*
X146367272Y-185500184D01*
X145268174Y-185527978D01*
X145265039Y-185528018D01*
X94303637Y-185528018D01*
X94300527Y-185527979D01*
X94255325Y-185526844D01*
X93228186Y-185501062D01*
X93221981Y-185500750D01*
X92164998Y-185421104D01*
X92158837Y-185420485D01*
X91111048Y-185288663D01*
X91104945Y-185287741D01*
X90068151Y-185104498D01*
X90062118Y-185103276D01*
X89038170Y-184869376D01*
X89032219Y-184867861D01*
X88022826Y-184584041D01*
X88016968Y-184582236D01*
X87024034Y-184249279D01*
X87018278Y-184247190D01*
X86043487Y-183865812D01*
X86037843Y-183863441D01*
X85083126Y-183434452D01*
X85077604Y-183431805D01*
X85065796Y-183425782D01*
X84720676Y-183249737D01*
X84144663Y-182955914D01*
X84139273Y-182952995D01*
X83661541Y-182678745D01*
X83229946Y-182430980D01*
X83224706Y-182427797D01*
X82764907Y-182132652D01*
X82340799Y-181860417D01*
X82335705Y-181856965D01*
X81479024Y-181244982D01*
X81474093Y-181241270D01*
X80646435Y-180585442D01*
X80641679Y-180581477D01*
X79844770Y-179882498D01*
X79840203Y-179878285D01*
X79070259Y-179131483D01*
X79068054Y-179129290D01*
X70827822Y-170725657D01*
X33966898Y-133133792D01*
X33964804Y-133131604D01*
X33251205Y-132367376D01*
X33247180Y-132362848D01*
X32579604Y-131573945D01*
X32575816Y-131569242D01*
X31949646Y-130751660D01*
X31946103Y-130746793D01*
X31362041Y-129902228D01*
X31358747Y-129897209D01*
X31132190Y-129533111D01*
X30817488Y-129027354D01*
X30814447Y-129022193D01*
X30316640Y-128128667D01*
X30313856Y-128123373D01*
X29860218Y-127207906D01*
X29857695Y-127202491D01*
X29448895Y-126266729D01*
X29446637Y-126261200D01*
X29083370Y-125306844D01*
X29081391Y-125301246D01*
X28764320Y-124329913D01*
X28762607Y-124324200D01*
X28575030Y-123639216D01*
X28492447Y-123337644D01*
X28491016Y-123331876D01*
X28268440Y-122331739D01*
X28267286Y-122325891D01*
X28092976Y-121313849D01*
X28092102Y-121307913D01*
X27971823Y-120327040D01*
X27966754Y-120285697D01*
X27966166Y-120279699D01*
X27890451Y-119248898D01*
X27890158Y-119242915D01*
X27864581Y-118197519D01*
X27864544Y-118194486D01*
X27864544Y-54656284D01*
X43549500Y-54656284D01*
X43549500Y-54920943D01*
X43549500Y-86470943D01*
X43549500Y-86629057D01*
X43556797Y-86656287D01*
X43590423Y-86781783D01*
X43590426Y-86781790D01*
X43669475Y-86918709D01*
X43669479Y-86918714D01*
X43669480Y-86918716D01*
X43781284Y-87030520D01*
X43781286Y-87030521D01*
X43781290Y-87030524D01*
X43856237Y-87073794D01*
X43918216Y-87109577D01*
X44070943Y-87150500D01*
X47664281Y-87150500D01*
X47731320Y-87170185D01*
X47774765Y-87218205D01*
X47794947Y-87257814D01*
X47794948Y-87257815D01*
X47919890Y-87429786D01*
X48070213Y-87580109D01*
X48242179Y-87705048D01*
X48242181Y-87705049D01*
X48242184Y-87705051D01*
X48431588Y-87801557D01*
X48633757Y-87867246D01*
X48843713Y-87900500D01*
X48843714Y-87900500D01*
X49056286Y-87900500D01*
X49056287Y-87900500D01*
X49266243Y-87867246D01*
X49468412Y-87801557D01*
X49657816Y-87705051D01*
X49679789Y-87689086D01*
X49829786Y-87580109D01*
X49829788Y-87580106D01*
X49829792Y-87580104D01*
X49980104Y-87429792D01*
X49980106Y-87429788D01*
X49980109Y-87429786D01*
X50105048Y-87257820D01*
X50105047Y-87257820D01*
X50105051Y-87257816D01*
X50201557Y-87068412D01*
X50267246Y-86866243D01*
X50300500Y-86656287D01*
X50300500Y-86443713D01*
X50267246Y-86233757D01*
X50201557Y-86031588D01*
X50105051Y-85842184D01*
X50105049Y-85842181D01*
X50105048Y-85842179D01*
X49980109Y-85670213D01*
X49866181Y-85556285D01*
X49832696Y-85494962D01*
X49837680Y-85425270D01*
X49879552Y-85369337D01*
X49910529Y-85352422D01*
X50042086Y-85303354D01*
X50042093Y-85303350D01*
X50157187Y-85217190D01*
X50157190Y-85217187D01*
X50243350Y-85102093D01*
X50243354Y-85102086D01*
X50293596Y-84967379D01*
X50293598Y-84967372D01*
X50299999Y-84907844D01*
X50300000Y-84907827D01*
X50300000Y-84260000D01*
X49383012Y-84260000D01*
X49415925Y-84202993D01*
X49450000Y-84075826D01*
X49450000Y-83944174D01*
X49415925Y-83817007D01*
X49383012Y-83760000D01*
X50300000Y-83760000D01*
X50300000Y-83112172D01*
X50299999Y-83112155D01*
X50293598Y-83052627D01*
X50293596Y-83052620D01*
X50243354Y-82917913D01*
X50243350Y-82917906D01*
X50157190Y-82802812D01*
X50157187Y-82802809D01*
X50042093Y-82716649D01*
X50042088Y-82716646D01*
X49910528Y-82667577D01*
X49854595Y-82625705D01*
X49830178Y-82560241D01*
X49845030Y-82491968D01*
X49866175Y-82463720D01*
X49980104Y-82349792D01*
X50105051Y-82177816D01*
X50201557Y-81988412D01*
X50267246Y-81786243D01*
X50300500Y-81576287D01*
X50300500Y-81363713D01*
X50267246Y-81153757D01*
X50201557Y-80951588D01*
X50105051Y-80762184D01*
X50105049Y-80762181D01*
X50105048Y-80762179D01*
X49980109Y-80590213D01*
X49829786Y-80439890D01*
X49657820Y-80314951D01*
X49468414Y-80218444D01*
X49468413Y-80218443D01*
X49468412Y-80218443D01*
X49266243Y-80152754D01*
X49266241Y-80152753D01*
X49266240Y-80152753D01*
X49104957Y-80127208D01*
X49056287Y-80119500D01*
X48843713Y-80119500D01*
X48795042Y-80127208D01*
X48633760Y-80152753D01*
X48431585Y-80218444D01*
X48242179Y-80314951D01*
X48070213Y-80439890D01*
X47919890Y-80590213D01*
X47794951Y-80762179D01*
X47698444Y-80951585D01*
X47632753Y-81153760D01*
X47599500Y-81363713D01*
X47599500Y-81576286D01*
X47629672Y-81766789D01*
X47632754Y-81786243D01*
X47677253Y-81923197D01*
X47698444Y-81988414D01*
X47794951Y-82177820D01*
X47919890Y-82349786D01*
X48033818Y-82463714D01*
X48067303Y-82525037D01*
X48062319Y-82594729D01*
X48020447Y-82650662D01*
X47989471Y-82667577D01*
X47857912Y-82716646D01*
X47857906Y-82716649D01*
X47742812Y-82802809D01*
X47742809Y-82802812D01*
X47656649Y-82917906D01*
X47656645Y-82917913D01*
X47606403Y-83052620D01*
X47606401Y-83052627D01*
X47600000Y-83112155D01*
X47600000Y-83760000D01*
X48516988Y-83760000D01*
X48484075Y-83817007D01*
X48450000Y-83944174D01*
X48450000Y-84075826D01*
X48484075Y-84202993D01*
X48516988Y-84260000D01*
X47600000Y-84260000D01*
X47600000Y-84907844D01*
X47606401Y-84967372D01*
X47606403Y-84967379D01*
X47656645Y-85102086D01*
X47656649Y-85102093D01*
X47742809Y-85217187D01*
X47742812Y-85217190D01*
X47857906Y-85303350D01*
X47857913Y-85303354D01*
X47989470Y-85352422D01*
X48045404Y-85394293D01*
X48069821Y-85459758D01*
X48054969Y-85528031D01*
X48033819Y-85556285D01*
X47919889Y-85670215D01*
X47794948Y-85842184D01*
X47794947Y-85842185D01*
X47774765Y-85881795D01*
X47726791Y-85932591D01*
X47664281Y-85949500D01*
X44874500Y-85949500D01*
X44807461Y-85929815D01*
X44761706Y-85877011D01*
X44750500Y-85825500D01*
X44750500Y-60905135D01*
X52826445Y-60905135D01*
X52827522Y-60910156D01*
X52828197Y-60915620D01*
X52827785Y-60918125D01*
X52829131Y-60930807D01*
X52829131Y-131011107D01*
X52828445Y-131024129D01*
X52827603Y-131032095D01*
X52828801Y-131078694D01*
X52829131Y-131091548D01*
X52829131Y-131151009D01*
X52830820Y-131157313D01*
X52831196Y-131171952D01*
X52849203Y-131873049D01*
X52847164Y-131898634D01*
X52847147Y-131898945D01*
X52850982Y-131948678D01*
X52851227Y-131951850D01*
X52852590Y-132004879D01*
X52856278Y-132017356D01*
X52857286Y-132030415D01*
X52857286Y-132030416D01*
X52911519Y-132733712D01*
X52910801Y-132759054D01*
X52910799Y-132759639D01*
X52917582Y-132812318D01*
X52921664Y-132865253D01*
X52925971Y-132877478D01*
X52927646Y-132890484D01*
X53017298Y-133586759D01*
X53017866Y-133611839D01*
X53017905Y-133612648D01*
X53026800Y-133661817D01*
X53027764Y-133668051D01*
X53034151Y-133717646D01*
X53034363Y-133718447D01*
X53041401Y-133742524D01*
X53165888Y-134430627D01*
X53168226Y-134443548D01*
X53167814Y-134456426D01*
X53179918Y-134508183D01*
X53180482Y-134511296D01*
X53180484Y-134511303D01*
X53189394Y-134560548D01*
X53189698Y-134561498D01*
X53197881Y-134584986D01*
X53356642Y-135263797D01*
X53356641Y-135263797D01*
X53359634Y-135276593D01*
X53359874Y-135289443D01*
X53374602Y-135340587D01*
X53375322Y-135343664D01*
X53375322Y-135343665D01*
X53386717Y-135392388D01*
X53387136Y-135393497D01*
X53396420Y-135416347D01*
X53588909Y-136084735D01*
X53588909Y-136084736D01*
X53592547Y-136097370D01*
X53593434Y-136110164D01*
X53610716Y-136160465D01*
X53611586Y-136163484D01*
X53611592Y-136163500D01*
X53625467Y-136211675D01*
X53625986Y-136212865D01*
X53636359Y-136235094D01*
X53862037Y-136891906D01*
X53862036Y-136891906D01*
X53866309Y-136904343D01*
X53867840Y-136917063D01*
X53887659Y-136966475D01*
X53888683Y-136969455D01*
X53904966Y-137016844D01*
X53905577Y-137018072D01*
X53917021Y-137039678D01*
X54180273Y-137695981D01*
X54182443Y-137708611D01*
X54204741Y-137756981D01*
X54205910Y-137759895D01*
X54205910Y-137759896D01*
X54224565Y-137806404D01*
X54225279Y-137807674D01*
X54237754Y-137828596D01*
X54528282Y-138458839D01*
X54533786Y-138470780D01*
X54536592Y-138483283D01*
X54561286Y-138530434D01*
X54562600Y-138533285D01*
X54583591Y-138578817D01*
X54584309Y-138579955D01*
X54597886Y-138600318D01*
X54920099Y-139215541D01*
X54926198Y-139227187D01*
X54929636Y-139239548D01*
X54956684Y-139285395D01*
X54958136Y-139288167D01*
X54958136Y-139288168D01*
X54981383Y-139332556D01*
X54982121Y-139333604D01*
X54996758Y-139353320D01*
X55350181Y-139952365D01*
X55350182Y-139952367D01*
X55356859Y-139963686D01*
X55360926Y-139975880D01*
X55390236Y-140020261D01*
X55391829Y-140022961D01*
X55391844Y-140022984D01*
X55404661Y-140044709D01*
X55417290Y-140066115D01*
X55418013Y-140067038D01*
X55433708Y-140086084D01*
X55817880Y-140667784D01*
X55817881Y-140667786D01*
X55825118Y-140678744D01*
X55829810Y-140690747D01*
X55861316Y-140733557D01*
X55863058Y-140736195D01*
X55863071Y-140736213D01*
X55890638Y-140777954D01*
X55891304Y-140778720D01*
X55908065Y-140797078D01*
X56330324Y-141370828D01*
X56335638Y-141382612D01*
X56369269Y-141423745D01*
X56371140Y-141426287D01*
X56371140Y-141426289D01*
X56400773Y-141466553D01*
X56401334Y-141467136D01*
X56419177Y-141484787D01*
X56871823Y-142038405D01*
X56877751Y-142049940D01*
X56913409Y-142089267D01*
X56915417Y-142091722D01*
X56915417Y-142091723D01*
X56947025Y-142130383D01*
X56947447Y-142130780D01*
X56966363Y-142147672D01*
X57440155Y-142670224D01*
X57440156Y-142670226D01*
X57448955Y-142679931D01*
X57455490Y-142691187D01*
X57493075Y-142728593D01*
X57495192Y-142730928D01*
X57495217Y-142730953D01*
X57528729Y-142767914D01*
X57528732Y-142767915D01*
X57528733Y-142767917D01*
X57529000Y-142768143D01*
X57548956Y-142784207D01*
X58056413Y-143289239D01*
X58059827Y-143294787D01*
X58103052Y-143335655D01*
X58145207Y-143377609D01*
X58145209Y-143377610D01*
X58151526Y-143382433D01*
X58161474Y-143390892D01*
X77711884Y-161875425D01*
X77711883Y-161875425D01*
X77722093Y-161885078D01*
X77725388Y-161890158D01*
X77769881Y-161930260D01*
X77770935Y-161931257D01*
X77770978Y-161931297D01*
X77813446Y-161971450D01*
X77818893Y-161975392D01*
X77829213Y-161983737D01*
X78315437Y-162421980D01*
X78322505Y-162431814D01*
X78364263Y-162465987D01*
X78366456Y-162467964D01*
X78366457Y-162467965D01*
X78404331Y-162502102D01*
X78408819Y-162505190D01*
X78425432Y-162516046D01*
X78924441Y-162924419D01*
X78924442Y-162924420D01*
X78934764Y-162932867D01*
X78942266Y-162942323D01*
X78985619Y-162974486D01*
X78987900Y-162976353D01*
X78987905Y-162976357D01*
X79027409Y-163008685D01*
X79032232Y-163011675D01*
X79049114Y-163021593D01*
X79575504Y-163412116D01*
X79583423Y-163421179D01*
X79628286Y-163451274D01*
X79671676Y-163483465D01*
X79671684Y-163483468D01*
X79676858Y-163486345D01*
X79693952Y-163495324D01*
X80236407Y-163859220D01*
X80244724Y-163867876D01*
X80290985Y-163895832D01*
X80335878Y-163925948D01*
X80335881Y-163925949D01*
X80341369Y-163928668D01*
X80358667Y-163936734D01*
X80645890Y-164110308D01*
X80916224Y-164273677D01*
X80924922Y-164281914D01*
X80972469Y-164307667D01*
X81018759Y-164335641D01*
X81018760Y-164335641D01*
X81018765Y-164335644D01*
X81024474Y-164338143D01*
X81042014Y-164345335D01*
X81601960Y-164648621D01*
X81601961Y-164648621D01*
X81613712Y-164654986D01*
X81622773Y-164662791D01*
X81671496Y-164686283D01*
X81674066Y-164687675D01*
X81719071Y-164712053D01*
X81725000Y-164714321D01*
X81742739Y-164720634D01*
X82315583Y-164996842D01*
X82315584Y-164996843D01*
X82327623Y-165002648D01*
X82337032Y-165010011D01*
X82386815Y-165031189D01*
X82389434Y-165032452D01*
X82389437Y-165032454D01*
X82435562Y-165054693D01*
X82441681Y-165056709D01*
X82459602Y-165062152D01*
X83056715Y-165316166D01*
X83066457Y-165323076D01*
X83117181Y-165341888D01*
X83166989Y-165363077D01*
X83166992Y-165363078D01*
X83173245Y-165364817D01*
X83191348Y-165369396D01*
X83787213Y-165590392D01*
X83787214Y-165590392D01*
X83799748Y-165595040D01*
X83809805Y-165601485D01*
X83861361Y-165617891D01*
X83912102Y-165636710D01*
X83912107Y-165636710D01*
X83918439Y-165638155D01*
X83936741Y-165641877D01*
X84555470Y-165838770D01*
X84565833Y-165844742D01*
X84618102Y-165858701D01*
X84669654Y-165875106D01*
X84669658Y-165875106D01*
X84675962Y-165876235D01*
X84694502Y-165879104D01*
X85309741Y-166043413D01*
X85309740Y-166043413D01*
X85322648Y-166046860D01*
X85333300Y-166052346D01*
X85386164Y-166063823D01*
X85438402Y-166077774D01*
X85438410Y-166077773D01*
X85444641Y-166078590D01*
X85463429Y-166080597D01*
X86100040Y-166218810D01*
X86110960Y-166223796D01*
X86164277Y-166232756D01*
X86217096Y-166244224D01*
X86217099Y-166244223D01*
X86217100Y-166244224D01*
X86223217Y-166244732D01*
X86242241Y-166245859D01*
X86886392Y-166354118D01*
X86897565Y-166358592D01*
X86951218Y-166365012D01*
X87004491Y-166373966D01*
X87004495Y-166373965D01*
X87004498Y-166373966D01*
X87010422Y-166374177D01*
X87029711Y-166374405D01*
X87680463Y-166452282D01*
X87691865Y-166456231D01*
X87745711Y-166460091D01*
X87799331Y-166466508D01*
X87805055Y-166466440D01*
X87824573Y-166465744D01*
X88480990Y-166512803D01*
X88492607Y-166516215D01*
X88546555Y-166517503D01*
X88600364Y-166521361D01*
X88600370Y-166521359D01*
X88605876Y-166521033D01*
X88625570Y-166519390D01*
X89280656Y-166535036D01*
X89286518Y-166536607D01*
X89346417Y-166536607D01*
X89406333Y-166538038D01*
X89406340Y-166538036D01*
X89413055Y-166537316D01*
X89426299Y-166536607D01*
X139288384Y-166536607D01*
X140440350Y-166536607D01*
X140446598Y-166538113D01*
X140506152Y-166536607D01*
X140565709Y-166536607D01*
X140565710Y-166536606D01*
X140573364Y-166535598D01*
X140586412Y-166534576D01*
X141276287Y-166517131D01*
X141288912Y-166519506D01*
X141341979Y-166515470D01*
X141395186Y-166514125D01*
X141395190Y-166514123D01*
X141396434Y-166513928D01*
X141420612Y-166509490D01*
X142107817Y-166457232D01*
X142120518Y-166458963D01*
X142173344Y-166452249D01*
X142226443Y-166448212D01*
X142226450Y-166448209D01*
X142227809Y-166447924D01*
X142251578Y-166442307D01*
X142927594Y-166356400D01*
X142940324Y-166357486D01*
X142992799Y-166348114D01*
X143045659Y-166341397D01*
X143045664Y-166341395D01*
X143047231Y-166340983D01*
X143070430Y-166334249D01*
X143734537Y-166215646D01*
X143747246Y-166216091D01*
X143799221Y-166204094D01*
X143851747Y-166194714D01*
X143851750Y-166194712D01*
X143851752Y-166194712D01*
X143853576Y-166194133D01*
X143876102Y-166186349D01*
X144527556Y-166035988D01*
X144540208Y-166035800D01*
X144591581Y-166021210D01*
X144643633Y-166009197D01*
X144643639Y-166009193D01*
X144645801Y-166008386D01*
X144667489Y-165999653D01*
X145305582Y-165818449D01*
X145318143Y-165817638D01*
X145368807Y-165800494D01*
X145420249Y-165785886D01*
X145420253Y-165785883D01*
X145422700Y-165784827D01*
X145443562Y-165775198D01*
X146067556Y-165564054D01*
X146079990Y-165562634D01*
X146129812Y-165542988D01*
X146180534Y-165525826D01*
X146180539Y-165525822D01*
X146183306Y-165524462D01*
X146203248Y-165514032D01*
X146812417Y-165273836D01*
X146824695Y-165271820D01*
X146873556Y-165249729D01*
X146876374Y-165248618D01*
X146923439Y-165230061D01*
X146926497Y-165228364D01*
X146945500Y-165217202D01*
X147539118Y-164948826D01*
X147551217Y-164946228D01*
X147599013Y-164921747D01*
X147647928Y-164899633D01*
X147647934Y-164899627D01*
X147651252Y-164897569D01*
X147669294Y-164885750D01*
X148246621Y-164590053D01*
X148258515Y-164586889D01*
X148305114Y-164560093D01*
X148352961Y-164535588D01*
X148352965Y-164535583D01*
X148356468Y-164533166D01*
X148373593Y-164520717D01*
X148933885Y-164198549D01*
X148945557Y-164194833D01*
X148990859Y-164165789D01*
X149037511Y-164138965D01*
X149037516Y-164138959D01*
X149041194Y-164136148D01*
X149057374Y-164123145D01*
X149599882Y-163775346D01*
X149611317Y-163771090D01*
X149655209Y-163739875D01*
X149657702Y-163738278D01*
X149657723Y-163738264D01*
X149662114Y-163735449D01*
X149700556Y-163710805D01*
X149700564Y-163710795D01*
X149704336Y-163707613D01*
X149719607Y-163694081D01*
X150243589Y-163321465D01*
X150254768Y-163316683D01*
X150297145Y-163283380D01*
X150341078Y-163252139D01*
X150341084Y-163252130D01*
X150344868Y-163248613D01*
X150359290Y-163234542D01*
X150863976Y-162837934D01*
X150874887Y-162832636D01*
X150915650Y-162797325D01*
X150958056Y-162764001D01*
X150958059Y-162763996D01*
X150961803Y-162760165D01*
X150975392Y-162745575D01*
X151460024Y-162325774D01*
X151470655Y-162319970D01*
X151509703Y-162282740D01*
X151550480Y-162247419D01*
X151550483Y-162247414D01*
X151554106Y-162243334D01*
X151566908Y-162228200D01*
X152030716Y-161786001D01*
X152041050Y-161779702D01*
X152078271Y-161740661D01*
X152117333Y-161703420D01*
X152117337Y-161703411D01*
X152120784Y-161699137D01*
X152132828Y-161683438D01*
X152575020Y-161219640D01*
X152585049Y-161212850D01*
X152620371Y-161172072D01*
X152657600Y-161133025D01*
X152657600Y-161133023D01*
X152660799Y-161128643D01*
X152672123Y-161112327D01*
X153091923Y-160627698D01*
X153101632Y-160620426D01*
X153134955Y-160578021D01*
X153170267Y-160537257D01*
X153170269Y-160537253D01*
X153173206Y-160532798D01*
X153183794Y-160515872D01*
X153580399Y-160011192D01*
X153589769Y-160003446D01*
X153621003Y-159959523D01*
X153654313Y-159917137D01*
X153654314Y-159917133D01*
X153656937Y-159912710D01*
X153666806Y-159895112D01*
X154039417Y-159371141D01*
X154048435Y-159362926D01*
X154077503Y-159317583D01*
X154108720Y-159273687D01*
X154108721Y-159273683D01*
X154111007Y-159269369D01*
X154120152Y-159251058D01*
X154467949Y-158708558D01*
X154476596Y-158699881D01*
X154503420Y-158653229D01*
X154532464Y-158607927D01*
X154532466Y-158607919D01*
X154534445Y-158603708D01*
X154542803Y-158584736D01*
X154864963Y-158024460D01*
X154873218Y-158015331D01*
X154897723Y-157967485D01*
X154924519Y-157920885D01*
X154924520Y-157920879D01*
X154926144Y-157916940D01*
X154933734Y-157897175D01*
X155229423Y-157319867D01*
X155237263Y-157310298D01*
X155259377Y-157261383D01*
X155283858Y-157213587D01*
X155283859Y-157213579D01*
X155285167Y-157209913D01*
X155291919Y-157189404D01*
X155560285Y-156595810D01*
X155567690Y-156585811D01*
X155587359Y-156535926D01*
X155609450Y-156487065D01*
X155609450Y-156487061D01*
X155610461Y-156483719D01*
X155616323Y-156462468D01*
X155856514Y-155853314D01*
X155863456Y-155842904D01*
X155880618Y-155792182D01*
X155900264Y-155742360D01*
X155900264Y-155742352D01*
X155901013Y-155739358D01*
X155905922Y-155717397D01*
X156117062Y-155093419D01*
X156123516Y-155082617D01*
X156138122Y-155031181D01*
X156155268Y-154980512D01*
X156155268Y-154980506D01*
X156155788Y-154977884D01*
X156159685Y-154955249D01*
X156340885Y-154317178D01*
X156346827Y-154306003D01*
X156358841Y-154253951D01*
X156373430Y-154202578D01*
X156373430Y-154202576D01*
X156373431Y-154202573D01*
X156373760Y-154200333D01*
X156376584Y-154177074D01*
X156526943Y-153525633D01*
X156532344Y-153514117D01*
X156541724Y-153461591D01*
X156553721Y-153409616D01*
X156553721Y-153409610D01*
X156553907Y-153407686D01*
X156555591Y-153383941D01*
X156674193Y-152719849D01*
X156679027Y-152708029D01*
X156685744Y-152655169D01*
X156695116Y-152602694D01*
X156695116Y-152602691D01*
X156695190Y-152601074D01*
X156695689Y-152576908D01*
X156779937Y-151913950D01*
X156781595Y-151900905D01*
X156785842Y-151888812D01*
X156789879Y-151835716D01*
X156796593Y-151782888D01*
X156796591Y-151782880D01*
X156796586Y-151781485D01*
X156795859Y-151757072D01*
X156847120Y-151082984D01*
X156848117Y-151069876D01*
X156851755Y-151057556D01*
X156853100Y-151004348D01*
X156857136Y-150951281D01*
X156857134Y-150951275D01*
X156857068Y-150950057D01*
X156855093Y-150925514D01*
X156872573Y-150234285D01*
X156874237Y-150228079D01*
X156874237Y-150168522D01*
X156875743Y-150108969D01*
X156875742Y-150108968D01*
X156875743Y-150108966D01*
X156874928Y-150101271D01*
X156874237Y-150088203D01*
X156874237Y-61681348D01*
X156876923Y-61668829D01*
X156874237Y-61615636D01*
X156874237Y-61562370D01*
X156874237Y-61562368D01*
X156874050Y-61560952D01*
X156870258Y-61536860D01*
X156816490Y-60472047D01*
X156819306Y-60446638D01*
X156813181Y-60406507D01*
X156811134Y-60365962D01*
X156806348Y-60351137D01*
X156801774Y-60331764D01*
X156641889Y-59284144D01*
X156642146Y-59258775D01*
X156631987Y-59219268D01*
X156625834Y-59178946D01*
X156619678Y-59164909D01*
X156613145Y-59145989D01*
X156571018Y-58982151D01*
X156353614Y-58136629D01*
X156351381Y-58111622D01*
X156337273Y-58073076D01*
X156327050Y-58033317D01*
X156319679Y-58020248D01*
X156311244Y-58001961D01*
X155957638Y-57035833D01*
X155953021Y-57011445D01*
X155935084Y-56974211D01*
X155920877Y-56935393D01*
X155912453Y-56923409D01*
X155902186Y-56905920D01*
X155464422Y-55997174D01*
X155464422Y-55997173D01*
X155459978Y-55987948D01*
X155453096Y-55964379D01*
X155431499Y-55928830D01*
X155413446Y-55891353D01*
X155413445Y-55891352D01*
X155413444Y-55891349D01*
X155404100Y-55880494D01*
X155392105Y-55863984D01*
X155149304Y-55464322D01*
X154866658Y-54999073D01*
X154857622Y-54976468D01*
X154832584Y-54942985D01*
X154810875Y-54907251D01*
X154800712Y-54897532D01*
X154787114Y-54882179D01*
X154618194Y-54656286D01*
X154183673Y-54075209D01*
X154172583Y-54053691D01*
X154144368Y-54022647D01*
X154140814Y-54017894D01*
X154140813Y-54017892D01*
X154119251Y-53989058D01*
X154119251Y-53989057D01*
X154119249Y-53989055D01*
X154119248Y-53989054D01*
X154108334Y-53980461D01*
X154093284Y-53966440D01*
X154026267Y-53892703D01*
X153475608Y-53286825D01*
X153423936Y-53229971D01*
X153416980Y-53222317D01*
X153403918Y-53201997D01*
X153372840Y-53173751D01*
X153344595Y-53142674D01*
X153332963Y-53135197D01*
X153316624Y-53122659D01*
X152572514Y-52446367D01*
X152557539Y-52427345D01*
X152523940Y-52402220D01*
X152492901Y-52374010D01*
X152492899Y-52374009D01*
X152492898Y-52374008D01*
X152480564Y-52367651D01*
X152463114Y-52356735D01*
X151857215Y-51903652D01*
X151656167Y-51753311D01*
X151639341Y-51735717D01*
X151603610Y-51714010D01*
X151598831Y-51710436D01*
X151598830Y-51710435D01*
X151570125Y-51688970D01*
X151570121Y-51688968D01*
X151557070Y-51683751D01*
X151538718Y-51674587D01*
X151424656Y-51605293D01*
X151209578Y-51474630D01*
X150682603Y-51154485D01*
X150673852Y-51149169D01*
X150655238Y-51133147D01*
X150617760Y-51115093D01*
X150582212Y-51093497D01*
X150568464Y-51089482D01*
X150549417Y-51082170D01*
X149640675Y-50644407D01*
X149640675Y-50644406D01*
X149631503Y-50639987D01*
X149611198Y-50625716D01*
X149572384Y-50611510D01*
X149566904Y-50608870D01*
X149535148Y-50593572D01*
X149520754Y-50590847D01*
X149501206Y-50585458D01*
X148544632Y-50235348D01*
X148544632Y-50235347D01*
X148535141Y-50231873D01*
X148513276Y-50219543D01*
X148473521Y-50209320D01*
X148467743Y-50207206D01*
X148434971Y-50195211D01*
X148434967Y-50195210D01*
X148420024Y-50193876D01*
X148400178Y-50190462D01*
X147400605Y-49933447D01*
X147390881Y-49930946D01*
X147367646Y-49920758D01*
X147327318Y-49914603D01*
X147321292Y-49913053D01*
X147321291Y-49913053D01*
X147302349Y-49908183D01*
X147287819Y-49904447D01*
X147287818Y-49904447D01*
X147287816Y-49904446D01*
X147272486Y-49904601D01*
X147252530Y-49903188D01*
X146214832Y-49744817D01*
X146214832Y-49744816D01*
X146204949Y-49743308D01*
X146180630Y-49735458D01*
X146140085Y-49733410D01*
X146133892Y-49732465D01*
X146099954Y-49727286D01*
X146099952Y-49727285D01*
X146084472Y-49729001D01*
X146064564Y-49729597D01*
X145009726Y-49676332D01*
X145009726Y-49676331D01*
X144996587Y-49675667D01*
X144984223Y-49672355D01*
X144930959Y-49672355D01*
X144927829Y-49672197D01*
X144927828Y-49672197D01*
X144925299Y-49672069D01*
X144877763Y-49669668D01*
X144876311Y-49669785D01*
X144852091Y-49672355D01*
X64074429Y-49672355D01*
X64061910Y-49669669D01*
X64008717Y-49672355D01*
X63955448Y-49672355D01*
X63954072Y-49672535D01*
X63929947Y-49676332D01*
X62953193Y-49725654D01*
X62953192Y-49725654D01*
X62943211Y-49726157D01*
X62917804Y-49723343D01*
X62877681Y-49729465D01*
X62871416Y-49729782D01*
X62871414Y-49729783D01*
X62837129Y-49731515D01*
X62837121Y-49731516D01*
X62822303Y-49736299D01*
X62802926Y-49740874D01*
X61841055Y-49887673D01*
X61841054Y-49887672D01*
X61831121Y-49889187D01*
X61805768Y-49888932D01*
X61766286Y-49899083D01*
X61760131Y-49900023D01*
X61760126Y-49900025D01*
X61725940Y-49905243D01*
X61725939Y-49905243D01*
X61711895Y-49911401D01*
X61692985Y-49917930D01*
X60766596Y-50156129D01*
X60766595Y-50156128D01*
X60756807Y-50158644D01*
X60731807Y-50160878D01*
X60693266Y-50174983D01*
X60687310Y-50176515D01*
X60687296Y-50176520D01*
X60653501Y-50185210D01*
X60653492Y-50185214D01*
X60640431Y-50192579D01*
X60622147Y-50201013D01*
X59735734Y-50525444D01*
X59735733Y-50525444D01*
X59726178Y-50528940D01*
X59701796Y-50533558D01*
X59664576Y-50551486D01*
X59658859Y-50553579D01*
X59658856Y-50553581D01*
X59625744Y-50565701D01*
X59625742Y-50565702D01*
X59613749Y-50574131D01*
X59596268Y-50584391D01*
X58754283Y-50989997D01*
X58745055Y-50994442D01*
X58721488Y-51001325D01*
X58685952Y-51022912D01*
X58680516Y-51025531D01*
X58680518Y-51025531D01*
X58648462Y-51040974D01*
X58648461Y-51040975D01*
X58637596Y-51050326D01*
X58621091Y-51062316D01*
X57827942Y-51544165D01*
X57819142Y-51549510D01*
X57796543Y-51558546D01*
X57763069Y-51583575D01*
X57757960Y-51586680D01*
X57757958Y-51586680D01*
X57727327Y-51605292D01*
X57727326Y-51605292D01*
X57717608Y-51615454D01*
X57702254Y-51629053D01*
X56962344Y-52182347D01*
X56954074Y-52188532D01*
X56932557Y-52199623D01*
X56901513Y-52227836D01*
X56896759Y-52231391D01*
X56896756Y-52231391D01*
X56867922Y-52252955D01*
X56859335Y-52263863D01*
X56845305Y-52278922D01*
X56163067Y-52898982D01*
X56155414Y-52905936D01*
X56135097Y-52918998D01*
X56106860Y-52950065D01*
X56102472Y-52954054D01*
X56075773Y-52978320D01*
X56068298Y-52989949D01*
X56055756Y-53006293D01*
X55435697Y-53688529D01*
X55435696Y-53688530D01*
X55428749Y-53696172D01*
X55409733Y-53711144D01*
X55384616Y-53744729D01*
X55380627Y-53749119D01*
X55356401Y-53775776D01*
X55356398Y-53775781D01*
X55350036Y-53788124D01*
X55339122Y-53805569D01*
X54785826Y-54545478D01*
X54785827Y-54545479D01*
X54779662Y-54553724D01*
X54762068Y-54570551D01*
X54740362Y-54606278D01*
X54736789Y-54611058D01*
X54715321Y-54639767D01*
X54710102Y-54652821D01*
X54700940Y-54671168D01*
X54219088Y-55464322D01*
X54213770Y-55473075D01*
X54197752Y-55491686D01*
X54179705Y-55529146D01*
X54176577Y-55534297D01*
X54176576Y-55534300D01*
X54158101Y-55564711D01*
X54158100Y-55564713D01*
X54154086Y-55578460D01*
X54146772Y-55597512D01*
X53741167Y-56439492D01*
X53736750Y-56448660D01*
X53722477Y-56468969D01*
X53708275Y-56507768D01*
X53705637Y-56513246D01*
X53705630Y-56513264D01*
X53690333Y-56545019D01*
X53687607Y-56559414D01*
X53682219Y-56578957D01*
X53357790Y-57465367D01*
X53354316Y-57474858D01*
X53341985Y-57496726D01*
X53331763Y-57536476D01*
X53329648Y-57542257D01*
X53317652Y-57575032D01*
X53316318Y-57589976D01*
X53312904Y-57609821D01*
X53074705Y-58536210D01*
X53072206Y-58545931D01*
X53062018Y-58569167D01*
X53055863Y-58609488D01*
X53054315Y-58615511D01*
X53045707Y-58648989D01*
X53045706Y-58648994D01*
X53045861Y-58664326D01*
X53044448Y-58684282D01*
X52897650Y-59646151D01*
X52896142Y-59656030D01*
X52888291Y-59680354D01*
X52886243Y-59720895D01*
X52885298Y-59727089D01*
X52880119Y-59761028D01*
X52880118Y-59761031D01*
X52881834Y-59776511D01*
X52882430Y-59796419D01*
X52846523Y-60507517D01*
X52832445Y-60786306D01*
X52829131Y-60798676D01*
X52829131Y-60851938D01*
X52828973Y-60855068D01*
X52828973Y-60855071D01*
X52826577Y-60902500D01*
X52826577Y-60902506D01*
X52826445Y-60905135D01*
X44750500Y-60905135D01*
X44750500Y-55001819D01*
X44750552Y-54998213D01*
X44760324Y-54662373D01*
X44769089Y-54361112D01*
X44769509Y-54353924D01*
X44790486Y-54114156D01*
X44824900Y-53720803D01*
X44825730Y-53713698D01*
X44917848Y-53084816D01*
X44919094Y-53077749D01*
X45047613Y-52455331D01*
X45049266Y-52448354D01*
X45213771Y-51834415D01*
X45215820Y-51827571D01*
X45415737Y-51224253D01*
X45418196Y-51217499D01*
X45421626Y-51208866D01*
X45652848Y-50626846D01*
X45655686Y-50620266D01*
X45924296Y-50044229D01*
X45927496Y-50037857D01*
X46229159Y-49478389D01*
X46232737Y-49472192D01*
X46566376Y-48931282D01*
X46569314Y-48928098D01*
X46570338Y-48925258D01*
X46736131Y-48688481D01*
X46790708Y-48644856D01*
X46860206Y-48637663D01*
X46922561Y-48669185D01*
X46957975Y-48729415D01*
X46961706Y-48759604D01*
X46961706Y-48874737D01*
X46961705Y-48874755D01*
X46961705Y-49040461D01*
X46961704Y-49040461D01*
X46991166Y-49150411D01*
X47002629Y-49193192D01*
X47021286Y-49225506D01*
X47061552Y-49295250D01*
X47081685Y-49330122D01*
X47200555Y-49448992D01*
X47200561Y-49448997D01*
X50129639Y-52378075D01*
X50163124Y-52439398D01*
X50159890Y-52504072D01*
X50146151Y-52546356D01*
X50128786Y-52655999D01*
X50112898Y-52756312D01*
X50112898Y-52968886D01*
X50118823Y-53006293D01*
X50145345Y-53173751D01*
X50146152Y-53178842D01*
X50181252Y-53286869D01*
X50211842Y-53381013D01*
X50308349Y-53570419D01*
X50433288Y-53742385D01*
X50583611Y-53892708D01*
X50755577Y-54017647D01*
X50755579Y-54017648D01*
X50755582Y-54017650D01*
X50944986Y-54114156D01*
X51147155Y-54179845D01*
X51357111Y-54213099D01*
X51357112Y-54213099D01*
X51569684Y-54213099D01*
X51569685Y-54213099D01*
X51779641Y-54179845D01*
X51981810Y-54114156D01*
X52171214Y-54017650D01*
X52222388Y-53980470D01*
X52343184Y-53892708D01*
X52343186Y-53892705D01*
X52343190Y-53892703D01*
X52493502Y-53742391D01*
X52493504Y-53742387D01*
X52493507Y-53742385D01*
X52618446Y-53570419D01*
X52618445Y-53570419D01*
X52618449Y-53570415D01*
X52714955Y-53381011D01*
X52780644Y-53178842D01*
X52813898Y-52968886D01*
X52813898Y-52807774D01*
X52833583Y-52740735D01*
X52886387Y-52694980D01*
X52955545Y-52685036D01*
X52989410Y-52694980D01*
X53117131Y-52753309D01*
X53117135Y-52753310D01*
X53259449Y-52773770D01*
X53401762Y-52753310D01*
X53401767Y-52753309D01*
X53532546Y-52693583D01*
X53579181Y-52656003D01*
X53579185Y-52655999D01*
X54037266Y-52197919D01*
X53388857Y-51549510D01*
X53452442Y-51532473D01*
X53566456Y-51466647D01*
X53659548Y-51373555D01*
X53725374Y-51259541D01*
X53742411Y-51195956D01*
X54390820Y-51844365D01*
X54848900Y-51386284D01*
X54848904Y-51386280D01*
X54886484Y-51339645D01*
X54946210Y-51208866D01*
X54946211Y-51208861D01*
X54966671Y-51066548D01*
X54946211Y-50924234D01*
X54946210Y-50924230D01*
X54887881Y-50796509D01*
X54877937Y-50727351D01*
X54906962Y-50663795D01*
X54965740Y-50626020D01*
X55000675Y-50620997D01*
X55161786Y-50620997D01*
X55161787Y-50620997D01*
X55371743Y-50587743D01*
X55573912Y-50522054D01*
X55763316Y-50425548D01*
X55785289Y-50409583D01*
X55935286Y-50300606D01*
X55935288Y-50300603D01*
X55935292Y-50300601D01*
X56085604Y-50150289D01*
X56085606Y-50150285D01*
X56085609Y-50150283D01*
X56210548Y-49978317D01*
X56210547Y-49978317D01*
X56210551Y-49978313D01*
X56307057Y-49788909D01*
X56372746Y-49586740D01*
X56406000Y-49376784D01*
X56406000Y-49164210D01*
X56372746Y-48954254D01*
X56307057Y-48752085D01*
X56210551Y-48562681D01*
X56210549Y-48562678D01*
X56210548Y-48562676D01*
X56085609Y-48390710D01*
X55935286Y-48240387D01*
X55763320Y-48115448D01*
X55573914Y-48018941D01*
X55573913Y-48018940D01*
X55573912Y-48018940D01*
X55371743Y-47953251D01*
X55371741Y-47953250D01*
X55371740Y-47953250D01*
X55210457Y-47927705D01*
X55161787Y-47919997D01*
X54949213Y-47919997D01*
X54900542Y-47927705D01*
X54739260Y-47953250D01*
X54537085Y-48018941D01*
X54347679Y-48115448D01*
X54175713Y-48240387D01*
X54025390Y-48390710D01*
X53900451Y-48562676D01*
X53803944Y-48752082D01*
X53803943Y-48752084D01*
X53803943Y-48752085D01*
X53778156Y-48831448D01*
X53738253Y-48954257D01*
X53705000Y-49164210D01*
X53705000Y-49325321D01*
X53685315Y-49392360D01*
X53632511Y-49438115D01*
X53563353Y-49448059D01*
X53529489Y-49438115D01*
X53401770Y-49379787D01*
X53401762Y-49379785D01*
X53259449Y-49359325D01*
X53117135Y-49379785D01*
X53117130Y-49379786D01*
X52986351Y-49439512D01*
X52939716Y-49477092D01*
X52939712Y-49477096D01*
X52481632Y-49935177D01*
X53130040Y-50583585D01*
X53066456Y-50600623D01*
X52952442Y-50666449D01*
X52859350Y-50759541D01*
X52793524Y-50873555D01*
X52776486Y-50937139D01*
X52128078Y-50288731D01*
X51669997Y-50746811D01*
X51669993Y-50746815D01*
X51632413Y-50793450D01*
X51572687Y-50924229D01*
X51572686Y-50924234D01*
X51552226Y-51066548D01*
X51572686Y-51208861D01*
X51572687Y-51208865D01*
X51631017Y-51336587D01*
X51640961Y-51405745D01*
X51611936Y-51469301D01*
X51553158Y-51507076D01*
X51518223Y-51512099D01*
X51357111Y-51512099D01*
X51328404Y-51516645D01*
X51147155Y-51545352D01*
X51104871Y-51559091D01*
X51035030Y-51561085D01*
X50978874Y-51528840D01*
X49421531Y-49971496D01*
X48199025Y-48748990D01*
X48165540Y-48687667D01*
X48162706Y-48661309D01*
X48162706Y-47068914D01*
X48171349Y-47039476D01*
X48177872Y-47009491D01*
X48181628Y-47004473D01*
X48182391Y-47001875D01*
X48199022Y-46981236D01*
X48214830Y-46965427D01*
X48220043Y-46960508D01*
X48694823Y-46537989D01*
X48700347Y-46533356D01*
X49198863Y-46139180D01*
X49204649Y-46134872D01*
X49228154Y-46118414D01*
X49516884Y-45916243D01*
X49725258Y-45770338D01*
X49731274Y-45766381D01*
X50272192Y-45432737D01*
X50278389Y-45429159D01*
X50837857Y-45127496D01*
X50844229Y-45124296D01*
X51420266Y-44855686D01*
X51426846Y-44852848D01*
X52017513Y-44618190D01*
X52024253Y-44615737D01*
X52627571Y-44415820D01*
X52634415Y-44413771D01*
X53248354Y-44249266D01*
X53255331Y-44247613D01*
X53877749Y-44119094D01*
X53884816Y-44117848D01*
X54513698Y-44025730D01*
X54520803Y-44024900D01*
X55153937Y-43969508D01*
X55161112Y-43969089D01*
X55746103Y-43952068D01*
X55798214Y-43950552D01*
X55801820Y-43950500D01*
X55872914Y-43950500D01*
X79445500Y-43950500D01*
X79512539Y-43970185D01*
X79558294Y-44022989D01*
X79569500Y-44074500D01*
X79569500Y-44464281D01*
X79549815Y-44531320D01*
X79501795Y-44574765D01*
X79462185Y-44594947D01*
X79462184Y-44594948D01*
X79290213Y-44719890D01*
X79139890Y-44870213D01*
X79014951Y-45042179D01*
X78918444Y-45231585D01*
X78852753Y-45433760D01*
X78819500Y-45643713D01*
X78819500Y-45856286D01*
X78852703Y-46065925D01*
X78852754Y-46066243D01*
X78892167Y-46187544D01*
X78918444Y-46268414D01*
X79014951Y-46457820D01*
X79139890Y-46629786D01*
X79290213Y-46780109D01*
X79462179Y-46905048D01*
X79462181Y-46905049D01*
X79462184Y-46905051D01*
X79651588Y-47001557D01*
X79853757Y-47067246D01*
X80063713Y-47100500D01*
X80063714Y-47100500D01*
X80276286Y-47100500D01*
X80276287Y-47100500D01*
X80486243Y-47067246D01*
X80688412Y-47001557D01*
X80877816Y-46905051D01*
X80964478Y-46842088D01*
X81049784Y-46780110D01*
X81049784Y-46780109D01*
X81049792Y-46780104D01*
X81163717Y-46666178D01*
X81225036Y-46632696D01*
X81294728Y-46637680D01*
X81350662Y-46679551D01*
X81367577Y-46710528D01*
X81416646Y-46842088D01*
X81416649Y-46842093D01*
X81502809Y-46957187D01*
X81502812Y-46957190D01*
X81617906Y-47043350D01*
X81617913Y-47043354D01*
X81752620Y-47093596D01*
X81752627Y-47093598D01*
X81812155Y-47099999D01*
X81812172Y-47100000D01*
X82460000Y-47100000D01*
X82460000Y-46183012D01*
X82517007Y-46215925D01*
X82644174Y-46250000D01*
X82775826Y-46250000D01*
X82902993Y-46215925D01*
X82960000Y-46183012D01*
X82960000Y-47100000D01*
X83607828Y-47100000D01*
X83607844Y-47099999D01*
X83667372Y-47093598D01*
X83667379Y-47093596D01*
X83802086Y-47043354D01*
X83802093Y-47043350D01*
X83917187Y-46957190D01*
X83917190Y-46957187D01*
X84003350Y-46842093D01*
X84003354Y-46842086D01*
X84052422Y-46710529D01*
X84094293Y-46654595D01*
X84159757Y-46630178D01*
X84228030Y-46645030D01*
X84256285Y-46666181D01*
X84370213Y-46780109D01*
X84542179Y-46905048D01*
X84542181Y-46905049D01*
X84542184Y-46905051D01*
X84731588Y-47001557D01*
X84933757Y-47067246D01*
X85143713Y-47100500D01*
X85143714Y-47100500D01*
X85356286Y-47100500D01*
X85356287Y-47100500D01*
X85566243Y-47067246D01*
X85768412Y-47001557D01*
X85957816Y-46905051D01*
X86031445Y-46851557D01*
X86129786Y-46780109D01*
X86129788Y-46780106D01*
X86129792Y-46780104D01*
X86280104Y-46629792D01*
X86280106Y-46629788D01*
X86280109Y-46629786D01*
X86391991Y-46475792D01*
X86405051Y-46457816D01*
X86501557Y-46268412D01*
X86567246Y-46066243D01*
X86600500Y-45856287D01*
X86600500Y-45643713D01*
X86567246Y-45433757D01*
X86501557Y-45231588D01*
X86405051Y-45042184D01*
X86405049Y-45042181D01*
X86405048Y-45042179D01*
X86280109Y-44870213D01*
X86129786Y-44719890D01*
X85957820Y-44594951D01*
X85768414Y-44498444D01*
X85768413Y-44498443D01*
X85768412Y-44498443D01*
X85566243Y-44432754D01*
X85566241Y-44432753D01*
X85566240Y-44432753D01*
X85404957Y-44407208D01*
X85356287Y-44399500D01*
X85143713Y-44399500D01*
X85095042Y-44407208D01*
X84933760Y-44432753D01*
X84731585Y-44498444D01*
X84542179Y-44594951D01*
X84370215Y-44719889D01*
X84256285Y-44833819D01*
X84194962Y-44867303D01*
X84125270Y-44862319D01*
X84069337Y-44820447D01*
X84052422Y-44789470D01*
X84003354Y-44657913D01*
X84003350Y-44657906D01*
X83917190Y-44542812D01*
X83917187Y-44542809D01*
X83802093Y-44456649D01*
X83802086Y-44456645D01*
X83667379Y-44406403D01*
X83667372Y-44406401D01*
X83607844Y-44400000D01*
X82960000Y-44400000D01*
X82960000Y-45316988D01*
X82902993Y-45284075D01*
X82775826Y-45250000D01*
X82644174Y-45250000D01*
X82517007Y-45284075D01*
X82460000Y-45316988D01*
X82460000Y-44400000D01*
X81812155Y-44400000D01*
X81752627Y-44406401D01*
X81752620Y-44406403D01*
X81617913Y-44456645D01*
X81617906Y-44456649D01*
X81502812Y-44542809D01*
X81502809Y-44542812D01*
X81416649Y-44657906D01*
X81416646Y-44657912D01*
X81367577Y-44789471D01*
X81325705Y-44845404D01*
X81260241Y-44869821D01*
X81191968Y-44854969D01*
X81163714Y-44833818D01*
X81049786Y-44719890D01*
X80877815Y-44594948D01*
X80877814Y-44594947D01*
X80838205Y-44574765D01*
X80787409Y-44526791D01*
X80770500Y-44464281D01*
X80770500Y-44074500D01*
X80790185Y-44007461D01*
X80842989Y-43961706D01*
X80894500Y-43950500D01*
X108325500Y-43950500D01*
X108392539Y-43970185D01*
X108438294Y-44022989D01*
X108449500Y-44074500D01*
X108449500Y-44549242D01*
X108429815Y-44616281D01*
X108413181Y-44636923D01*
X108329894Y-44720209D01*
X108329890Y-44720213D01*
X108204951Y-44892179D01*
X108108444Y-45081585D01*
X108042753Y-45283760D01*
X108009500Y-45493713D01*
X108009500Y-45706286D01*
X108033257Y-45856286D01*
X108042754Y-45916243D01*
X108100687Y-46094543D01*
X108108444Y-46118414D01*
X108204951Y-46307820D01*
X108329890Y-46479786D01*
X108480213Y-46630109D01*
X108652179Y-46755048D01*
X108652181Y-46755049D01*
X108652184Y-46755051D01*
X108841588Y-46851557D01*
X109043757Y-46917246D01*
X109253713Y-46950500D01*
X109253714Y-46950500D01*
X109466286Y-46950500D01*
X109466287Y-46950500D01*
X109676243Y-46917246D01*
X109878412Y-46851557D01*
X110067816Y-46755051D01*
X110154478Y-46692088D01*
X110239784Y-46630110D01*
X110239784Y-46630109D01*
X110239792Y-46630104D01*
X110353717Y-46516178D01*
X110415036Y-46482696D01*
X110484728Y-46487680D01*
X110540662Y-46529551D01*
X110557577Y-46560528D01*
X110606646Y-46692088D01*
X110606649Y-46692093D01*
X110692809Y-46807187D01*
X110692812Y-46807190D01*
X110807906Y-46893350D01*
X110807913Y-46893354D01*
X110942620Y-46943596D01*
X110942627Y-46943598D01*
X111002155Y-46949999D01*
X111002172Y-46950000D01*
X111650000Y-46950000D01*
X111650000Y-46033012D01*
X111707007Y-46065925D01*
X111834174Y-46100000D01*
X111965826Y-46100000D01*
X112092993Y-46065925D01*
X112150000Y-46033012D01*
X112150000Y-46950000D01*
X112797828Y-46950000D01*
X112797844Y-46949999D01*
X112857372Y-46943598D01*
X112857379Y-46943596D01*
X112992086Y-46893354D01*
X112992093Y-46893350D01*
X113107187Y-46807190D01*
X113107190Y-46807187D01*
X113193350Y-46692093D01*
X113193354Y-46692086D01*
X113242422Y-46560529D01*
X113284293Y-46504595D01*
X113349757Y-46480178D01*
X113418030Y-46495030D01*
X113446285Y-46516181D01*
X113560213Y-46630109D01*
X113732179Y-46755048D01*
X113732181Y-46755049D01*
X113732184Y-46755051D01*
X113921588Y-46851557D01*
X114123757Y-46917246D01*
X114333713Y-46950500D01*
X114333714Y-46950500D01*
X114546286Y-46950500D01*
X114546287Y-46950500D01*
X114756243Y-46917246D01*
X114958412Y-46851557D01*
X115147816Y-46755051D01*
X115234478Y-46692088D01*
X115319786Y-46630109D01*
X115319788Y-46630106D01*
X115319792Y-46630104D01*
X115470104Y-46479792D01*
X115470106Y-46479788D01*
X115470109Y-46479786D01*
X115595048Y-46307820D01*
X115595047Y-46307820D01*
X115595051Y-46307816D01*
X115691557Y-46118412D01*
X115757246Y-45916243D01*
X115790500Y-45706287D01*
X115790500Y-45493713D01*
X115757246Y-45283757D01*
X115691557Y-45081588D01*
X115595051Y-44892184D01*
X115595049Y-44892181D01*
X115595048Y-44892179D01*
X115470109Y-44720213D01*
X115319786Y-44569890D01*
X115147820Y-44444951D01*
X114958414Y-44348444D01*
X114958413Y-44348443D01*
X114958412Y-44348443D01*
X114756243Y-44282754D01*
X114756241Y-44282753D01*
X114756240Y-44282753D01*
X114594957Y-44257208D01*
X114546287Y-44249500D01*
X114333713Y-44249500D01*
X114285042Y-44257208D01*
X114123760Y-44282753D01*
X113921585Y-44348444D01*
X113732179Y-44444951D01*
X113560215Y-44569889D01*
X113446285Y-44683819D01*
X113384962Y-44717303D01*
X113315270Y-44712319D01*
X113259337Y-44670447D01*
X113242422Y-44639470D01*
X113193354Y-44507913D01*
X113193350Y-44507906D01*
X113107190Y-44392812D01*
X113107187Y-44392809D01*
X112992093Y-44306649D01*
X112992086Y-44306645D01*
X112857379Y-44256403D01*
X112857372Y-44256401D01*
X112797844Y-44250000D01*
X112150000Y-44250000D01*
X112150000Y-45166988D01*
X112092993Y-45134075D01*
X111965826Y-45100000D01*
X111834174Y-45100000D01*
X111707007Y-45134075D01*
X111650000Y-45166988D01*
X111650000Y-44250000D01*
X111002155Y-44250000D01*
X110942627Y-44256401D01*
X110942620Y-44256403D01*
X110807913Y-44306645D01*
X110807906Y-44306649D01*
X110692812Y-44392809D01*
X110692809Y-44392812D01*
X110606649Y-44507906D01*
X110606646Y-44507912D01*
X110557577Y-44639471D01*
X110515705Y-44695404D01*
X110450241Y-44719821D01*
X110381968Y-44704969D01*
X110353714Y-44683818D01*
X110239786Y-44569890D01*
X110067820Y-44444951D01*
X109878416Y-44348444D01*
X109736181Y-44302229D01*
X109678506Y-44262791D01*
X109651308Y-44198432D01*
X109650500Y-44184298D01*
X109650500Y-44074500D01*
X109670185Y-44007461D01*
X109722989Y-43961706D01*
X109774500Y-43950500D01*
X137225500Y-43950500D01*
X137292539Y-43970185D01*
X137338294Y-44022989D01*
X137349500Y-44074500D01*
X137349500Y-44464281D01*
X137329815Y-44531320D01*
X137281795Y-44574765D01*
X137242185Y-44594947D01*
X137242184Y-44594948D01*
X137070213Y-44719890D01*
X136919890Y-44870213D01*
X136794951Y-45042179D01*
X136698444Y-45231585D01*
X136632753Y-45433760D01*
X136599500Y-45643713D01*
X136599500Y-45856286D01*
X136632703Y-46065925D01*
X136632754Y-46066243D01*
X136672167Y-46187544D01*
X136698444Y-46268414D01*
X136794951Y-46457820D01*
X136919890Y-46629786D01*
X137070213Y-46780109D01*
X137242179Y-46905048D01*
X137242181Y-46905049D01*
X137242184Y-46905051D01*
X137431588Y-47001557D01*
X137633757Y-47067246D01*
X137843713Y-47100500D01*
X137843714Y-47100500D01*
X138056286Y-47100500D01*
X138056287Y-47100500D01*
X138266243Y-47067246D01*
X138468412Y-47001557D01*
X138657816Y-46905051D01*
X138744478Y-46842088D01*
X138829784Y-46780110D01*
X138829784Y-46780109D01*
X138829792Y-46780104D01*
X138943717Y-46666178D01*
X139005036Y-46632696D01*
X139074728Y-46637680D01*
X139130662Y-46679551D01*
X139147577Y-46710528D01*
X139196646Y-46842088D01*
X139196649Y-46842093D01*
X139282809Y-46957187D01*
X139282812Y-46957190D01*
X139397906Y-47043350D01*
X139397913Y-47043354D01*
X139532620Y-47093596D01*
X139532627Y-47093598D01*
X139592155Y-47099999D01*
X139592172Y-47100000D01*
X140240000Y-47100000D01*
X140240000Y-46183012D01*
X140297007Y-46215925D01*
X140424174Y-46250000D01*
X140555826Y-46250000D01*
X140682993Y-46215925D01*
X140740000Y-46183012D01*
X140740000Y-47100000D01*
X141387828Y-47100000D01*
X141387844Y-47099999D01*
X141447372Y-47093598D01*
X141447379Y-47093596D01*
X141582086Y-47043354D01*
X141582093Y-47043350D01*
X141697187Y-46957190D01*
X141697190Y-46957187D01*
X141783350Y-46842093D01*
X141783354Y-46842086D01*
X141832422Y-46710529D01*
X141874293Y-46654595D01*
X141939757Y-46630178D01*
X142008030Y-46645030D01*
X142036285Y-46666181D01*
X142150213Y-46780109D01*
X142322179Y-46905048D01*
X142322181Y-46905049D01*
X142322184Y-46905051D01*
X142511588Y-47001557D01*
X142713757Y-47067246D01*
X142923713Y-47100500D01*
X142923714Y-47100500D01*
X143136286Y-47100500D01*
X143136287Y-47100500D01*
X143346243Y-47067246D01*
X143548412Y-47001557D01*
X143737816Y-46905051D01*
X143811445Y-46851557D01*
X143909786Y-46780109D01*
X143909788Y-46780106D01*
X143909792Y-46780104D01*
X144060104Y-46629792D01*
X144060106Y-46629788D01*
X144060109Y-46629786D01*
X144171991Y-46475792D01*
X144185051Y-46457816D01*
X144281557Y-46268412D01*
X144347246Y-46066243D01*
X144380500Y-45856287D01*
X144380500Y-45643713D01*
X144347246Y-45433757D01*
X144281557Y-45231588D01*
X144185051Y-45042184D01*
X144185049Y-45042181D01*
X144185048Y-45042179D01*
X144060109Y-44870213D01*
X143909786Y-44719890D01*
X143737820Y-44594951D01*
X143548414Y-44498444D01*
X143548413Y-44498443D01*
X143548412Y-44498443D01*
X143346243Y-44432754D01*
X143346241Y-44432753D01*
X143346240Y-44432753D01*
X143184957Y-44407208D01*
X143136287Y-44399500D01*
X142923713Y-44399500D01*
X142875042Y-44407208D01*
X142713760Y-44432753D01*
X142511585Y-44498444D01*
X142322179Y-44594951D01*
X142150215Y-44719889D01*
X142036285Y-44833819D01*
X141974962Y-44867303D01*
X141905270Y-44862319D01*
X141849337Y-44820447D01*
X141832422Y-44789470D01*
X141783354Y-44657913D01*
X141783350Y-44657906D01*
X141697190Y-44542812D01*
X141697187Y-44542809D01*
X141582093Y-44456649D01*
X141582086Y-44456645D01*
X141447379Y-44406403D01*
X141447372Y-44406401D01*
X141387844Y-44400000D01*
X140740000Y-44400000D01*
X140740000Y-45316988D01*
X140682993Y-45284075D01*
X140555826Y-45250000D01*
X140424174Y-45250000D01*
X140297007Y-45284075D01*
X140240000Y-45316988D01*
X140240000Y-44400000D01*
X139592155Y-44400000D01*
X139532627Y-44406401D01*
X139532620Y-44406403D01*
X139397913Y-44456645D01*
X139397906Y-44456649D01*
X139282812Y-44542809D01*
X139282809Y-44542812D01*
X139196649Y-44657906D01*
X139196646Y-44657912D01*
X139147577Y-44789471D01*
X139105705Y-44845404D01*
X139040241Y-44869821D01*
X138971968Y-44854969D01*
X138943714Y-44833818D01*
X138829786Y-44719890D01*
X138657815Y-44594948D01*
X138657814Y-44594947D01*
X138618205Y-44574765D01*
X138567409Y-44526791D01*
X138550500Y-44464281D01*
X138550500Y-44074500D01*
X138570185Y-44007461D01*
X138622989Y-43961706D01*
X138674500Y-43950500D01*
X143778749Y-43950500D01*
X143834317Y-43963648D01*
X144735156Y-44415216D01*
X144738658Y-44417042D01*
X145765356Y-44973307D01*
X145768799Y-44975244D01*
X146029655Y-45127519D01*
X146765392Y-45557007D01*
X146777259Y-45563934D01*
X146780635Y-45565977D01*
X147631950Y-46100000D01*
X147769824Y-46186487D01*
X147773136Y-46188639D01*
X148742088Y-46840364D01*
X148745303Y-46842601D01*
X149140126Y-47126839D01*
X149692977Y-47524843D01*
X149696146Y-47527201D01*
X149967977Y-47736357D01*
X150621668Y-48239330D01*
X150624702Y-48241743D01*
X151527039Y-48982968D01*
X151530037Y-48985512D01*
X152392067Y-49740874D01*
X152408284Y-49755084D01*
X152411201Y-49757723D01*
X153263097Y-50553581D01*
X153264500Y-50554892D01*
X153267342Y-50557633D01*
X153295286Y-50585458D01*
X154094801Y-51381566D01*
X154097555Y-51384397D01*
X154898349Y-52234269D01*
X154901012Y-52237187D01*
X155674346Y-53112158D01*
X155676882Y-53115122D01*
X156224324Y-53775781D01*
X156421934Y-54014260D01*
X156424406Y-54017341D01*
X157140456Y-54939780D01*
X157142828Y-54942939D01*
X157829101Y-55887676D01*
X157831372Y-55890909D01*
X158487221Y-56857054D01*
X158489387Y-56860357D01*
X159114123Y-57846897D01*
X159116183Y-57850268D01*
X159709161Y-58856182D01*
X159711113Y-58859616D01*
X159948906Y-59294068D01*
X160223862Y-59796419D01*
X160271781Y-59883967D01*
X160273622Y-59887463D01*
X160801341Y-60929088D01*
X160803070Y-60932639D01*
X161297365Y-61990596D01*
X161298980Y-61994202D01*
X161759310Y-63067337D01*
X161760809Y-63070991D01*
X162162604Y-64096672D01*
X162171147Y-64141901D01*
X162171147Y-79952048D01*
X162151462Y-80019087D01*
X162098658Y-80064842D01*
X162047147Y-80076048D01*
X161795168Y-80076048D01*
X161728129Y-80056363D01*
X161684684Y-80008343D01*
X161664501Y-79968733D01*
X161664500Y-79968732D01*
X161539558Y-79796761D01*
X161389235Y-79646438D01*
X161217269Y-79521499D01*
X161027863Y-79424992D01*
X161027862Y-79424991D01*
X161027861Y-79424991D01*
X160825692Y-79359302D01*
X160825690Y-79359301D01*
X160825689Y-79359301D01*
X160664406Y-79333756D01*
X160615736Y-79326048D01*
X160403162Y-79326048D01*
X160354491Y-79333756D01*
X160193209Y-79359301D01*
X159991034Y-79424992D01*
X159801628Y-79521499D01*
X159629662Y-79646438D01*
X159479339Y-79796761D01*
X159354400Y-79968727D01*
X159257893Y-80158133D01*
X159192202Y-80360308D01*
X159158949Y-80570261D01*
X159158949Y-80782834D01*
X159185676Y-80951585D01*
X159192203Y-80992791D01*
X159244505Y-81153760D01*
X159257893Y-81194962D01*
X159354400Y-81384368D01*
X159479339Y-81556334D01*
X159593267Y-81670262D01*
X159626752Y-81731585D01*
X159621768Y-81801277D01*
X159579896Y-81857210D01*
X159548920Y-81874125D01*
X159417361Y-81923194D01*
X159417355Y-81923197D01*
X159302261Y-82009357D01*
X159302258Y-82009360D01*
X159216098Y-82124454D01*
X159216094Y-82124461D01*
X159165852Y-82259168D01*
X159165850Y-82259175D01*
X159159449Y-82318703D01*
X159159449Y-82966548D01*
X160076437Y-82966548D01*
X160043524Y-83023555D01*
X160009449Y-83150722D01*
X160009449Y-83282374D01*
X160043524Y-83409541D01*
X160076437Y-83466548D01*
X159159449Y-83466548D01*
X159159449Y-84114392D01*
X159165850Y-84173920D01*
X159165852Y-84173927D01*
X159216094Y-84308634D01*
X159216098Y-84308641D01*
X159302258Y-84423735D01*
X159302261Y-84423738D01*
X159417355Y-84509898D01*
X159417362Y-84509902D01*
X159548919Y-84558970D01*
X159604853Y-84600841D01*
X159629270Y-84666306D01*
X159614418Y-84734579D01*
X159593268Y-84762833D01*
X159479338Y-84876763D01*
X159354400Y-85048727D01*
X159257893Y-85238133D01*
X159192202Y-85440308D01*
X159158949Y-85650261D01*
X159158949Y-85862834D01*
X159185676Y-86031585D01*
X159192203Y-86072791D01*
X159244505Y-86233760D01*
X159257893Y-86274962D01*
X159354400Y-86464368D01*
X159479339Y-86636334D01*
X159629662Y-86786657D01*
X159801628Y-86911596D01*
X159801630Y-86911597D01*
X159801633Y-86911599D01*
X159991037Y-87008105D01*
X160193206Y-87073794D01*
X160403162Y-87107048D01*
X160403163Y-87107048D01*
X160615735Y-87107048D01*
X160615736Y-87107048D01*
X160825692Y-87073794D01*
X161027861Y-87008105D01*
X161217265Y-86911599D01*
X161279698Y-86866239D01*
X161389235Y-86786657D01*
X161389237Y-86786654D01*
X161389241Y-86786652D01*
X161539553Y-86636340D01*
X161539555Y-86636336D01*
X161539558Y-86636334D01*
X161664497Y-86464368D01*
X161664496Y-86464368D01*
X161664500Y-86464364D01*
X161761006Y-86274960D01*
X161826695Y-86072791D01*
X161859949Y-85862835D01*
X161859949Y-85650261D01*
X161826695Y-85440305D01*
X161761006Y-85238136D01*
X161664500Y-85048732D01*
X161664498Y-85048729D01*
X161664497Y-85048727D01*
X161539558Y-84876761D01*
X161425630Y-84762833D01*
X161392145Y-84701510D01*
X161397129Y-84631818D01*
X161439001Y-84575885D01*
X161469978Y-84558970D01*
X161601535Y-84509902D01*
X161601542Y-84509898D01*
X161716636Y-84423738D01*
X161716639Y-84423735D01*
X161802799Y-84308641D01*
X161802803Y-84308634D01*
X161853045Y-84173927D01*
X161853047Y-84173920D01*
X161859448Y-84114392D01*
X161859449Y-84114375D01*
X161859449Y-83466548D01*
X160942461Y-83466548D01*
X160975374Y-83409541D01*
X161009449Y-83282374D01*
X161009449Y-83150722D01*
X160975374Y-83023555D01*
X160942461Y-82966548D01*
X161859449Y-82966548D01*
X161859449Y-82318720D01*
X161859448Y-82318703D01*
X161853047Y-82259175D01*
X161853045Y-82259168D01*
X161802803Y-82124461D01*
X161802799Y-82124454D01*
X161716639Y-82009360D01*
X161716636Y-82009357D01*
X161601542Y-81923197D01*
X161601537Y-81923194D01*
X161469977Y-81874125D01*
X161414044Y-81832253D01*
X161389627Y-81766789D01*
X161404479Y-81698516D01*
X161425624Y-81670268D01*
X161539553Y-81556340D01*
X161664500Y-81384364D01*
X161664798Y-81383778D01*
X161684684Y-81344753D01*
X161732658Y-81293957D01*
X161795168Y-81277048D01*
X162047147Y-81277048D01*
X162114186Y-81296733D01*
X162159941Y-81349537D01*
X162171147Y-81401048D01*
X162171147Y-157948464D01*
X162171110Y-157951507D01*
X162152732Y-158700128D01*
X162152433Y-158706207D01*
X162097458Y-159451487D01*
X162096861Y-159457544D01*
X162005384Y-160199218D01*
X162004491Y-160205238D01*
X161876733Y-160941529D01*
X161875546Y-160947499D01*
X161711807Y-161676661D01*
X161710328Y-161682565D01*
X161511014Y-162402790D01*
X161509248Y-162408613D01*
X161369170Y-162832636D01*
X161296914Y-163051361D01*
X161274835Y-163118194D01*
X161272784Y-163123925D01*
X161003832Y-163821156D01*
X161001503Y-163826779D01*
X160698666Y-164509968D01*
X160696064Y-164515470D01*
X160360063Y-165182989D01*
X160357194Y-165188356D01*
X159988855Y-165838564D01*
X159985726Y-165843785D01*
X159585909Y-166475167D01*
X159582527Y-166480227D01*
X159152242Y-167091184D01*
X159148617Y-167096073D01*
X158688846Y-167685215D01*
X158684985Y-167689919D01*
X158196861Y-168255790D01*
X158192774Y-168260300D01*
X157677481Y-168801529D01*
X157673177Y-168805833D01*
X157131948Y-169321126D01*
X157127438Y-169325213D01*
X156561567Y-169813337D01*
X156556863Y-169817198D01*
X155967733Y-170276959D01*
X155962844Y-170280585D01*
X155351860Y-170710888D01*
X155346800Y-170714269D01*
X154715433Y-171114078D01*
X154710212Y-171117207D01*
X154060003Y-171485546D01*
X154054636Y-171488415D01*
X153387118Y-171824415D01*
X153381616Y-171827017D01*
X152698426Y-172129854D01*
X152692803Y-172132183D01*
X151995585Y-172401130D01*
X151989854Y-172403181D01*
X151280249Y-172637602D01*
X151274425Y-172639368D01*
X150554211Y-172838678D01*
X150548308Y-172840157D01*
X149819146Y-173003896D01*
X149813176Y-173005083D01*
X149076885Y-173132841D01*
X149070865Y-173133734D01*
X148329191Y-173225211D01*
X148323134Y-173225808D01*
X147577854Y-173280783D01*
X147571775Y-173281082D01*
X147104526Y-173292552D01*
X146823019Y-173299463D01*
X146820002Y-173299500D01*
X116224500Y-173299500D01*
X116157461Y-173279815D01*
X116111706Y-173227011D01*
X116100500Y-173175500D01*
X116100500Y-172035718D01*
X116120185Y-171968679D01*
X116168207Y-171925233D01*
X116207815Y-171905052D01*
X116207815Y-171905051D01*
X116207816Y-171905051D01*
X116306590Y-171833288D01*
X116379786Y-171780109D01*
X116379788Y-171780106D01*
X116379792Y-171780104D01*
X116530104Y-171629792D01*
X116530106Y-171629788D01*
X116530109Y-171629786D01*
X116655048Y-171457820D01*
X116655047Y-171457820D01*
X116655051Y-171457816D01*
X116751557Y-171268412D01*
X116817246Y-171066243D01*
X116850500Y-170856287D01*
X116850500Y-170643713D01*
X116817246Y-170433757D01*
X116751557Y-170231588D01*
X116655051Y-170042184D01*
X116655049Y-170042181D01*
X116655048Y-170042179D01*
X116530109Y-169870213D01*
X116379786Y-169719890D01*
X116207820Y-169594951D01*
X116018414Y-169498444D01*
X116018413Y-169498443D01*
X116018412Y-169498443D01*
X115816243Y-169432754D01*
X115816241Y-169432753D01*
X115816240Y-169432753D01*
X115654957Y-169407208D01*
X115606287Y-169399500D01*
X115393713Y-169399500D01*
X115345042Y-169407208D01*
X115183760Y-169432753D01*
X114981585Y-169498444D01*
X114792179Y-169594951D01*
X114620215Y-169719889D01*
X114506285Y-169833819D01*
X114444962Y-169867303D01*
X114375270Y-169862319D01*
X114319337Y-169820447D01*
X114302422Y-169789470D01*
X114253354Y-169657913D01*
X114253350Y-169657906D01*
X114167190Y-169542812D01*
X114167187Y-169542809D01*
X114052093Y-169456649D01*
X114052086Y-169456645D01*
X113917379Y-169406403D01*
X113917372Y-169406401D01*
X113857844Y-169400000D01*
X113210000Y-169400000D01*
X113210000Y-170316988D01*
X113152993Y-170284075D01*
X113025826Y-170250000D01*
X112894174Y-170250000D01*
X112767007Y-170284075D01*
X112710000Y-170316988D01*
X112710000Y-169400000D01*
X112062155Y-169400000D01*
X112002627Y-169406401D01*
X112002620Y-169406403D01*
X111867913Y-169456645D01*
X111867906Y-169456649D01*
X111752812Y-169542809D01*
X111752809Y-169542812D01*
X111666649Y-169657906D01*
X111666646Y-169657912D01*
X111617577Y-169789471D01*
X111575705Y-169845404D01*
X111510241Y-169869821D01*
X111441968Y-169854969D01*
X111413714Y-169833818D01*
X111299786Y-169719890D01*
X111127820Y-169594951D01*
X110938414Y-169498444D01*
X110938413Y-169498443D01*
X110938412Y-169498443D01*
X110736243Y-169432754D01*
X110736241Y-169432753D01*
X110736240Y-169432753D01*
X110574957Y-169407208D01*
X110526287Y-169399500D01*
X110313713Y-169399500D01*
X110265042Y-169407208D01*
X110103760Y-169432753D01*
X109901585Y-169498444D01*
X109712179Y-169594951D01*
X109540213Y-169719890D01*
X109389890Y-169870213D01*
X109264951Y-170042179D01*
X109168444Y-170231585D01*
X109102753Y-170433760D01*
X109084580Y-170548502D01*
X109069500Y-170643713D01*
X109069500Y-170856287D01*
X109102754Y-171066243D01*
X109119313Y-171117207D01*
X109168444Y-171268414D01*
X109264951Y-171457820D01*
X109389890Y-171629786D01*
X109540213Y-171780109D01*
X109712179Y-171905048D01*
X109712181Y-171905049D01*
X109712184Y-171905051D01*
X109901588Y-172001557D01*
X110103757Y-172067246D01*
X110313713Y-172100500D01*
X110313714Y-172100500D01*
X110526286Y-172100500D01*
X110526287Y-172100500D01*
X110736243Y-172067246D01*
X110938412Y-172001557D01*
X111127816Y-171905051D01*
X111214478Y-171842088D01*
X111299784Y-171780110D01*
X111299784Y-171780109D01*
X111299792Y-171780104D01*
X111413717Y-171666178D01*
X111475036Y-171632696D01*
X111544728Y-171637680D01*
X111600662Y-171679551D01*
X111617577Y-171710528D01*
X111666646Y-171842088D01*
X111666649Y-171842093D01*
X111752809Y-171957187D01*
X111752812Y-171957190D01*
X111867906Y-172043350D01*
X111867913Y-172043354D01*
X112002620Y-172093596D01*
X112002627Y-172093598D01*
X112062155Y-172099999D01*
X112062172Y-172100000D01*
X112710000Y-172100000D01*
X112710000Y-171183012D01*
X112767007Y-171215925D01*
X112894174Y-171250000D01*
X113025826Y-171250000D01*
X113152993Y-171215925D01*
X113210000Y-171183012D01*
X113210000Y-172100000D01*
X113857828Y-172100000D01*
X113857844Y-172099999D01*
X113917372Y-172093598D01*
X113917379Y-172093596D01*
X114052086Y-172043354D01*
X114052093Y-172043350D01*
X114167187Y-171957190D01*
X114167190Y-171957187D01*
X114253350Y-171842093D01*
X114253354Y-171842086D01*
X114302422Y-171710529D01*
X114344293Y-171654595D01*
X114409757Y-171630178D01*
X114478030Y-171645030D01*
X114506285Y-171666181D01*
X114620213Y-171780109D01*
X114792184Y-171905051D01*
X114792184Y-171905052D01*
X114831793Y-171925233D01*
X114882590Y-171973206D01*
X114899500Y-172035718D01*
X114899500Y-173175500D01*
X114879815Y-173242539D01*
X114827011Y-173288294D01*
X114775500Y-173299500D01*
X86174500Y-173299500D01*
X86107461Y-173279815D01*
X86061706Y-173227011D01*
X86050500Y-173175500D01*
X86050500Y-172035718D01*
X86070185Y-171968679D01*
X86118207Y-171925233D01*
X86157815Y-171905052D01*
X86157815Y-171905051D01*
X86157816Y-171905051D01*
X86256590Y-171833288D01*
X86329786Y-171780109D01*
X86329788Y-171780106D01*
X86329792Y-171780104D01*
X86480104Y-171629792D01*
X86480106Y-171629788D01*
X86480109Y-171629786D01*
X86605048Y-171457820D01*
X86605047Y-171457820D01*
X86605051Y-171457816D01*
X86701557Y-171268412D01*
X86767246Y-171066243D01*
X86800500Y-170856287D01*
X86800500Y-170643713D01*
X86767246Y-170433757D01*
X86701557Y-170231588D01*
X86605051Y-170042184D01*
X86605049Y-170042181D01*
X86605048Y-170042179D01*
X86480109Y-169870213D01*
X86329786Y-169719890D01*
X86157820Y-169594951D01*
X85968414Y-169498444D01*
X85968413Y-169498443D01*
X85968412Y-169498443D01*
X85766243Y-169432754D01*
X85766241Y-169432753D01*
X85766240Y-169432753D01*
X85604957Y-169407208D01*
X85556287Y-169399500D01*
X85343713Y-169399500D01*
X85295042Y-169407208D01*
X85133760Y-169432753D01*
X84931585Y-169498444D01*
X84742179Y-169594951D01*
X84570215Y-169719889D01*
X84456285Y-169833819D01*
X84394962Y-169867303D01*
X84325270Y-169862319D01*
X84269337Y-169820447D01*
X84252422Y-169789470D01*
X84203354Y-169657913D01*
X84203350Y-169657906D01*
X84117190Y-169542812D01*
X84117187Y-169542809D01*
X84002093Y-169456649D01*
X84002086Y-169456645D01*
X83867379Y-169406403D01*
X83867372Y-169406401D01*
X83807844Y-169400000D01*
X83160000Y-169400000D01*
X83160000Y-170316988D01*
X83102993Y-170284075D01*
X82975826Y-170250000D01*
X82844174Y-170250000D01*
X82717007Y-170284075D01*
X82660000Y-170316988D01*
X82660000Y-169400000D01*
X82012155Y-169400000D01*
X81952627Y-169406401D01*
X81952620Y-169406403D01*
X81817913Y-169456645D01*
X81817906Y-169456649D01*
X81702812Y-169542809D01*
X81702809Y-169542812D01*
X81616649Y-169657906D01*
X81616646Y-169657912D01*
X81567577Y-169789471D01*
X81525705Y-169845404D01*
X81460241Y-169869821D01*
X81391968Y-169854969D01*
X81363714Y-169833818D01*
X81249786Y-169719890D01*
X81077820Y-169594951D01*
X80888414Y-169498444D01*
X80888413Y-169498443D01*
X80888412Y-169498443D01*
X80686243Y-169432754D01*
X80686241Y-169432753D01*
X80686240Y-169432753D01*
X80524957Y-169407208D01*
X80476287Y-169399500D01*
X80263713Y-169399500D01*
X80215042Y-169407208D01*
X80053760Y-169432753D01*
X79851585Y-169498444D01*
X79662179Y-169594951D01*
X79490213Y-169719890D01*
X79339890Y-169870213D01*
X79214951Y-170042179D01*
X79118444Y-170231585D01*
X79052753Y-170433760D01*
X79034580Y-170548502D01*
X79019500Y-170643713D01*
X79019500Y-170856287D01*
X79052754Y-171066243D01*
X79069313Y-171117207D01*
X79118444Y-171268414D01*
X79214951Y-171457820D01*
X79339890Y-171629786D01*
X79490213Y-171780109D01*
X79662179Y-171905048D01*
X79662181Y-171905049D01*
X79662184Y-171905051D01*
X79851588Y-172001557D01*
X80053757Y-172067246D01*
X80263713Y-172100500D01*
X80263714Y-172100500D01*
X80476286Y-172100500D01*
X80476287Y-172100500D01*
X80686243Y-172067246D01*
X80888412Y-172001557D01*
X81077816Y-171905051D01*
X81164478Y-171842088D01*
X81249784Y-171780110D01*
X81249784Y-171780109D01*
X81249792Y-171780104D01*
X81363717Y-171666178D01*
X81425036Y-171632696D01*
X81494728Y-171637680D01*
X81550662Y-171679551D01*
X81567577Y-171710528D01*
X81616646Y-171842088D01*
X81616649Y-171842093D01*
X81702809Y-171957187D01*
X81702812Y-171957190D01*
X81817906Y-172043350D01*
X81817913Y-172043354D01*
X81952620Y-172093596D01*
X81952627Y-172093598D01*
X82012155Y-172099999D01*
X82012172Y-172100000D01*
X82660000Y-172100000D01*
X82660000Y-171183012D01*
X82717007Y-171215925D01*
X82844174Y-171250000D01*
X82975826Y-171250000D01*
X83102993Y-171215925D01*
X83160000Y-171183012D01*
X83160000Y-172100000D01*
X83807828Y-172100000D01*
X83807844Y-172099999D01*
X83867372Y-172093598D01*
X83867379Y-172093596D01*
X84002086Y-172043354D01*
X84002093Y-172043350D01*
X84117187Y-171957190D01*
X84117190Y-171957187D01*
X84203350Y-171842093D01*
X84203354Y-171842086D01*
X84252422Y-171710529D01*
X84294293Y-171654595D01*
X84359757Y-171630178D01*
X84428030Y-171645030D01*
X84456285Y-171666181D01*
X84570213Y-171780109D01*
X84742184Y-171905051D01*
X84742184Y-171905052D01*
X84781793Y-171925233D01*
X84832590Y-171973206D01*
X84849500Y-172035718D01*
X84849500Y-173763330D01*
X84849499Y-173763348D01*
X84849499Y-173929054D01*
X84849498Y-173929054D01*
X84890423Y-174081787D01*
X84899388Y-174097313D01*
X84899387Y-174097313D01*
X84899389Y-174097315D01*
X84969475Y-174218709D01*
X84969479Y-174218714D01*
X84969480Y-174218716D01*
X85019480Y-174268716D01*
X85051893Y-174301129D01*
X85131284Y-174380520D01*
X85131286Y-174380521D01*
X85131290Y-174380524D01*
X85144423Y-174388106D01*
X85268216Y-174459577D01*
X85420943Y-174500501D01*
X85420945Y-174500501D01*
X85586654Y-174500501D01*
X85586670Y-174500500D01*
X146909735Y-174500500D01*
X146909774Y-174500497D01*
X147215622Y-174500498D01*
X148002680Y-174463005D01*
X148787063Y-174388106D01*
X149566994Y-174275969D01*
X150340705Y-174126849D01*
X151106445Y-173941082D01*
X151862478Y-173719091D01*
X152607092Y-173461378D01*
X153338600Y-173168526D01*
X154055346Y-172841200D01*
X154755704Y-172480140D01*
X155438090Y-172086165D01*
X155438115Y-172086149D01*
X156100909Y-171660197D01*
X156100935Y-171660178D01*
X156100956Y-171660166D01*
X156742802Y-171203110D01*
X157362173Y-170716032D01*
X157957666Y-170200034D01*
X158527933Y-169656285D01*
X159071681Y-169086019D01*
X159587680Y-168490525D01*
X160074758Y-167871154D01*
X160531815Y-167229309D01*
X160957813Y-166566442D01*
X161351788Y-165884057D01*
X161712848Y-165183698D01*
X162040175Y-164466953D01*
X162333027Y-163735445D01*
X162590740Y-162990831D01*
X162812732Y-162234798D01*
X162998498Y-161469058D01*
X163147619Y-160695347D01*
X163259756Y-159915416D01*
X163334655Y-159131034D01*
X163372147Y-158343975D01*
X163372147Y-157950000D01*
X163372147Y-157877086D01*
X163372147Y-80597491D01*
X163372147Y-63892590D01*
X163331224Y-63739863D01*
X163331220Y-63739856D01*
X163283453Y-63657119D01*
X163274678Y-63638505D01*
X163109347Y-63195775D01*
X163014796Y-62964450D01*
X162669838Y-62120484D01*
X162197624Y-61059080D01*
X161693194Y-60012653D01*
X161157019Y-58982181D01*
X161157013Y-58982171D01*
X161157003Y-58982151D01*
X160589543Y-57968514D01*
X159991351Y-56972705D01*
X159362987Y-55995654D01*
X158705038Y-55038276D01*
X158018119Y-54101467D01*
X157302874Y-53186101D01*
X156647480Y-52398233D01*
X156559963Y-52293026D01*
X155960328Y-51615454D01*
X155790106Y-51423107D01*
X155790093Y-51423093D01*
X154994016Y-50577148D01*
X154994012Y-50577144D01*
X154993997Y-50577128D01*
X154172391Y-49755890D01*
X153326055Y-48960160D01*
X153326052Y-48960157D01*
X153326041Y-48960147D01*
X152455779Y-48190682D01*
X151562386Y-47448184D01*
X150646699Y-46733348D01*
X150380024Y-46537992D01*
X150082165Y-46319792D01*
X152870121Y-46319792D01*
X152870287Y-46322779D01*
X152870287Y-46322784D01*
X152872820Y-46368219D01*
X152873012Y-46375119D01*
X152873012Y-46423628D01*
X152873350Y-46424887D01*
X152877381Y-46450072D01*
X152888068Y-46641839D01*
X152888589Y-46651194D01*
X152885923Y-46679143D01*
X152892240Y-46716702D01*
X152892624Y-46723576D01*
X152894360Y-46754733D01*
X152894361Y-46754736D01*
X152900201Y-46772510D01*
X152904679Y-46790646D01*
X152938924Y-46994216D01*
X152940487Y-47003507D01*
X152940907Y-47031377D01*
X152951371Y-47068210D01*
X152952506Y-47074953D01*
X152957725Y-47105972D01*
X152957726Y-47105976D01*
X152965393Y-47122763D01*
X152971878Y-47140384D01*
X153027706Y-47336867D01*
X153027705Y-47336867D01*
X153030291Y-47345968D01*
X153033739Y-47373482D01*
X153048225Y-47409082D01*
X153058729Y-47446049D01*
X153068109Y-47461747D01*
X153076517Y-47478610D01*
X153156665Y-47675573D01*
X153163088Y-47702506D01*
X153181397Y-47736353D01*
X153183959Y-47742647D01*
X153195901Y-47771995D01*
X153195902Y-47771997D01*
X153195903Y-47771998D01*
X153206903Y-47786521D01*
X153217119Y-47802387D01*
X153318294Y-47989416D01*
X153327640Y-48015529D01*
X153349512Y-48047126D01*
X153352747Y-48053105D01*
X153352748Y-48053107D01*
X153367801Y-48080934D01*
X153367802Y-48080935D01*
X153380364Y-48094213D01*
X153392240Y-48108851D01*
X153513860Y-48284544D01*
X153526082Y-48309597D01*
X153551205Y-48338493D01*
X153555094Y-48344112D01*
X153573002Y-48369981D01*
X153573003Y-48369982D01*
X153587073Y-48381918D01*
X153600435Y-48395118D01*
X153735886Y-48550912D01*
X153735886Y-48550913D01*
X153742036Y-48557986D01*
X153757064Y-48581701D01*
X153785081Y-48607498D01*
X153789607Y-48612703D01*
X153803211Y-48628349D01*
X153810077Y-48636246D01*
X153825596Y-48646712D01*
X153840237Y-48658280D01*
X153981556Y-48788398D01*
X153990680Y-48796799D01*
X153990990Y-48797084D01*
X153999206Y-48808579D01*
X154039316Y-48841579D01*
X154041858Y-48843920D01*
X154041860Y-48843922D01*
X154077536Y-48876770D01*
X154077537Y-48876770D01*
X154077542Y-48876775D01*
X154078704Y-48877383D01*
X154099962Y-48891476D01*
X154306906Y-49061740D01*
X154319004Y-49071693D01*
X154333743Y-49088846D01*
X154369690Y-49113395D01*
X154373966Y-49116913D01*
X154373966Y-49116914D01*
X154398773Y-49137323D01*
X154403307Y-49141053D01*
X154414137Y-49145976D01*
X154432747Y-49156457D01*
X154770721Y-49387264D01*
X154770722Y-49387265D01*
X154774009Y-49389510D01*
X154775017Y-49390198D01*
X154809841Y-49418533D01*
X154829224Y-49427217D01*
X154838357Y-49433454D01*
X154838363Y-49433458D01*
X154846769Y-49439199D01*
X154884229Y-49452339D01*
X154893885Y-49456188D01*
X154943509Y-49478421D01*
X155286313Y-49632009D01*
X155324869Y-49653482D01*
X155346222Y-49658851D01*
X155366312Y-49667852D01*
X155404552Y-49674000D01*
X155415091Y-49676167D01*
X155824286Y-49779058D01*
X155865350Y-49793389D01*
X155887935Y-49795062D01*
X155909905Y-49800587D01*
X155947869Y-49799999D01*
X155958913Y-49800322D01*
X156375760Y-49831215D01*
X156418435Y-49838293D01*
X156441218Y-49836066D01*
X156464048Y-49837758D01*
X156464049Y-49837757D01*
X156464052Y-49837758D01*
X156501034Y-49830728D01*
X156512123Y-49829134D01*
X156928050Y-49788481D01*
X156971553Y-49788133D01*
X156993386Y-49782095D01*
X157015926Y-49779892D01*
X157051448Y-49766552D01*
X157061982Y-49763124D01*
X157468494Y-49650706D01*
X157511884Y-49642681D01*
X157531756Y-49633211D01*
X157552977Y-49627343D01*
X157586389Y-49607693D01*
X157595874Y-49602656D01*
X157983908Y-49417752D01*
X158025919Y-49401899D01*
X158043175Y-49389510D01*
X158062351Y-49380373D01*
X158092572Y-49354580D01*
X158100709Y-49348206D01*
X158441915Y-49103255D01*
X158462294Y-49093407D01*
X158495234Y-49064978D01*
X158530583Y-49039602D01*
X158538136Y-49030380D01*
X158553031Y-49015097D01*
X158715842Y-48874589D01*
X158727862Y-48867956D01*
X158765598Y-48831649D01*
X158805222Y-48797453D01*
X158805668Y-48796795D01*
X158822246Y-48777146D01*
X158960579Y-48644053D01*
X158982940Y-48628349D01*
X159007862Y-48598560D01*
X159035853Y-48571631D01*
X159045033Y-48556415D01*
X159056098Y-48540908D01*
X159188394Y-48382788D01*
X159208804Y-48364904D01*
X159230498Y-48332464D01*
X159255545Y-48302529D01*
X159262934Y-48286623D01*
X159272314Y-48269936D01*
X159385822Y-48100213D01*
X159404126Y-48080349D01*
X159422301Y-48045667D01*
X159444068Y-48013121D01*
X159449662Y-47996664D01*
X159457234Y-47979011D01*
X159470735Y-47953251D01*
X159551554Y-47799036D01*
X159567614Y-47777375D01*
X159582013Y-47740917D01*
X159600210Y-47706196D01*
X159604006Y-47689293D01*
X159609658Y-47670921D01*
X159684303Y-47481932D01*
X159697986Y-47458644D01*
X159708406Y-47420905D01*
X159722791Y-47384486D01*
X159724774Y-47367212D01*
X159728433Y-47348373D01*
X159782776Y-47151573D01*
X159793940Y-47126839D01*
X159800240Y-47088329D01*
X159802012Y-47081913D01*
X159805794Y-47068215D01*
X159810629Y-47050706D01*
X159810762Y-47033168D01*
X159812385Y-47014087D01*
X159814436Y-47001555D01*
X159845663Y-46810677D01*
X159854155Y-46784704D01*
X159856258Y-46745918D01*
X159862529Y-46707588D01*
X159860760Y-46689900D01*
X159860328Y-46670856D01*
X159860582Y-46666181D01*
X159870905Y-46475792D01*
X159874463Y-46462517D01*
X159874463Y-46410191D01*
X159877297Y-46357928D01*
X159877124Y-46357109D01*
X159874463Y-46331556D01*
X159874463Y-36233695D01*
X159878612Y-36207453D01*
X159874463Y-36168079D01*
X159874463Y-36128483D01*
X159870104Y-36112217D01*
X159866564Y-36093135D01*
X159813171Y-35586430D01*
X159810425Y-35533832D01*
X159806284Y-35521083D01*
X159804922Y-35508151D01*
X159804923Y-35508144D01*
X159804920Y-35508129D01*
X159804880Y-35507749D01*
X159787165Y-35461638D01*
X159784978Y-35455464D01*
X159706761Y-35214574D01*
X159619539Y-34945948D01*
X159606081Y-34895338D01*
X159599245Y-34883446D01*
X159595254Y-34871155D01*
X159595252Y-34871150D01*
X159595008Y-34870398D01*
X159568328Y-34829296D01*
X159564831Y-34823577D01*
X159297896Y-34359195D01*
X159274097Y-34312210D01*
X159265149Y-34302225D01*
X159258668Y-34290950D01*
X159258667Y-34290949D01*
X159258667Y-34290948D01*
X159258467Y-34290600D01*
X159223612Y-34255612D01*
X159219113Y-34250851D01*
X159216582Y-34248027D01*
X158881276Y-33873843D01*
X158874770Y-33866583D01*
X158860352Y-33844276D01*
X158830987Y-33817723D01*
X158804560Y-33788232D01*
X158790461Y-33779028D01*
X158775089Y-33767178D01*
X158598710Y-33607690D01*
X158584261Y-33589308D01*
X158550029Y-33563671D01*
X158545778Y-33559827D01*
X158518305Y-33534985D01*
X158518298Y-33534980D01*
X158506862Y-33529122D01*
X158489065Y-33518011D01*
X158145592Y-33260773D01*
X158145591Y-33260772D01*
X158141729Y-33257880D01*
X158106844Y-33227247D01*
X158089174Y-33218519D01*
X158080013Y-33211658D01*
X158073406Y-33206709D01*
X158034796Y-33191242D01*
X158025995Y-33187313D01*
X157627778Y-32990623D01*
X157623261Y-32988392D01*
X157584163Y-32964962D01*
X157564399Y-32959319D01*
X157554327Y-32954344D01*
X157545974Y-32950219D01*
X157506211Y-32942284D01*
X157496438Y-32939918D01*
X157078082Y-32820484D01*
X157073074Y-32819054D01*
X157031101Y-32803159D01*
X157009943Y-32801031D01*
X156999308Y-32797995D01*
X156989506Y-32795197D01*
X156989503Y-32795196D01*
X156989501Y-32795196D01*
X156989498Y-32795195D01*
X156989491Y-32795195D01*
X156949846Y-32794548D01*
X156939465Y-32793943D01*
X156510905Y-32750852D01*
X156505647Y-32750323D01*
X156461812Y-32742111D01*
X156440347Y-32743757D01*
X156429409Y-32742658D01*
X156429407Y-32742657D01*
X156418929Y-32741604D01*
X156418918Y-32741604D01*
X156380091Y-32747932D01*
X156369634Y-32749183D01*
X155940190Y-32782137D01*
X155940189Y-32782136D01*
X155934979Y-32782535D01*
X155890121Y-32782207D01*
X155869546Y-32787557D01*
X155858522Y-32788404D01*
X155858520Y-32788405D01*
X155848344Y-32789186D01*
X155810926Y-32802354D01*
X155800978Y-32805392D01*
X155379902Y-32914914D01*
X155379901Y-32914914D01*
X155375027Y-32916181D01*
X155330140Y-32924042D01*
X155311514Y-32932700D01*
X155300645Y-32935527D01*
X155300642Y-32935529D01*
X155291617Y-32937876D01*
X155291615Y-32937877D01*
X155256336Y-32957900D01*
X155247404Y-32962501D01*
X154844672Y-33149720D01*
X154840297Y-33151754D01*
X154796798Y-33167999D01*
X154780751Y-33179434D01*
X154770382Y-33184255D01*
X154770381Y-33184256D01*
X154762886Y-33187740D01*
X154762881Y-33187744D01*
X154730982Y-33214444D01*
X154723360Y-33220336D01*
X154373900Y-33469394D01*
X154365326Y-33475505D01*
X154344274Y-33485668D01*
X154311883Y-33513593D01*
X154307213Y-33516922D01*
X154277046Y-33538421D01*
X154277046Y-33538422D01*
X154268871Y-33548331D01*
X154254192Y-33563332D01*
X154042441Y-33745894D01*
X154032658Y-33754327D01*
X154020618Y-33760968D01*
X153982923Y-33797206D01*
X153980363Y-33799414D01*
X153980349Y-33799428D01*
X153964758Y-33812871D01*
X153951159Y-33824596D01*
X153943266Y-33831401D01*
X153943262Y-33831404D01*
X153942784Y-33832108D01*
X153926222Y-33851716D01*
X153794582Y-33978274D01*
X153794581Y-33978273D01*
X153787688Y-33984899D01*
X153765324Y-34000597D01*
X153740406Y-34030356D01*
X153735573Y-34035004D01*
X153735565Y-34035013D01*
X153712408Y-34057276D01*
X153712408Y-34057277D01*
X153703207Y-34072512D01*
X153692141Y-34088006D01*
X153565851Y-34238850D01*
X153565850Y-34238851D01*
X153559688Y-34246210D01*
X153539263Y-34264099D01*
X153517571Y-34296513D01*
X153513298Y-34301617D01*
X153513292Y-34301627D01*
X153492520Y-34326439D01*
X153485119Y-34342355D01*
X153475737Y-34359029D01*
X153367442Y-34520864D01*
X153367442Y-34520865D01*
X153364732Y-34524916D01*
X153362087Y-34528868D01*
X153343771Y-34548738D01*
X153325594Y-34583399D01*
X153321910Y-34588906D01*
X153303826Y-34615932D01*
X153303823Y-34615938D01*
X153298220Y-34632406D01*
X153290648Y-34650045D01*
X153200684Y-34821615D01*
X153200683Y-34821617D01*
X153196202Y-34830160D01*
X153180137Y-34851824D01*
X153165743Y-34888246D01*
X153162673Y-34894101D01*
X153162668Y-34894114D01*
X153147538Y-34922971D01*
X153147536Y-34922977D01*
X153143732Y-34939895D01*
X153138075Y-34958261D01*
X153066878Y-35138431D01*
X153066878Y-35138432D01*
X153063340Y-35147386D01*
X153049648Y-35170684D01*
X153039226Y-35208405D01*
X153036789Y-35214573D01*
X153036787Y-35214574D01*
X153024841Y-35244810D01*
X153024840Y-35244813D01*
X153022852Y-35262093D01*
X153019188Y-35280938D01*
X152969267Y-35461638D01*
X152964778Y-35477885D01*
X152953608Y-35502631D01*
X152947304Y-35541133D01*
X152945532Y-35547551D01*
X152945531Y-35547552D01*
X152936916Y-35578737D01*
X152936915Y-35578743D01*
X152936779Y-35596292D01*
X152935155Y-35615356D01*
X152903374Y-35809520D01*
X152903373Y-35809521D01*
X152901829Y-35818949D01*
X152893336Y-35844929D01*
X152891233Y-35883676D01*
X152890150Y-35890298D01*
X152890150Y-35890305D01*
X152884961Y-35922011D01*
X152886729Y-35939717D01*
X152887160Y-35958753D01*
X152877270Y-36141081D01*
X152876571Y-36153977D01*
X152873012Y-36167262D01*
X152873012Y-36219591D01*
X152872830Y-36222947D01*
X152872830Y-36222949D01*
X152870178Y-36271838D01*
X152870348Y-36272645D01*
X152873012Y-36298211D01*
X152873012Y-46293139D01*
X152871970Y-46303207D01*
X152872072Y-46308382D01*
X152871439Y-46313486D01*
X152870121Y-46319792D01*
X150082165Y-46319792D01*
X150012028Y-46268412D01*
X149709580Y-46046849D01*
X149213553Y-45706287D01*
X148751906Y-45389329D01*
X147774574Y-44761403D01*
X147774546Y-44761385D01*
X146778514Y-44163667D01*
X146778509Y-44163664D01*
X146778497Y-44163657D01*
X146152449Y-43813548D01*
X145764598Y-43596647D01*
X144733849Y-43060915D01*
X144234956Y-42820719D01*
X144234955Y-42820719D01*
X144230766Y-42818702D01*
X144181784Y-42790423D01*
X144159794Y-42784530D01*
X144144818Y-42777320D01*
X144144814Y-42777318D01*
X144144812Y-42777317D01*
X144092862Y-42766403D01*
X144086267Y-42764828D01*
X144029061Y-42749500D01*
X144029057Y-42749500D01*
X144012397Y-42749500D01*
X144002106Y-42747338D01*
X143939625Y-42749500D01*
X138029057Y-42749500D01*
X109129057Y-42749500D01*
X109084500Y-42749500D01*
X109017461Y-42729815D01*
X108971706Y-42677011D01*
X108960500Y-42625500D01*
X108960500Y-32485718D01*
X108980185Y-32418679D01*
X109028207Y-32375233D01*
X109067815Y-32355052D01*
X109067815Y-32355051D01*
X109067816Y-32355051D01*
X109239792Y-32230104D01*
X109353717Y-32116178D01*
X109415036Y-32082696D01*
X109484728Y-32087680D01*
X109540662Y-32129551D01*
X109557577Y-32160528D01*
X109606646Y-32292088D01*
X109606649Y-32292093D01*
X109692809Y-32407187D01*
X109692812Y-32407190D01*
X109807906Y-32493350D01*
X109807913Y-32493354D01*
X109942620Y-32543596D01*
X109942627Y-32543598D01*
X110002155Y-32549999D01*
X110002172Y-32550000D01*
X110650000Y-32550000D01*
X110650000Y-31633012D01*
X110707007Y-31665925D01*
X110834174Y-31700000D01*
X110965826Y-31700000D01*
X111092993Y-31665925D01*
X111150000Y-31633012D01*
X111150000Y-32550000D01*
X111797828Y-32550000D01*
X111797844Y-32549999D01*
X111857372Y-32543598D01*
X111857379Y-32543596D01*
X111992086Y-32493354D01*
X111992093Y-32493350D01*
X112107187Y-32407190D01*
X112107190Y-32407187D01*
X112193350Y-32292093D01*
X112193354Y-32292086D01*
X112243596Y-32157379D01*
X112243598Y-32157372D01*
X112249999Y-32097844D01*
X112250000Y-32097827D01*
X112250000Y-31450000D01*
X111333012Y-31450000D01*
X111365925Y-31392993D01*
X111400000Y-31265826D01*
X111400000Y-31134174D01*
X111365925Y-31007007D01*
X111333012Y-30950000D01*
X112250000Y-30950000D01*
X112250000Y-30302172D01*
X112249999Y-30302155D01*
X112243598Y-30242627D01*
X112243596Y-30242620D01*
X112193354Y-30107913D01*
X112193350Y-30107906D01*
X112107190Y-29992812D01*
X112107187Y-29992809D01*
X111992093Y-29906649D01*
X111992086Y-29906645D01*
X111857379Y-29856403D01*
X111857372Y-29856401D01*
X111797844Y-29850000D01*
X111150000Y-29850000D01*
X111150000Y-30766988D01*
X111092993Y-30734075D01*
X110965826Y-30700000D01*
X110834174Y-30700000D01*
X110707007Y-30734075D01*
X110650000Y-30766988D01*
X110650000Y-29850000D01*
X110002155Y-29850000D01*
X109942627Y-29856401D01*
X109942620Y-29856403D01*
X109807913Y-29906645D01*
X109807906Y-29906649D01*
X109692812Y-29992809D01*
X109692809Y-29992812D01*
X109606649Y-30107906D01*
X109606646Y-30107912D01*
X109557577Y-30239471D01*
X109515705Y-30295404D01*
X109450241Y-30319821D01*
X109381968Y-30304969D01*
X109353714Y-30283818D01*
X109239786Y-30169890D01*
X109067820Y-30044951D01*
X108878414Y-29948444D01*
X108878413Y-29948443D01*
X108878412Y-29948443D01*
X108676243Y-29882754D01*
X108676241Y-29882753D01*
X108676240Y-29882753D01*
X108514957Y-29857208D01*
X108466287Y-29849500D01*
X108253713Y-29849500D01*
X108205042Y-29857208D01*
X108043760Y-29882753D01*
X107841585Y-29948444D01*
X107652179Y-30044951D01*
X107480213Y-30169890D01*
X107329890Y-30320213D01*
X107204949Y-30492182D01*
X107200484Y-30500946D01*
X107152509Y-30551742D01*
X107084688Y-30568536D01*
X107018553Y-30545998D01*
X106979516Y-30500946D01*
X106975050Y-30492182D01*
X106850109Y-30320213D01*
X106699786Y-30169890D01*
X106527820Y-30044951D01*
X106338414Y-29948444D01*
X106338413Y-29948443D01*
X106338412Y-29948443D01*
X106136243Y-29882754D01*
X106136241Y-29882753D01*
X106136240Y-29882753D01*
X105974957Y-29857208D01*
X105926287Y-29849500D01*
X105713713Y-29849500D01*
X105665042Y-29857208D01*
X105503760Y-29882753D01*
X105301585Y-29948444D01*
X105112179Y-30044951D01*
X104940213Y-30169890D01*
X104789890Y-30320213D01*
X104664949Y-30492182D01*
X104660484Y-30500946D01*
X104612509Y-30551742D01*
X104544688Y-30568536D01*
X104478553Y-30545998D01*
X104439516Y-30500946D01*
X104435050Y-30492182D01*
X104310109Y-30320213D01*
X104159786Y-30169890D01*
X103987820Y-30044951D01*
X103798414Y-29948444D01*
X103798413Y-29948443D01*
X103798412Y-29948443D01*
X103596243Y-29882754D01*
X103596241Y-29882753D01*
X103596240Y-29882753D01*
X103434957Y-29857208D01*
X103386287Y-29849500D01*
X103173713Y-29849500D01*
X103125042Y-29857208D01*
X102963760Y-29882753D01*
X102761585Y-29948444D01*
X102572179Y-30044951D01*
X102400213Y-30169890D01*
X102249890Y-30320213D01*
X102124949Y-30492182D01*
X102120484Y-30500946D01*
X102072509Y-30551742D01*
X102004688Y-30568536D01*
X101938553Y-30545998D01*
X101899516Y-30500946D01*
X101895050Y-30492182D01*
X101770109Y-30320213D01*
X101619786Y-30169890D01*
X101447820Y-30044951D01*
X101258414Y-29948444D01*
X101258413Y-29948443D01*
X101258412Y-29948443D01*
X101056243Y-29882754D01*
X101056241Y-29882753D01*
X101056240Y-29882753D01*
X100894957Y-29857208D01*
X100846287Y-29849500D01*
X100633713Y-29849500D01*
X100585042Y-29857208D01*
X100423760Y-29882753D01*
X100221585Y-29948444D01*
X100032179Y-30044951D01*
X99860213Y-30169890D01*
X99709890Y-30320213D01*
X99584949Y-30492182D01*
X99580484Y-30500946D01*
X99532509Y-30551742D01*
X99464688Y-30568536D01*
X99398553Y-30545998D01*
X99359516Y-30500946D01*
X99355050Y-30492182D01*
X99230109Y-30320213D01*
X99079786Y-30169890D01*
X98907820Y-30044951D01*
X98718414Y-29948444D01*
X98718413Y-29948443D01*
X98718412Y-29948443D01*
X98516243Y-29882754D01*
X98516241Y-29882753D01*
X98516240Y-29882753D01*
X98354957Y-29857208D01*
X98306287Y-29849500D01*
X98093713Y-29849500D01*
X98045042Y-29857208D01*
X97883760Y-29882753D01*
X97681585Y-29948444D01*
X97492179Y-30044951D01*
X97320213Y-30169890D01*
X97169890Y-30320213D01*
X97044949Y-30492182D01*
X97040484Y-30500946D01*
X96992509Y-30551742D01*
X96924688Y-30568536D01*
X96858553Y-30545998D01*
X96819516Y-30500946D01*
X96815050Y-30492182D01*
X96690109Y-30320213D01*
X96539786Y-30169890D01*
X96367820Y-30044951D01*
X96178414Y-29948444D01*
X96178413Y-29948443D01*
X96178412Y-29948443D01*
X95976243Y-29882754D01*
X95976241Y-29882753D01*
X95976240Y-29882753D01*
X95814957Y-29857208D01*
X95766287Y-29849500D01*
X95553713Y-29849500D01*
X95505042Y-29857208D01*
X95343760Y-29882753D01*
X95141585Y-29948444D01*
X94952179Y-30044951D01*
X94780213Y-30169890D01*
X94629890Y-30320213D01*
X94504949Y-30492182D01*
X94500484Y-30500946D01*
X94452509Y-30551742D01*
X94384688Y-30568536D01*
X94318553Y-30545998D01*
X94279516Y-30500946D01*
X94275050Y-30492182D01*
X94150109Y-30320213D01*
X93999786Y-30169890D01*
X93827820Y-30044951D01*
X93638414Y-29948444D01*
X93638413Y-29948443D01*
X93638412Y-29948443D01*
X93436243Y-29882754D01*
X93436241Y-29882753D01*
X93436240Y-29882753D01*
X93274957Y-29857208D01*
X93226287Y-29849500D01*
X93013713Y-29849500D01*
X92965042Y-29857208D01*
X92803760Y-29882753D01*
X92601585Y-29948444D01*
X92412179Y-30044951D01*
X92240213Y-30169890D01*
X92089890Y-30320213D01*
X91964951Y-30492179D01*
X91868444Y-30681585D01*
X91802753Y-30883760D01*
X91779759Y-31028938D01*
X91769500Y-31093713D01*
X91769500Y-31306287D01*
X91802754Y-31516243D01*
X91840193Y-31631469D01*
X91868444Y-31718414D01*
X91964951Y-31907820D01*
X92089890Y-32079786D01*
X92240213Y-32230109D01*
X92412179Y-32355048D01*
X92412181Y-32355049D01*
X92412184Y-32355051D01*
X92601588Y-32451557D01*
X92803757Y-32517246D01*
X93013713Y-32550500D01*
X93013714Y-32550500D01*
X93226286Y-32550500D01*
X93226287Y-32550500D01*
X93436243Y-32517246D01*
X93638412Y-32451557D01*
X93827816Y-32355051D01*
X93914478Y-32292088D01*
X93999786Y-32230109D01*
X93999788Y-32230106D01*
X93999792Y-32230104D01*
X94150104Y-32079792D01*
X94150106Y-32079788D01*
X94150109Y-32079786D01*
X94275048Y-31907820D01*
X94275047Y-31907820D01*
X94275051Y-31907816D01*
X94279514Y-31899054D01*
X94327488Y-31848259D01*
X94395308Y-31831463D01*
X94461444Y-31853999D01*
X94500486Y-31899056D01*
X94504951Y-31907820D01*
X94629890Y-32079786D01*
X94780213Y-32230109D01*
X94952179Y-32355048D01*
X94952181Y-32355049D01*
X94952184Y-32355051D01*
X95141588Y-32451557D01*
X95343757Y-32517246D01*
X95553713Y-32550500D01*
X95553714Y-32550500D01*
X95766286Y-32550500D01*
X95766287Y-32550500D01*
X95976243Y-32517246D01*
X96178412Y-32451557D01*
X96367816Y-32355051D01*
X96454478Y-32292088D01*
X96539786Y-32230109D01*
X96539788Y-32230106D01*
X96539792Y-32230104D01*
X96690104Y-32079792D01*
X96690106Y-32079788D01*
X96690109Y-32079786D01*
X96815048Y-31907820D01*
X96815047Y-31907820D01*
X96815051Y-31907816D01*
X96819514Y-31899054D01*
X96867488Y-31848259D01*
X96935308Y-31831463D01*
X97001444Y-31853999D01*
X97040486Y-31899056D01*
X97044951Y-31907820D01*
X97169890Y-32079786D01*
X97320213Y-32230109D01*
X97492179Y-32355048D01*
X97492181Y-32355049D01*
X97492184Y-32355051D01*
X97681588Y-32451557D01*
X97883757Y-32517246D01*
X98093713Y-32550500D01*
X98093714Y-32550500D01*
X98306286Y-32550500D01*
X98306287Y-32550500D01*
X98516243Y-32517246D01*
X98718412Y-32451557D01*
X98907816Y-32355051D01*
X98994478Y-32292088D01*
X99079786Y-32230109D01*
X99079788Y-32230106D01*
X99079792Y-32230104D01*
X99230104Y-32079792D01*
X99230106Y-32079788D01*
X99230109Y-32079786D01*
X99355048Y-31907820D01*
X99355047Y-31907820D01*
X99355051Y-31907816D01*
X99359514Y-31899054D01*
X99407488Y-31848259D01*
X99475308Y-31831463D01*
X99541444Y-31853999D01*
X99580486Y-31899056D01*
X99584951Y-31907820D01*
X99709890Y-32079786D01*
X99860213Y-32230109D01*
X100032179Y-32355048D01*
X100032181Y-32355049D01*
X100032184Y-32355051D01*
X100221588Y-32451557D01*
X100423757Y-32517246D01*
X100633713Y-32550500D01*
X100633714Y-32550500D01*
X100846286Y-32550500D01*
X100846287Y-32550500D01*
X101056243Y-32517246D01*
X101258412Y-32451557D01*
X101447816Y-32355051D01*
X101534478Y-32292088D01*
X101619786Y-32230109D01*
X101619788Y-32230106D01*
X101619792Y-32230104D01*
X101770104Y-32079792D01*
X101770106Y-32079788D01*
X101770109Y-32079786D01*
X101895048Y-31907820D01*
X101895047Y-31907820D01*
X101895051Y-31907816D01*
X101899514Y-31899054D01*
X101947488Y-31848259D01*
X102015308Y-31831463D01*
X102081444Y-31853999D01*
X102120486Y-31899056D01*
X102124951Y-31907820D01*
X102249890Y-32079786D01*
X102400213Y-32230109D01*
X102572179Y-32355048D01*
X102572181Y-32355049D01*
X102572184Y-32355051D01*
X102761588Y-32451557D01*
X102963757Y-32517246D01*
X103173713Y-32550500D01*
X103173714Y-32550500D01*
X103386286Y-32550500D01*
X103386287Y-32550500D01*
X103596243Y-32517246D01*
X103798412Y-32451557D01*
X103987816Y-32355051D01*
X104074478Y-32292088D01*
X104159786Y-32230109D01*
X104159788Y-32230106D01*
X104159792Y-32230104D01*
X104310104Y-32079792D01*
X104310106Y-32079788D01*
X104310109Y-32079786D01*
X104435048Y-31907820D01*
X104435047Y-31907820D01*
X104435051Y-31907816D01*
X104439514Y-31899054D01*
X104487488Y-31848259D01*
X104555308Y-31831463D01*
X104621444Y-31853999D01*
X104660486Y-31899056D01*
X104664951Y-31907820D01*
X104789890Y-32079786D01*
X104940213Y-32230109D01*
X105112179Y-32355048D01*
X105112181Y-32355049D01*
X105112184Y-32355051D01*
X105301588Y-32451557D01*
X105503757Y-32517246D01*
X105713713Y-32550500D01*
X105713714Y-32550500D01*
X105926286Y-32550500D01*
X105926287Y-32550500D01*
X106136243Y-32517246D01*
X106338412Y-32451557D01*
X106527816Y-32355051D01*
X106614478Y-32292088D01*
X106699786Y-32230109D01*
X106699788Y-32230106D01*
X106699792Y-32230104D01*
X106850104Y-32079792D01*
X106850106Y-32079788D01*
X106850109Y-32079786D01*
X106975048Y-31907820D01*
X106975047Y-31907820D01*
X106975051Y-31907816D01*
X106979514Y-31899054D01*
X107027488Y-31848259D01*
X107095308Y-31831463D01*
X107161444Y-31853999D01*
X107200486Y-31899056D01*
X107204951Y-31907820D01*
X107329890Y-32079786D01*
X107480213Y-32230109D01*
X107652184Y-32355051D01*
X107652184Y-32355052D01*
X107691793Y-32375233D01*
X107742590Y-32423206D01*
X107759500Y-32485718D01*
X107759500Y-42625500D01*
X107739815Y-42692539D01*
X107687011Y-42738294D01*
X107635500Y-42749500D01*
X80329057Y-42749500D01*
X55872914Y-42749500D01*
X55800000Y-42749500D01*
X55456284Y-42749500D01*
X54769934Y-42788045D01*
X54769931Y-42788045D01*
X54769919Y-42788046D01*
X54086869Y-42865006D01*
X54086822Y-42865012D01*
X53409117Y-42980159D01*
X53409109Y-42980161D01*
X52738918Y-43133127D01*
X52078343Y-43323435D01*
X51862402Y-43398996D01*
X51429489Y-43550479D01*
X51429478Y-43550483D01*
X51429471Y-43550486D01*
X50794385Y-43813548D01*
X50794362Y-43813558D01*
X50175056Y-44111800D01*
X50175026Y-44111816D01*
X49573370Y-44444339D01*
X48991303Y-44810075D01*
X48430670Y-45207866D01*
X47893208Y-45636478D01*
X47380632Y-46094543D01*
X46894543Y-46580632D01*
X46436478Y-47093208D01*
X46007866Y-47630670D01*
X45610075Y-48191303D01*
X45244339Y-48773370D01*
X44911816Y-49375026D01*
X44911800Y-49375056D01*
X44613558Y-49994362D01*
X44613548Y-49994385D01*
X44351565Y-50626868D01*
X44350479Y-50629489D01*
X44224332Y-50989997D01*
X44123435Y-51278343D01*
X43933127Y-51938918D01*
X43780161Y-52609109D01*
X43780159Y-52609117D01*
X43665012Y-53286822D01*
X43665006Y-53286869D01*
X43588046Y-53969919D01*
X43588045Y-53969931D01*
X43588045Y-53969934D01*
X43549500Y-54656284D01*
X27864544Y-54656284D01*
X27864544Y-46319792D01*
X29915428Y-46319792D01*
X29915594Y-46322779D01*
X29915594Y-46322784D01*
X29918127Y-46368219D01*
X29918319Y-46375119D01*
X29918319Y-46423628D01*
X29918657Y-46424887D01*
X29922688Y-46450072D01*
X29933375Y-46641839D01*
X29933896Y-46651194D01*
X29931230Y-46679143D01*
X29937547Y-46716702D01*
X29937931Y-46723576D01*
X29939667Y-46754733D01*
X29939668Y-46754736D01*
X29945508Y-46772510D01*
X29949986Y-46790646D01*
X29984231Y-46994216D01*
X29985794Y-47003507D01*
X29986214Y-47031377D01*
X29996678Y-47068210D01*
X29997813Y-47074953D01*
X30003032Y-47105972D01*
X30003033Y-47105976D01*
X30010700Y-47122763D01*
X30017185Y-47140384D01*
X30073013Y-47336867D01*
X30073012Y-47336867D01*
X30075598Y-47345968D01*
X30079046Y-47373482D01*
X30093532Y-47409082D01*
X30104036Y-47446049D01*
X30113416Y-47461747D01*
X30121824Y-47478610D01*
X30201972Y-47675573D01*
X30208395Y-47702506D01*
X30226704Y-47736353D01*
X30229266Y-47742647D01*
X30241208Y-47771995D01*
X30241209Y-47771997D01*
X30241210Y-47771998D01*
X30252210Y-47786521D01*
X30262426Y-47802387D01*
X30363601Y-47989416D01*
X30372947Y-48015529D01*
X30394819Y-48047126D01*
X30398054Y-48053105D01*
X30398055Y-48053107D01*
X30413108Y-48080934D01*
X30413109Y-48080935D01*
X30425671Y-48094213D01*
X30437547Y-48108851D01*
X30559167Y-48284544D01*
X30571389Y-48309597D01*
X30596512Y-48338493D01*
X30600401Y-48344112D01*
X30618309Y-48369981D01*
X30618310Y-48369982D01*
X30632380Y-48381918D01*
X30645742Y-48395118D01*
X30781193Y-48550912D01*
X30781193Y-48550913D01*
X30787343Y-48557986D01*
X30802371Y-48581701D01*
X30830388Y-48607498D01*
X30834914Y-48612703D01*
X30848518Y-48628349D01*
X30855384Y-48636246D01*
X30870903Y-48646712D01*
X30885544Y-48658280D01*
X31026863Y-48788398D01*
X31035987Y-48796799D01*
X31036297Y-48797084D01*
X31044513Y-48808579D01*
X31084623Y-48841579D01*
X31087165Y-48843920D01*
X31087167Y-48843922D01*
X31122843Y-48876770D01*
X31122844Y-48876770D01*
X31122849Y-48876775D01*
X31124011Y-48877383D01*
X31145269Y-48891476D01*
X31352213Y-49061740D01*
X31364311Y-49071693D01*
X31379050Y-49088846D01*
X31414997Y-49113395D01*
X31419273Y-49116913D01*
X31419273Y-49116914D01*
X31444080Y-49137323D01*
X31448614Y-49141053D01*
X31459444Y-49145976D01*
X31478054Y-49156457D01*
X31816028Y-49387264D01*
X31816029Y-49387265D01*
X31819316Y-49389510D01*
X31820324Y-49390198D01*
X31855148Y-49418533D01*
X31874531Y-49427217D01*
X31883664Y-49433454D01*
X31883670Y-49433458D01*
X31892076Y-49439199D01*
X31929536Y-49452339D01*
X31939192Y-49456188D01*
X31988816Y-49478421D01*
X32331620Y-49632009D01*
X32370176Y-49653482D01*
X32391529Y-49658851D01*
X32411619Y-49667852D01*
X32449859Y-49674000D01*
X32460398Y-49676167D01*
X32869593Y-49779058D01*
X32910657Y-49793389D01*
X32933242Y-49795062D01*
X32955212Y-49800587D01*
X32993176Y-49799999D01*
X33004220Y-49800322D01*
X33421067Y-49831215D01*
X33463742Y-49838293D01*
X33486525Y-49836066D01*
X33509355Y-49837758D01*
X33509356Y-49837757D01*
X33509359Y-49837758D01*
X33546341Y-49830728D01*
X33557430Y-49829134D01*
X33973357Y-49788481D01*
X34016860Y-49788133D01*
X34038693Y-49782095D01*
X34061233Y-49779892D01*
X34096755Y-49766552D01*
X34107289Y-49763124D01*
X34513801Y-49650706D01*
X34557191Y-49642681D01*
X34577063Y-49633211D01*
X34598284Y-49627343D01*
X34631696Y-49607693D01*
X34641181Y-49602656D01*
X35029215Y-49417752D01*
X35071226Y-49401899D01*
X35088482Y-49389510D01*
X35107658Y-49380373D01*
X35137879Y-49354580D01*
X35146016Y-49348206D01*
X35487222Y-49103255D01*
X35507601Y-49093407D01*
X35540541Y-49064978D01*
X35575890Y-49039602D01*
X35583443Y-49030380D01*
X35598338Y-49015097D01*
X35761149Y-48874589D01*
X35773169Y-48867956D01*
X35810905Y-48831649D01*
X35850529Y-48797453D01*
X35850975Y-48796795D01*
X35867553Y-48777146D01*
X36005886Y-48644053D01*
X36028247Y-48628349D01*
X36053169Y-48598560D01*
X36081160Y-48571631D01*
X36090340Y-48556415D01*
X36101405Y-48540908D01*
X36233701Y-48382788D01*
X36254111Y-48364904D01*
X36275805Y-48332464D01*
X36300852Y-48302529D01*
X36308241Y-48286623D01*
X36317621Y-48269936D01*
X36431129Y-48100213D01*
X36449433Y-48080349D01*
X36467608Y-48045667D01*
X36489375Y-48013121D01*
X36494969Y-47996664D01*
X36502541Y-47979011D01*
X36516042Y-47953251D01*
X36596861Y-47799036D01*
X36612921Y-47777375D01*
X36627320Y-47740917D01*
X36645517Y-47706196D01*
X36649313Y-47689293D01*
X36654965Y-47670921D01*
X36729610Y-47481932D01*
X36743293Y-47458644D01*
X36753713Y-47420905D01*
X36768098Y-47384486D01*
X36770081Y-47367212D01*
X36773740Y-47348373D01*
X36828083Y-47151573D01*
X36839247Y-47126839D01*
X36845547Y-47088329D01*
X36847319Y-47081913D01*
X36851101Y-47068215D01*
X36855936Y-47050706D01*
X36856069Y-47033168D01*
X36857692Y-47014087D01*
X36859743Y-47001555D01*
X36890970Y-46810677D01*
X36899462Y-46784704D01*
X36901565Y-46745918D01*
X36907836Y-46707588D01*
X36906067Y-46689900D01*
X36905635Y-46670856D01*
X36905889Y-46666181D01*
X36916212Y-46475792D01*
X36919770Y-46462517D01*
X36919770Y-46410191D01*
X36922604Y-46357928D01*
X36922431Y-46357109D01*
X36919770Y-46331556D01*
X36919770Y-36233695D01*
X36923919Y-36207453D01*
X36919770Y-36168079D01*
X36919770Y-36128483D01*
X36915411Y-36112217D01*
X36911871Y-36093135D01*
X36858478Y-35586430D01*
X36855732Y-35533832D01*
X36851591Y-35521083D01*
X36850229Y-35508151D01*
X36850230Y-35508144D01*
X36850227Y-35508129D01*
X36850187Y-35507749D01*
X36832472Y-35461638D01*
X36830285Y-35455464D01*
X36752068Y-35214574D01*
X36664846Y-34945948D01*
X36651388Y-34895338D01*
X36644552Y-34883446D01*
X36640561Y-34871155D01*
X36640559Y-34871150D01*
X36640315Y-34870398D01*
X36613635Y-34829296D01*
X36610138Y-34823577D01*
X36343203Y-34359195D01*
X36319404Y-34312210D01*
X36310456Y-34302225D01*
X36303975Y-34290950D01*
X36303974Y-34290949D01*
X36303974Y-34290948D01*
X36303774Y-34290600D01*
X36268919Y-34255612D01*
X36264420Y-34250851D01*
X36261889Y-34248027D01*
X35926583Y-33873843D01*
X35920077Y-33866583D01*
X35905659Y-33844276D01*
X35876294Y-33817723D01*
X35849867Y-33788232D01*
X35835768Y-33779028D01*
X35820396Y-33767178D01*
X35644017Y-33607690D01*
X35629568Y-33589308D01*
X35595336Y-33563671D01*
X35591085Y-33559827D01*
X35563612Y-33534985D01*
X35563605Y-33534980D01*
X35552169Y-33529122D01*
X35534372Y-33518011D01*
X35190899Y-33260773D01*
X35190898Y-33260772D01*
X35187036Y-33257880D01*
X35152151Y-33227247D01*
X35134481Y-33218519D01*
X35125320Y-33211658D01*
X35118713Y-33206709D01*
X35080103Y-33191242D01*
X35071302Y-33187313D01*
X34673085Y-32990623D01*
X34668568Y-32988392D01*
X34629470Y-32964962D01*
X34609706Y-32959319D01*
X34599634Y-32954344D01*
X34591281Y-32950219D01*
X34551518Y-32942284D01*
X34541745Y-32939918D01*
X34123389Y-32820484D01*
X34118381Y-32819054D01*
X34076408Y-32803159D01*
X34055250Y-32801031D01*
X34044615Y-32797995D01*
X34034813Y-32795197D01*
X34034810Y-32795196D01*
X34034808Y-32795196D01*
X34034805Y-32795195D01*
X34034798Y-32795195D01*
X33995153Y-32794548D01*
X33984772Y-32793943D01*
X33556212Y-32750852D01*
X33550954Y-32750323D01*
X33507119Y-32742111D01*
X33485654Y-32743757D01*
X33474716Y-32742658D01*
X33474714Y-32742657D01*
X33464236Y-32741604D01*
X33464225Y-32741604D01*
X33425398Y-32747932D01*
X33414941Y-32749183D01*
X32985497Y-32782137D01*
X32985496Y-32782136D01*
X32980286Y-32782535D01*
X32935428Y-32782207D01*
X32914853Y-32787557D01*
X32903829Y-32788404D01*
X32903827Y-32788405D01*
X32893651Y-32789186D01*
X32856233Y-32802354D01*
X32846285Y-32805392D01*
X32425209Y-32914914D01*
X32425208Y-32914914D01*
X32420334Y-32916181D01*
X32375447Y-32924042D01*
X32356821Y-32932700D01*
X32345952Y-32935527D01*
X32345949Y-32935529D01*
X32336924Y-32937876D01*
X32336922Y-32937877D01*
X32301643Y-32957900D01*
X32292711Y-32962501D01*
X31889979Y-33149720D01*
X31885604Y-33151754D01*
X31842105Y-33167999D01*
X31826058Y-33179434D01*
X31815689Y-33184255D01*
X31815688Y-33184256D01*
X31808193Y-33187740D01*
X31808188Y-33187744D01*
X31776289Y-33214444D01*
X31768667Y-33220336D01*
X31419207Y-33469394D01*
X31410633Y-33475505D01*
X31389581Y-33485668D01*
X31357190Y-33513593D01*
X31352520Y-33516922D01*
X31322353Y-33538421D01*
X31322353Y-33538422D01*
X31314178Y-33548331D01*
X31299499Y-33563332D01*
X31087748Y-33745894D01*
X31077965Y-33754327D01*
X31065925Y-33760968D01*
X31028230Y-33797206D01*
X31025670Y-33799414D01*
X31025656Y-33799428D01*
X31010065Y-33812871D01*
X30996466Y-33824596D01*
X30988573Y-33831401D01*
X30988569Y-33831404D01*
X30988091Y-33832108D01*
X30971529Y-33851716D01*
X30839889Y-33978274D01*
X30839888Y-33978273D01*
X30832995Y-33984899D01*
X30810631Y-34000597D01*
X30785713Y-34030356D01*
X30780880Y-34035004D01*
X30780872Y-34035013D01*
X30757715Y-34057276D01*
X30757715Y-34057277D01*
X30748514Y-34072512D01*
X30737448Y-34088006D01*
X30611158Y-34238850D01*
X30611157Y-34238851D01*
X30604995Y-34246210D01*
X30584570Y-34264099D01*
X30562878Y-34296513D01*
X30558605Y-34301617D01*
X30558599Y-34301627D01*
X30537827Y-34326439D01*
X30530426Y-34342355D01*
X30521044Y-34359029D01*
X30412749Y-34520864D01*
X30412749Y-34520865D01*
X30410039Y-34524916D01*
X30407394Y-34528868D01*
X30389078Y-34548738D01*
X30370901Y-34583399D01*
X30367217Y-34588906D01*
X30349133Y-34615932D01*
X30349130Y-34615938D01*
X30343527Y-34632406D01*
X30335955Y-34650045D01*
X30245991Y-34821615D01*
X30245990Y-34821617D01*
X30241509Y-34830160D01*
X30225444Y-34851824D01*
X30211050Y-34888246D01*
X30207980Y-34894101D01*
X30207975Y-34894114D01*
X30192845Y-34922971D01*
X30192843Y-34922977D01*
X30189039Y-34939895D01*
X30183382Y-34958261D01*
X30112185Y-35138431D01*
X30112185Y-35138432D01*
X30108647Y-35147386D01*
X30094955Y-35170684D01*
X30084533Y-35208405D01*
X30082096Y-35214573D01*
X30082094Y-35214574D01*
X30070148Y-35244810D01*
X30070147Y-35244813D01*
X30068159Y-35262093D01*
X30064495Y-35280938D01*
X30014574Y-35461638D01*
X30010085Y-35477885D01*
X29998915Y-35502631D01*
X29992611Y-35541133D01*
X29990839Y-35547551D01*
X29990838Y-35547552D01*
X29982223Y-35578737D01*
X29982222Y-35578743D01*
X29982086Y-35596292D01*
X29980462Y-35615356D01*
X29948681Y-35809520D01*
X29948680Y-35809521D01*
X29947136Y-35818949D01*
X29938643Y-35844929D01*
X29936540Y-35883676D01*
X29935457Y-35890298D01*
X29935457Y-35890305D01*
X29930268Y-35922011D01*
X29932036Y-35939717D01*
X29932467Y-35958753D01*
X29922577Y-36141081D01*
X29921878Y-36153977D01*
X29918319Y-36167262D01*
X29918319Y-36219591D01*
X29918137Y-36222947D01*
X29918137Y-36222949D01*
X29915485Y-36271838D01*
X29915655Y-36272645D01*
X29918319Y-36298211D01*
X29918319Y-46293139D01*
X29917277Y-46303207D01*
X29917379Y-46308382D01*
X29916746Y-46313486D01*
X29915428Y-46319792D01*
X27864544Y-46319792D01*
X27864544Y-38273792D01*
X27864702Y-38267537D01*
X27869135Y-38179770D01*
X27918670Y-37199024D01*
X27919929Y-37186594D01*
X28075852Y-36165221D01*
X28078333Y-36153079D01*
X28331789Y-35167628D01*
X28335426Y-35155927D01*
X28681298Y-34211201D01*
X28686019Y-34200035D01*
X29119189Y-33301099D01*
X29124926Y-33290537D01*
X29143015Y-33260772D01*
X29640307Y-32442463D01*
X29646980Y-32432587D01*
X29798441Y-32230110D01*
X30239417Y-31640600D01*
X30246944Y-31631480D01*
X30911262Y-30900817D01*
X30919619Y-30892464D01*
X31650525Y-30228447D01*
X31659645Y-30220925D01*
X32451877Y-29628785D01*
X32461745Y-29622124D01*
X33310038Y-29107064D01*
X33320594Y-29101337D01*
X34219707Y-28668515D01*
X34230876Y-28663798D01*
X35175697Y-28318309D01*
X35187440Y-28314664D01*
X36172986Y-28061594D01*
X36185121Y-28059119D01*
X37206546Y-27903597D01*
X37218981Y-27902342D01*
X38287534Y-27848787D01*
X38293770Y-27848633D01*
X156171268Y-27894655D01*
G37*
%TD.AperFunction*%
%TD*%
M02*
