%TF.GenerationSoftware,KiCad,Pcbnew,9.0.3*%
%TF.CreationDate,2025-08-22T16:08:22-07:00*%
%TF.ProjectId,gear_indicator_pcb,67656172-5f69-46e6-9469-6361746f725f,rev?*%
%TF.SameCoordinates,Original*%
%TF.FileFunction,Legend,Bot*%
%TF.FilePolarity,Positive*%
%FSLAX46Y46*%
G04 Gerber Fmt 4.6, Leading zero omitted, Abs format (unit mm)*
G04 Created by KiCad (PCBNEW 9.0.3) date 2025-08-22 16:08:22*
%MOMM*%
%LPD*%
G01*
G04 APERTURE LIST*
%ADD10C,0.300000*%
%ADD11C,0.200000*%
%ADD12C,0.150000*%
%ADD13C,0.000000*%
%ADD14C,0.120000*%
G04 APERTURE END LIST*
D10*
X64325939Y-33257341D02*
X64468797Y-33185912D01*
X64468797Y-33185912D02*
X64683082Y-33185912D01*
X64683082Y-33185912D02*
X64897368Y-33257341D01*
X64897368Y-33257341D02*
X65040225Y-33400198D01*
X65040225Y-33400198D02*
X65111654Y-33543055D01*
X65111654Y-33543055D02*
X65183082Y-33828769D01*
X65183082Y-33828769D02*
X65183082Y-34043055D01*
X65183082Y-34043055D02*
X65111654Y-34328769D01*
X65111654Y-34328769D02*
X65040225Y-34471626D01*
X65040225Y-34471626D02*
X64897368Y-34614484D01*
X64897368Y-34614484D02*
X64683082Y-34685912D01*
X64683082Y-34685912D02*
X64540225Y-34685912D01*
X64540225Y-34685912D02*
X64325939Y-34614484D01*
X64325939Y-34614484D02*
X64254511Y-34543055D01*
X64254511Y-34543055D02*
X64254511Y-34043055D01*
X64254511Y-34043055D02*
X64540225Y-34043055D01*
X63611654Y-33900198D02*
X63111654Y-33900198D01*
X62897368Y-34685912D02*
X63611654Y-34685912D01*
X63611654Y-34685912D02*
X63611654Y-33185912D01*
X63611654Y-33185912D02*
X62897368Y-33185912D01*
X62325939Y-34257341D02*
X61611654Y-34257341D01*
X62468796Y-34685912D02*
X61968796Y-33185912D01*
X61968796Y-33185912D02*
X61468796Y-34685912D01*
X60111654Y-34685912D02*
X60611654Y-33971626D01*
X60968797Y-34685912D02*
X60968797Y-33185912D01*
X60968797Y-33185912D02*
X60397368Y-33185912D01*
X60397368Y-33185912D02*
X60254511Y-33257341D01*
X60254511Y-33257341D02*
X60183082Y-33328769D01*
X60183082Y-33328769D02*
X60111654Y-33471626D01*
X60111654Y-33471626D02*
X60111654Y-33685912D01*
X60111654Y-33685912D02*
X60183082Y-33828769D01*
X60183082Y-33828769D02*
X60254511Y-33900198D01*
X60254511Y-33900198D02*
X60397368Y-33971626D01*
X60397368Y-33971626D02*
X60968797Y-33971626D01*
X58397368Y-34614484D02*
X58183083Y-34685912D01*
X58183083Y-34685912D02*
X57825940Y-34685912D01*
X57825940Y-34685912D02*
X57683083Y-34614484D01*
X57683083Y-34614484D02*
X57611654Y-34543055D01*
X57611654Y-34543055D02*
X57540225Y-34400198D01*
X57540225Y-34400198D02*
X57540225Y-34257341D01*
X57540225Y-34257341D02*
X57611654Y-34114484D01*
X57611654Y-34114484D02*
X57683083Y-34043055D01*
X57683083Y-34043055D02*
X57825940Y-33971626D01*
X57825940Y-33971626D02*
X58111654Y-33900198D01*
X58111654Y-33900198D02*
X58254511Y-33828769D01*
X58254511Y-33828769D02*
X58325940Y-33757341D01*
X58325940Y-33757341D02*
X58397368Y-33614484D01*
X58397368Y-33614484D02*
X58397368Y-33471626D01*
X58397368Y-33471626D02*
X58325940Y-33328769D01*
X58325940Y-33328769D02*
X58254511Y-33257341D01*
X58254511Y-33257341D02*
X58111654Y-33185912D01*
X58111654Y-33185912D02*
X57754511Y-33185912D01*
X57754511Y-33185912D02*
X57540225Y-33257341D01*
X56897369Y-34685912D02*
X56897369Y-33185912D01*
X56897369Y-33900198D02*
X56040226Y-33900198D01*
X56040226Y-34685912D02*
X56040226Y-33185912D01*
X55325940Y-34685912D02*
X55325940Y-33185912D01*
X54111654Y-33900198D02*
X54611654Y-33900198D01*
X54611654Y-34685912D02*
X54611654Y-33185912D01*
X54611654Y-33185912D02*
X53897368Y-33185912D01*
X53540225Y-33185912D02*
X52683083Y-33185912D01*
X53111654Y-34685912D02*
X53111654Y-33185912D01*
X51040226Y-34685912D02*
X51040226Y-33185912D01*
X50325940Y-34685912D02*
X50325940Y-33185912D01*
X50325940Y-33185912D02*
X49468797Y-34685912D01*
X49468797Y-34685912D02*
X49468797Y-33185912D01*
X48754511Y-34685912D02*
X48754511Y-33185912D01*
X48754511Y-33185912D02*
X48397368Y-33185912D01*
X48397368Y-33185912D02*
X48183082Y-33257341D01*
X48183082Y-33257341D02*
X48040225Y-33400198D01*
X48040225Y-33400198D02*
X47968796Y-33543055D01*
X47968796Y-33543055D02*
X47897368Y-33828769D01*
X47897368Y-33828769D02*
X47897368Y-34043055D01*
X47897368Y-34043055D02*
X47968796Y-34328769D01*
X47968796Y-34328769D02*
X48040225Y-34471626D01*
X48040225Y-34471626D02*
X48183082Y-34614484D01*
X48183082Y-34614484D02*
X48397368Y-34685912D01*
X48397368Y-34685912D02*
X48754511Y-34685912D01*
X47254511Y-34685912D02*
X47254511Y-33185912D01*
X45683082Y-34543055D02*
X45754510Y-34614484D01*
X45754510Y-34614484D02*
X45968796Y-34685912D01*
X45968796Y-34685912D02*
X46111653Y-34685912D01*
X46111653Y-34685912D02*
X46325939Y-34614484D01*
X46325939Y-34614484D02*
X46468796Y-34471626D01*
X46468796Y-34471626D02*
X46540225Y-34328769D01*
X46540225Y-34328769D02*
X46611653Y-34043055D01*
X46611653Y-34043055D02*
X46611653Y-33828769D01*
X46611653Y-33828769D02*
X46540225Y-33543055D01*
X46540225Y-33543055D02*
X46468796Y-33400198D01*
X46468796Y-33400198D02*
X46325939Y-33257341D01*
X46325939Y-33257341D02*
X46111653Y-33185912D01*
X46111653Y-33185912D02*
X45968796Y-33185912D01*
X45968796Y-33185912D02*
X45754510Y-33257341D01*
X45754510Y-33257341D02*
X45683082Y-33328769D01*
X45111653Y-34257341D02*
X44397368Y-34257341D01*
X45254510Y-34685912D02*
X44754510Y-33185912D01*
X44754510Y-33185912D02*
X44254510Y-34685912D01*
X43968796Y-33185912D02*
X43111654Y-33185912D01*
X43540225Y-34685912D02*
X43540225Y-33185912D01*
X42325939Y-33185912D02*
X42040225Y-33185912D01*
X42040225Y-33185912D02*
X41897368Y-33257341D01*
X41897368Y-33257341D02*
X41754511Y-33400198D01*
X41754511Y-33400198D02*
X41683082Y-33685912D01*
X41683082Y-33685912D02*
X41683082Y-34185912D01*
X41683082Y-34185912D02*
X41754511Y-34471626D01*
X41754511Y-34471626D02*
X41897368Y-34614484D01*
X41897368Y-34614484D02*
X42040225Y-34685912D01*
X42040225Y-34685912D02*
X42325939Y-34685912D01*
X42325939Y-34685912D02*
X42468797Y-34614484D01*
X42468797Y-34614484D02*
X42611654Y-34471626D01*
X42611654Y-34471626D02*
X42683082Y-34185912D01*
X42683082Y-34185912D02*
X42683082Y-33685912D01*
X42683082Y-33685912D02*
X42611654Y-33400198D01*
X42611654Y-33400198D02*
X42468797Y-33257341D01*
X42468797Y-33257341D02*
X42325939Y-33185912D01*
X40183082Y-34685912D02*
X40683082Y-33971626D01*
X41040225Y-34685912D02*
X41040225Y-33185912D01*
X41040225Y-33185912D02*
X40468796Y-33185912D01*
X40468796Y-33185912D02*
X40325939Y-33257341D01*
X40325939Y-33257341D02*
X40254510Y-33328769D01*
X40254510Y-33328769D02*
X40183082Y-33471626D01*
X40183082Y-33471626D02*
X40183082Y-33685912D01*
X40183082Y-33685912D02*
X40254510Y-33828769D01*
X40254510Y-33828769D02*
X40325939Y-33900198D01*
X40325939Y-33900198D02*
X40468796Y-33971626D01*
X40468796Y-33971626D02*
X41040225Y-33971626D01*
X46111653Y-37100828D02*
X46611653Y-36386542D01*
X46968796Y-37100828D02*
X46968796Y-35600828D01*
X46968796Y-35600828D02*
X46397367Y-35600828D01*
X46397367Y-35600828D02*
X46254510Y-35672257D01*
X46254510Y-35672257D02*
X46183081Y-35743685D01*
X46183081Y-35743685D02*
X46111653Y-35886542D01*
X46111653Y-35886542D02*
X46111653Y-36100828D01*
X46111653Y-36100828D02*
X46183081Y-36243685D01*
X46183081Y-36243685D02*
X46254510Y-36315114D01*
X46254510Y-36315114D02*
X46397367Y-36386542D01*
X46397367Y-36386542D02*
X46968796Y-36386542D01*
X45468796Y-36315114D02*
X44968796Y-36315114D01*
X44754510Y-37100828D02*
X45468796Y-37100828D01*
X45468796Y-37100828D02*
X45468796Y-35600828D01*
X45468796Y-35600828D02*
X44754510Y-35600828D01*
X44325938Y-35600828D02*
X43825938Y-37100828D01*
X43825938Y-37100828D02*
X43325938Y-35600828D01*
X42825939Y-36957971D02*
X42754510Y-37029400D01*
X42754510Y-37029400D02*
X42825939Y-37100828D01*
X42825939Y-37100828D02*
X42897367Y-37029400D01*
X42897367Y-37029400D02*
X42825939Y-36957971D01*
X42825939Y-36957971D02*
X42825939Y-37100828D01*
X40183081Y-37100828D02*
X41040224Y-37100828D01*
X40611653Y-37100828D02*
X40611653Y-35600828D01*
X40611653Y-35600828D02*
X40754510Y-35815114D01*
X40754510Y-35815114D02*
X40897367Y-35957971D01*
X40897367Y-35957971D02*
X41040224Y-36029400D01*
D11*
X158658304Y-86917291D02*
X158658304Y-86764910D01*
X158658304Y-86764910D02*
X158620209Y-86688720D01*
X158620209Y-86688720D02*
X158544019Y-86612529D01*
X158544019Y-86612529D02*
X158391638Y-86574434D01*
X158391638Y-86574434D02*
X158124971Y-86574434D01*
X158124971Y-86574434D02*
X157972590Y-86612529D01*
X157972590Y-86612529D02*
X157896400Y-86688720D01*
X157896400Y-86688720D02*
X157858304Y-86764910D01*
X157858304Y-86764910D02*
X157858304Y-86917291D01*
X157858304Y-86917291D02*
X157896400Y-86993482D01*
X157896400Y-86993482D02*
X157972590Y-87069672D01*
X157972590Y-87069672D02*
X158124971Y-87107768D01*
X158124971Y-87107768D02*
X158391638Y-87107768D01*
X158391638Y-87107768D02*
X158544019Y-87069672D01*
X158544019Y-87069672D02*
X158620209Y-86993482D01*
X158620209Y-86993482D02*
X158658304Y-86917291D01*
X158658304Y-86231577D02*
X158010685Y-86231577D01*
X158010685Y-86231577D02*
X157934495Y-86193482D01*
X157934495Y-86193482D02*
X157896400Y-86155387D01*
X157896400Y-86155387D02*
X157858304Y-86079196D01*
X157858304Y-86079196D02*
X157858304Y-85926815D01*
X157858304Y-85926815D02*
X157896400Y-85850625D01*
X157896400Y-85850625D02*
X157934495Y-85812530D01*
X157934495Y-85812530D02*
X158010685Y-85774434D01*
X158010685Y-85774434D02*
X158658304Y-85774434D01*
X158658304Y-85507768D02*
X158658304Y-85050625D01*
X157858304Y-85279197D02*
X158658304Y-85279197D01*
X158620209Y-83755387D02*
X158658304Y-83831577D01*
X158658304Y-83831577D02*
X158658304Y-83945863D01*
X158658304Y-83945863D02*
X158620209Y-84060149D01*
X158620209Y-84060149D02*
X158544019Y-84136339D01*
X158544019Y-84136339D02*
X158467828Y-84174434D01*
X158467828Y-84174434D02*
X158315447Y-84212530D01*
X158315447Y-84212530D02*
X158201161Y-84212530D01*
X158201161Y-84212530D02*
X158048780Y-84174434D01*
X158048780Y-84174434D02*
X157972590Y-84136339D01*
X157972590Y-84136339D02*
X157896400Y-84060149D01*
X157896400Y-84060149D02*
X157858304Y-83945863D01*
X157858304Y-83945863D02*
X157858304Y-83869672D01*
X157858304Y-83869672D02*
X157896400Y-83755387D01*
X157896400Y-83755387D02*
X157934495Y-83717291D01*
X157934495Y-83717291D02*
X158201161Y-83717291D01*
X158201161Y-83717291D02*
X158201161Y-83869672D01*
X157858304Y-83374434D02*
X158658304Y-83374434D01*
X158658304Y-83374434D02*
X157858304Y-82917291D01*
X157858304Y-82917291D02*
X158658304Y-82917291D01*
X157858304Y-82536339D02*
X158658304Y-82536339D01*
X158658304Y-82536339D02*
X158658304Y-82345863D01*
X158658304Y-82345863D02*
X158620209Y-82231577D01*
X158620209Y-82231577D02*
X158544019Y-82155387D01*
X158544019Y-82155387D02*
X158467828Y-82117292D01*
X158467828Y-82117292D02*
X158315447Y-82079196D01*
X158315447Y-82079196D02*
X158201161Y-82079196D01*
X158201161Y-82079196D02*
X158048780Y-82117292D01*
X158048780Y-82117292D02*
X157972590Y-82155387D01*
X157972590Y-82155387D02*
X157896400Y-82231577D01*
X157896400Y-82231577D02*
X157858304Y-82345863D01*
X157858304Y-82345863D02*
X157858304Y-82536339D01*
X158658304Y-81241101D02*
X157858304Y-80974434D01*
X157858304Y-80974434D02*
X158658304Y-80707768D01*
X157934495Y-79983958D02*
X157896400Y-80022054D01*
X157896400Y-80022054D02*
X157858304Y-80136339D01*
X157858304Y-80136339D02*
X157858304Y-80212530D01*
X157858304Y-80212530D02*
X157896400Y-80326816D01*
X157896400Y-80326816D02*
X157972590Y-80403006D01*
X157972590Y-80403006D02*
X158048780Y-80441101D01*
X158048780Y-80441101D02*
X158201161Y-80479197D01*
X158201161Y-80479197D02*
X158315447Y-80479197D01*
X158315447Y-80479197D02*
X158467828Y-80441101D01*
X158467828Y-80441101D02*
X158544019Y-80403006D01*
X158544019Y-80403006D02*
X158620209Y-80326816D01*
X158620209Y-80326816D02*
X158658304Y-80212530D01*
X158658304Y-80212530D02*
X158658304Y-80136339D01*
X158658304Y-80136339D02*
X158620209Y-80022054D01*
X158620209Y-80022054D02*
X158582114Y-79983958D01*
X157934495Y-79183958D02*
X157896400Y-79222054D01*
X157896400Y-79222054D02*
X157858304Y-79336339D01*
X157858304Y-79336339D02*
X157858304Y-79412530D01*
X157858304Y-79412530D02*
X157896400Y-79526816D01*
X157896400Y-79526816D02*
X157972590Y-79603006D01*
X157972590Y-79603006D02*
X158048780Y-79641101D01*
X158048780Y-79641101D02*
X158201161Y-79679197D01*
X158201161Y-79679197D02*
X158315447Y-79679197D01*
X158315447Y-79679197D02*
X158467828Y-79641101D01*
X158467828Y-79641101D02*
X158544019Y-79603006D01*
X158544019Y-79603006D02*
X158620209Y-79526816D01*
X158620209Y-79526816D02*
X158658304Y-79412530D01*
X158658304Y-79412530D02*
X158658304Y-79336339D01*
X158658304Y-79336339D02*
X158620209Y-79222054D01*
X158620209Y-79222054D02*
X158582114Y-79183958D01*
X93626814Y-33963123D02*
X93245861Y-33963123D01*
X93703004Y-34191695D02*
X93436337Y-33391695D01*
X93436337Y-33391695D02*
X93169671Y-34191695D01*
X92788719Y-33734552D02*
X92864909Y-33696457D01*
X92864909Y-33696457D02*
X92903004Y-33658361D01*
X92903004Y-33658361D02*
X92941100Y-33582171D01*
X92941100Y-33582171D02*
X92941100Y-33544076D01*
X92941100Y-33544076D02*
X92903004Y-33467885D01*
X92903004Y-33467885D02*
X92864909Y-33429790D01*
X92864909Y-33429790D02*
X92788719Y-33391695D01*
X92788719Y-33391695D02*
X92636338Y-33391695D01*
X92636338Y-33391695D02*
X92560147Y-33429790D01*
X92560147Y-33429790D02*
X92522052Y-33467885D01*
X92522052Y-33467885D02*
X92483957Y-33544076D01*
X92483957Y-33544076D02*
X92483957Y-33582171D01*
X92483957Y-33582171D02*
X92522052Y-33658361D01*
X92522052Y-33658361D02*
X92560147Y-33696457D01*
X92560147Y-33696457D02*
X92636338Y-33734552D01*
X92636338Y-33734552D02*
X92788719Y-33734552D01*
X92788719Y-33734552D02*
X92864909Y-33772647D01*
X92864909Y-33772647D02*
X92903004Y-33810742D01*
X92903004Y-33810742D02*
X92941100Y-33886933D01*
X92941100Y-33886933D02*
X92941100Y-34039314D01*
X92941100Y-34039314D02*
X92903004Y-34115504D01*
X92903004Y-34115504D02*
X92864909Y-34153600D01*
X92864909Y-34153600D02*
X92788719Y-34191695D01*
X92788719Y-34191695D02*
X92636338Y-34191695D01*
X92636338Y-34191695D02*
X92560147Y-34153600D01*
X92560147Y-34153600D02*
X92522052Y-34115504D01*
X92522052Y-34115504D02*
X92483957Y-34039314D01*
X92483957Y-34039314D02*
X92483957Y-33886933D01*
X92483957Y-33886933D02*
X92522052Y-33810742D01*
X92522052Y-33810742D02*
X92560147Y-33772647D01*
X92560147Y-33772647D02*
X92636338Y-33734552D01*
X95600284Y-33913123D02*
X95219331Y-33913123D01*
X95676474Y-34141695D02*
X95409807Y-33341695D01*
X95409807Y-33341695D02*
X95143141Y-34141695D01*
X94838379Y-34141695D02*
X94685998Y-34141695D01*
X94685998Y-34141695D02*
X94609808Y-34103600D01*
X94609808Y-34103600D02*
X94571712Y-34065504D01*
X94571712Y-34065504D02*
X94495522Y-33951219D01*
X94495522Y-33951219D02*
X94457427Y-33798838D01*
X94457427Y-33798838D02*
X94457427Y-33494076D01*
X94457427Y-33494076D02*
X94495522Y-33417885D01*
X94495522Y-33417885D02*
X94533617Y-33379790D01*
X94533617Y-33379790D02*
X94609808Y-33341695D01*
X94609808Y-33341695D02*
X94762189Y-33341695D01*
X94762189Y-33341695D02*
X94838379Y-33379790D01*
X94838379Y-33379790D02*
X94876474Y-33417885D01*
X94876474Y-33417885D02*
X94914570Y-33494076D01*
X94914570Y-33494076D02*
X94914570Y-33684552D01*
X94914570Y-33684552D02*
X94876474Y-33760742D01*
X94876474Y-33760742D02*
X94838379Y-33798838D01*
X94838379Y-33798838D02*
X94762189Y-33836933D01*
X94762189Y-33836933D02*
X94609808Y-33836933D01*
X94609808Y-33836933D02*
X94533617Y-33798838D01*
X94533617Y-33798838D02*
X94495522Y-33760742D01*
X94495522Y-33760742D02*
X94457427Y-33684552D01*
X57126812Y-49788650D02*
X57019063Y-49896399D01*
X57019063Y-49896399D02*
X56992125Y-49977211D01*
X56992125Y-49977211D02*
X56992125Y-50084961D01*
X56992125Y-50084961D02*
X57072938Y-50219648D01*
X57072938Y-50219648D02*
X57261499Y-50408210D01*
X57261499Y-50408210D02*
X57396186Y-50489022D01*
X57396186Y-50489022D02*
X57503936Y-50489022D01*
X57503936Y-50489022D02*
X57584748Y-50462085D01*
X57584748Y-50462085D02*
X57692498Y-50354335D01*
X57692498Y-50354335D02*
X57719435Y-50273523D01*
X57719435Y-50273523D02*
X57719435Y-50165773D01*
X57719435Y-50165773D02*
X57638623Y-50031086D01*
X57638623Y-50031086D02*
X57450061Y-49842524D01*
X57450061Y-49842524D02*
X57315374Y-49761712D01*
X57315374Y-49761712D02*
X57207625Y-49761712D01*
X57207625Y-49761712D02*
X57126812Y-49788650D01*
X56641939Y-50273523D02*
X57099875Y-50731458D01*
X57099875Y-50731458D02*
X57126813Y-50812271D01*
X57126813Y-50812271D02*
X57126813Y-50866145D01*
X57126813Y-50866145D02*
X57099875Y-50946958D01*
X57099875Y-50946958D02*
X56992126Y-51054707D01*
X56992126Y-51054707D02*
X56911313Y-51081645D01*
X56911313Y-51081645D02*
X56857439Y-51081645D01*
X56857439Y-51081645D02*
X56776626Y-51054707D01*
X56776626Y-51054707D02*
X56318691Y-50596771D01*
X56130129Y-50785333D02*
X55806880Y-51108582D01*
X56534190Y-51512643D02*
X55968505Y-50946958D01*
X54917946Y-52051391D02*
X54944883Y-51970579D01*
X54944883Y-51970579D02*
X55025695Y-51889767D01*
X55025695Y-51889767D02*
X55133445Y-51835892D01*
X55133445Y-51835892D02*
X55241194Y-51835892D01*
X55241194Y-51835892D02*
X55322007Y-51862829D01*
X55322007Y-51862829D02*
X55456694Y-51943642D01*
X55456694Y-51943642D02*
X55537506Y-52024454D01*
X55537506Y-52024454D02*
X55618318Y-52159141D01*
X55618318Y-52159141D02*
X55645255Y-52239953D01*
X55645255Y-52239953D02*
X55645255Y-52347703D01*
X55645255Y-52347703D02*
X55591381Y-52455452D01*
X55591381Y-52455452D02*
X55537506Y-52509327D01*
X55537506Y-52509327D02*
X55429756Y-52563202D01*
X55429756Y-52563202D02*
X55375881Y-52563202D01*
X55375881Y-52563202D02*
X55187320Y-52374640D01*
X55187320Y-52374640D02*
X55295069Y-52266890D01*
X55187320Y-52859513D02*
X54621634Y-52293828D01*
X54621634Y-52293828D02*
X54864071Y-53182762D01*
X54864071Y-53182762D02*
X54298385Y-52617077D01*
X54594697Y-53452136D02*
X54029012Y-52886451D01*
X54029012Y-52886451D02*
X53894325Y-53021138D01*
X53894325Y-53021138D02*
X53840450Y-53128887D01*
X53840450Y-53128887D02*
X53840450Y-53236637D01*
X53840450Y-53236637D02*
X53867387Y-53317449D01*
X53867387Y-53317449D02*
X53948199Y-53452136D01*
X53948199Y-53452136D02*
X54029012Y-53532948D01*
X54029012Y-53532948D02*
X54163699Y-53613760D01*
X54163699Y-53613760D02*
X54244511Y-53640698D01*
X54244511Y-53640698D02*
X54352260Y-53640698D01*
X54352260Y-53640698D02*
X54460010Y-53586823D01*
X54460010Y-53586823D02*
X54594697Y-53452136D01*
X53113140Y-53802322D02*
X53490263Y-54556570D01*
X53490263Y-54556570D02*
X52736016Y-54179446D01*
X52736016Y-55203067D02*
X52789891Y-55203067D01*
X52789891Y-55203067D02*
X52897641Y-55149192D01*
X52897641Y-55149192D02*
X52951516Y-55095317D01*
X52951516Y-55095317D02*
X53005390Y-54987568D01*
X53005390Y-54987568D02*
X53005390Y-54879818D01*
X53005390Y-54879818D02*
X52978453Y-54799006D01*
X52978453Y-54799006D02*
X52897641Y-54664319D01*
X52897641Y-54664319D02*
X52816829Y-54583507D01*
X52816829Y-54583507D02*
X52682142Y-54502695D01*
X52682142Y-54502695D02*
X52601329Y-54475757D01*
X52601329Y-54475757D02*
X52493580Y-54475757D01*
X52493580Y-54475757D02*
X52385830Y-54529632D01*
X52385830Y-54529632D02*
X52331955Y-54583507D01*
X52331955Y-54583507D02*
X52278081Y-54691256D01*
X52278081Y-54691256D02*
X52278081Y-54745131D01*
X52170331Y-55768752D02*
X52224206Y-55768752D01*
X52224206Y-55768752D02*
X52331955Y-55714878D01*
X52331955Y-55714878D02*
X52385830Y-55661003D01*
X52385830Y-55661003D02*
X52439705Y-55553253D01*
X52439705Y-55553253D02*
X52439705Y-55445504D01*
X52439705Y-55445504D02*
X52412768Y-55364691D01*
X52412768Y-55364691D02*
X52331955Y-55230004D01*
X52331955Y-55230004D02*
X52251143Y-55149192D01*
X52251143Y-55149192D02*
X52116456Y-55068380D01*
X52116456Y-55068380D02*
X52035644Y-55041443D01*
X52035644Y-55041443D02*
X51927894Y-55041443D01*
X51927894Y-55041443D02*
X51820145Y-55095317D01*
X51820145Y-55095317D02*
X51766270Y-55149192D01*
X51766270Y-55149192D02*
X51712395Y-55256942D01*
X51712395Y-55256942D02*
X51712395Y-55310817D01*
X109232708Y-168908304D02*
X109385089Y-168908304D01*
X109385089Y-168908304D02*
X109461279Y-168870209D01*
X109461279Y-168870209D02*
X109537470Y-168794019D01*
X109537470Y-168794019D02*
X109575565Y-168641638D01*
X109575565Y-168641638D02*
X109575565Y-168374971D01*
X109575565Y-168374971D02*
X109537470Y-168222590D01*
X109537470Y-168222590D02*
X109461279Y-168146400D01*
X109461279Y-168146400D02*
X109385089Y-168108304D01*
X109385089Y-168108304D02*
X109232708Y-168108304D01*
X109232708Y-168108304D02*
X109156517Y-168146400D01*
X109156517Y-168146400D02*
X109080327Y-168222590D01*
X109080327Y-168222590D02*
X109042231Y-168374971D01*
X109042231Y-168374971D02*
X109042231Y-168641638D01*
X109042231Y-168641638D02*
X109080327Y-168794019D01*
X109080327Y-168794019D02*
X109156517Y-168870209D01*
X109156517Y-168870209D02*
X109232708Y-168908304D01*
X109918422Y-168908304D02*
X109918422Y-168260685D01*
X109918422Y-168260685D02*
X109956517Y-168184495D01*
X109956517Y-168184495D02*
X109994612Y-168146400D01*
X109994612Y-168146400D02*
X110070803Y-168108304D01*
X110070803Y-168108304D02*
X110223184Y-168108304D01*
X110223184Y-168108304D02*
X110299374Y-168146400D01*
X110299374Y-168146400D02*
X110337469Y-168184495D01*
X110337469Y-168184495D02*
X110375565Y-168260685D01*
X110375565Y-168260685D02*
X110375565Y-168908304D01*
X110642231Y-168908304D02*
X111099374Y-168908304D01*
X110870802Y-168108304D02*
X110870802Y-168908304D01*
X112394612Y-168870209D02*
X112318422Y-168908304D01*
X112318422Y-168908304D02*
X112204136Y-168908304D01*
X112204136Y-168908304D02*
X112089850Y-168870209D01*
X112089850Y-168870209D02*
X112013660Y-168794019D01*
X112013660Y-168794019D02*
X111975565Y-168717828D01*
X111975565Y-168717828D02*
X111937469Y-168565447D01*
X111937469Y-168565447D02*
X111937469Y-168451161D01*
X111937469Y-168451161D02*
X111975565Y-168298780D01*
X111975565Y-168298780D02*
X112013660Y-168222590D01*
X112013660Y-168222590D02*
X112089850Y-168146400D01*
X112089850Y-168146400D02*
X112204136Y-168108304D01*
X112204136Y-168108304D02*
X112280327Y-168108304D01*
X112280327Y-168108304D02*
X112394612Y-168146400D01*
X112394612Y-168146400D02*
X112432708Y-168184495D01*
X112432708Y-168184495D02*
X112432708Y-168451161D01*
X112432708Y-168451161D02*
X112280327Y-168451161D01*
X112775565Y-168108304D02*
X112775565Y-168908304D01*
X112775565Y-168908304D02*
X113232708Y-168108304D01*
X113232708Y-168108304D02*
X113232708Y-168908304D01*
X113613660Y-168108304D02*
X113613660Y-168908304D01*
X113613660Y-168908304D02*
X113804136Y-168908304D01*
X113804136Y-168908304D02*
X113918422Y-168870209D01*
X113918422Y-168870209D02*
X113994612Y-168794019D01*
X113994612Y-168794019D02*
X114032707Y-168717828D01*
X114032707Y-168717828D02*
X114070803Y-168565447D01*
X114070803Y-168565447D02*
X114070803Y-168451161D01*
X114070803Y-168451161D02*
X114032707Y-168298780D01*
X114032707Y-168298780D02*
X113994612Y-168222590D01*
X113994612Y-168222590D02*
X113918422Y-168146400D01*
X113918422Y-168146400D02*
X113804136Y-168108304D01*
X113804136Y-168108304D02*
X113613660Y-168108304D01*
X114908898Y-168908304D02*
X115175565Y-168108304D01*
X115175565Y-168108304D02*
X115442231Y-168908304D01*
X116166041Y-168184495D02*
X116127945Y-168146400D01*
X116127945Y-168146400D02*
X116013660Y-168108304D01*
X116013660Y-168108304D02*
X115937469Y-168108304D01*
X115937469Y-168108304D02*
X115823183Y-168146400D01*
X115823183Y-168146400D02*
X115746993Y-168222590D01*
X115746993Y-168222590D02*
X115708898Y-168298780D01*
X115708898Y-168298780D02*
X115670802Y-168451161D01*
X115670802Y-168451161D02*
X115670802Y-168565447D01*
X115670802Y-168565447D02*
X115708898Y-168717828D01*
X115708898Y-168717828D02*
X115746993Y-168794019D01*
X115746993Y-168794019D02*
X115823183Y-168870209D01*
X115823183Y-168870209D02*
X115937469Y-168908304D01*
X115937469Y-168908304D02*
X116013660Y-168908304D01*
X116013660Y-168908304D02*
X116127945Y-168870209D01*
X116127945Y-168870209D02*
X116166041Y-168832114D01*
X116966041Y-168184495D02*
X116927945Y-168146400D01*
X116927945Y-168146400D02*
X116813660Y-168108304D01*
X116813660Y-168108304D02*
X116737469Y-168108304D01*
X116737469Y-168108304D02*
X116623183Y-168146400D01*
X116623183Y-168146400D02*
X116546993Y-168222590D01*
X116546993Y-168222590D02*
X116508898Y-168298780D01*
X116508898Y-168298780D02*
X116470802Y-168451161D01*
X116470802Y-168451161D02*
X116470802Y-168565447D01*
X116470802Y-168565447D02*
X116508898Y-168717828D01*
X116508898Y-168717828D02*
X116546993Y-168794019D01*
X116546993Y-168794019D02*
X116623183Y-168870209D01*
X116623183Y-168870209D02*
X116737469Y-168908304D01*
X116737469Y-168908304D02*
X116813660Y-168908304D01*
X116813660Y-168908304D02*
X116927945Y-168870209D01*
X116927945Y-168870209D02*
X116966041Y-168832114D01*
X115317291Y-47591695D02*
X115164910Y-47591695D01*
X115164910Y-47591695D02*
X115088720Y-47629790D01*
X115088720Y-47629790D02*
X115012529Y-47705980D01*
X115012529Y-47705980D02*
X114974434Y-47858361D01*
X114974434Y-47858361D02*
X114974434Y-48125028D01*
X114974434Y-48125028D02*
X115012529Y-48277409D01*
X115012529Y-48277409D02*
X115088720Y-48353600D01*
X115088720Y-48353600D02*
X115164910Y-48391695D01*
X115164910Y-48391695D02*
X115317291Y-48391695D01*
X115317291Y-48391695D02*
X115393482Y-48353600D01*
X115393482Y-48353600D02*
X115469672Y-48277409D01*
X115469672Y-48277409D02*
X115507768Y-48125028D01*
X115507768Y-48125028D02*
X115507768Y-47858361D01*
X115507768Y-47858361D02*
X115469672Y-47705980D01*
X115469672Y-47705980D02*
X115393482Y-47629790D01*
X115393482Y-47629790D02*
X115317291Y-47591695D01*
X114631577Y-47591695D02*
X114631577Y-48239314D01*
X114631577Y-48239314D02*
X114593482Y-48315504D01*
X114593482Y-48315504D02*
X114555387Y-48353600D01*
X114555387Y-48353600D02*
X114479196Y-48391695D01*
X114479196Y-48391695D02*
X114326815Y-48391695D01*
X114326815Y-48391695D02*
X114250625Y-48353600D01*
X114250625Y-48353600D02*
X114212530Y-48315504D01*
X114212530Y-48315504D02*
X114174434Y-48239314D01*
X114174434Y-48239314D02*
X114174434Y-47591695D01*
X113907768Y-47591695D02*
X113450625Y-47591695D01*
X113679197Y-48391695D02*
X113679197Y-47591695D01*
X112155387Y-47629790D02*
X112231577Y-47591695D01*
X112231577Y-47591695D02*
X112345863Y-47591695D01*
X112345863Y-47591695D02*
X112460149Y-47629790D01*
X112460149Y-47629790D02*
X112536339Y-47705980D01*
X112536339Y-47705980D02*
X112574434Y-47782171D01*
X112574434Y-47782171D02*
X112612530Y-47934552D01*
X112612530Y-47934552D02*
X112612530Y-48048838D01*
X112612530Y-48048838D02*
X112574434Y-48201219D01*
X112574434Y-48201219D02*
X112536339Y-48277409D01*
X112536339Y-48277409D02*
X112460149Y-48353600D01*
X112460149Y-48353600D02*
X112345863Y-48391695D01*
X112345863Y-48391695D02*
X112269672Y-48391695D01*
X112269672Y-48391695D02*
X112155387Y-48353600D01*
X112155387Y-48353600D02*
X112117291Y-48315504D01*
X112117291Y-48315504D02*
X112117291Y-48048838D01*
X112117291Y-48048838D02*
X112269672Y-48048838D01*
X111774434Y-48391695D02*
X111774434Y-47591695D01*
X111774434Y-47591695D02*
X111317291Y-48391695D01*
X111317291Y-48391695D02*
X111317291Y-47591695D01*
X110936339Y-48391695D02*
X110936339Y-47591695D01*
X110936339Y-47591695D02*
X110745863Y-47591695D01*
X110745863Y-47591695D02*
X110631577Y-47629790D01*
X110631577Y-47629790D02*
X110555387Y-47705980D01*
X110555387Y-47705980D02*
X110517292Y-47782171D01*
X110517292Y-47782171D02*
X110479196Y-47934552D01*
X110479196Y-47934552D02*
X110479196Y-48048838D01*
X110479196Y-48048838D02*
X110517292Y-48201219D01*
X110517292Y-48201219D02*
X110555387Y-48277409D01*
X110555387Y-48277409D02*
X110631577Y-48353600D01*
X110631577Y-48353600D02*
X110745863Y-48391695D01*
X110745863Y-48391695D02*
X110936339Y-48391695D01*
X109641101Y-47591695D02*
X109374434Y-48391695D01*
X109374434Y-48391695D02*
X109107768Y-47591695D01*
X108383958Y-48315504D02*
X108422054Y-48353600D01*
X108422054Y-48353600D02*
X108536339Y-48391695D01*
X108536339Y-48391695D02*
X108612530Y-48391695D01*
X108612530Y-48391695D02*
X108726816Y-48353600D01*
X108726816Y-48353600D02*
X108803006Y-48277409D01*
X108803006Y-48277409D02*
X108841101Y-48201219D01*
X108841101Y-48201219D02*
X108879197Y-48048838D01*
X108879197Y-48048838D02*
X108879197Y-47934552D01*
X108879197Y-47934552D02*
X108841101Y-47782171D01*
X108841101Y-47782171D02*
X108803006Y-47705980D01*
X108803006Y-47705980D02*
X108726816Y-47629790D01*
X108726816Y-47629790D02*
X108612530Y-47591695D01*
X108612530Y-47591695D02*
X108536339Y-47591695D01*
X108536339Y-47591695D02*
X108422054Y-47629790D01*
X108422054Y-47629790D02*
X108383958Y-47667885D01*
X107583958Y-48315504D02*
X107622054Y-48353600D01*
X107622054Y-48353600D02*
X107736339Y-48391695D01*
X107736339Y-48391695D02*
X107812530Y-48391695D01*
X107812530Y-48391695D02*
X107926816Y-48353600D01*
X107926816Y-48353600D02*
X108003006Y-48277409D01*
X108003006Y-48277409D02*
X108041101Y-48201219D01*
X108041101Y-48201219D02*
X108079197Y-48048838D01*
X108079197Y-48048838D02*
X108079197Y-47934552D01*
X108079197Y-47934552D02*
X108041101Y-47782171D01*
X108041101Y-47782171D02*
X108003006Y-47705980D01*
X108003006Y-47705980D02*
X107926816Y-47629790D01*
X107926816Y-47629790D02*
X107812530Y-47591695D01*
X107812530Y-47591695D02*
X107736339Y-47591695D01*
X107736339Y-47591695D02*
X107622054Y-47629790D01*
X107622054Y-47629790D02*
X107583958Y-47667885D01*
X79232708Y-168908304D02*
X79385089Y-168908304D01*
X79385089Y-168908304D02*
X79461279Y-168870209D01*
X79461279Y-168870209D02*
X79537470Y-168794019D01*
X79537470Y-168794019D02*
X79575565Y-168641638D01*
X79575565Y-168641638D02*
X79575565Y-168374971D01*
X79575565Y-168374971D02*
X79537470Y-168222590D01*
X79537470Y-168222590D02*
X79461279Y-168146400D01*
X79461279Y-168146400D02*
X79385089Y-168108304D01*
X79385089Y-168108304D02*
X79232708Y-168108304D01*
X79232708Y-168108304D02*
X79156517Y-168146400D01*
X79156517Y-168146400D02*
X79080327Y-168222590D01*
X79080327Y-168222590D02*
X79042231Y-168374971D01*
X79042231Y-168374971D02*
X79042231Y-168641638D01*
X79042231Y-168641638D02*
X79080327Y-168794019D01*
X79080327Y-168794019D02*
X79156517Y-168870209D01*
X79156517Y-168870209D02*
X79232708Y-168908304D01*
X79918422Y-168908304D02*
X79918422Y-168260685D01*
X79918422Y-168260685D02*
X79956517Y-168184495D01*
X79956517Y-168184495D02*
X79994612Y-168146400D01*
X79994612Y-168146400D02*
X80070803Y-168108304D01*
X80070803Y-168108304D02*
X80223184Y-168108304D01*
X80223184Y-168108304D02*
X80299374Y-168146400D01*
X80299374Y-168146400D02*
X80337469Y-168184495D01*
X80337469Y-168184495D02*
X80375565Y-168260685D01*
X80375565Y-168260685D02*
X80375565Y-168908304D01*
X80642231Y-168908304D02*
X81099374Y-168908304D01*
X80870802Y-168108304D02*
X80870802Y-168908304D01*
X82394612Y-168870209D02*
X82318422Y-168908304D01*
X82318422Y-168908304D02*
X82204136Y-168908304D01*
X82204136Y-168908304D02*
X82089850Y-168870209D01*
X82089850Y-168870209D02*
X82013660Y-168794019D01*
X82013660Y-168794019D02*
X81975565Y-168717828D01*
X81975565Y-168717828D02*
X81937469Y-168565447D01*
X81937469Y-168565447D02*
X81937469Y-168451161D01*
X81937469Y-168451161D02*
X81975565Y-168298780D01*
X81975565Y-168298780D02*
X82013660Y-168222590D01*
X82013660Y-168222590D02*
X82089850Y-168146400D01*
X82089850Y-168146400D02*
X82204136Y-168108304D01*
X82204136Y-168108304D02*
X82280327Y-168108304D01*
X82280327Y-168108304D02*
X82394612Y-168146400D01*
X82394612Y-168146400D02*
X82432708Y-168184495D01*
X82432708Y-168184495D02*
X82432708Y-168451161D01*
X82432708Y-168451161D02*
X82280327Y-168451161D01*
X82775565Y-168108304D02*
X82775565Y-168908304D01*
X82775565Y-168908304D02*
X83232708Y-168108304D01*
X83232708Y-168108304D02*
X83232708Y-168908304D01*
X83613660Y-168108304D02*
X83613660Y-168908304D01*
X83613660Y-168908304D02*
X83804136Y-168908304D01*
X83804136Y-168908304D02*
X83918422Y-168870209D01*
X83918422Y-168870209D02*
X83994612Y-168794019D01*
X83994612Y-168794019D02*
X84032707Y-168717828D01*
X84032707Y-168717828D02*
X84070803Y-168565447D01*
X84070803Y-168565447D02*
X84070803Y-168451161D01*
X84070803Y-168451161D02*
X84032707Y-168298780D01*
X84032707Y-168298780D02*
X83994612Y-168222590D01*
X83994612Y-168222590D02*
X83918422Y-168146400D01*
X83918422Y-168146400D02*
X83804136Y-168108304D01*
X83804136Y-168108304D02*
X83613660Y-168108304D01*
X84908898Y-168908304D02*
X85175565Y-168108304D01*
X85175565Y-168108304D02*
X85442231Y-168908304D01*
X86166041Y-168184495D02*
X86127945Y-168146400D01*
X86127945Y-168146400D02*
X86013660Y-168108304D01*
X86013660Y-168108304D02*
X85937469Y-168108304D01*
X85937469Y-168108304D02*
X85823183Y-168146400D01*
X85823183Y-168146400D02*
X85746993Y-168222590D01*
X85746993Y-168222590D02*
X85708898Y-168298780D01*
X85708898Y-168298780D02*
X85670802Y-168451161D01*
X85670802Y-168451161D02*
X85670802Y-168565447D01*
X85670802Y-168565447D02*
X85708898Y-168717828D01*
X85708898Y-168717828D02*
X85746993Y-168794019D01*
X85746993Y-168794019D02*
X85823183Y-168870209D01*
X85823183Y-168870209D02*
X85937469Y-168908304D01*
X85937469Y-168908304D02*
X86013660Y-168908304D01*
X86013660Y-168908304D02*
X86127945Y-168870209D01*
X86127945Y-168870209D02*
X86166041Y-168832114D01*
X86966041Y-168184495D02*
X86927945Y-168146400D01*
X86927945Y-168146400D02*
X86813660Y-168108304D01*
X86813660Y-168108304D02*
X86737469Y-168108304D01*
X86737469Y-168108304D02*
X86623183Y-168146400D01*
X86623183Y-168146400D02*
X86546993Y-168222590D01*
X86546993Y-168222590D02*
X86508898Y-168298780D01*
X86508898Y-168298780D02*
X86470802Y-168451161D01*
X86470802Y-168451161D02*
X86470802Y-168565447D01*
X86470802Y-168565447D02*
X86508898Y-168717828D01*
X86508898Y-168717828D02*
X86546993Y-168794019D01*
X86546993Y-168794019D02*
X86623183Y-168870209D01*
X86623183Y-168870209D02*
X86737469Y-168908304D01*
X86737469Y-168908304D02*
X86813660Y-168908304D01*
X86813660Y-168908304D02*
X86927945Y-168870209D01*
X86927945Y-168870209D02*
X86966041Y-168832114D01*
X144217291Y-47591695D02*
X144064910Y-47591695D01*
X144064910Y-47591695D02*
X143988720Y-47629790D01*
X143988720Y-47629790D02*
X143912529Y-47705980D01*
X143912529Y-47705980D02*
X143874434Y-47858361D01*
X143874434Y-47858361D02*
X143874434Y-48125028D01*
X143874434Y-48125028D02*
X143912529Y-48277409D01*
X143912529Y-48277409D02*
X143988720Y-48353600D01*
X143988720Y-48353600D02*
X144064910Y-48391695D01*
X144064910Y-48391695D02*
X144217291Y-48391695D01*
X144217291Y-48391695D02*
X144293482Y-48353600D01*
X144293482Y-48353600D02*
X144369672Y-48277409D01*
X144369672Y-48277409D02*
X144407768Y-48125028D01*
X144407768Y-48125028D02*
X144407768Y-47858361D01*
X144407768Y-47858361D02*
X144369672Y-47705980D01*
X144369672Y-47705980D02*
X144293482Y-47629790D01*
X144293482Y-47629790D02*
X144217291Y-47591695D01*
X143531577Y-47591695D02*
X143531577Y-48239314D01*
X143531577Y-48239314D02*
X143493482Y-48315504D01*
X143493482Y-48315504D02*
X143455387Y-48353600D01*
X143455387Y-48353600D02*
X143379196Y-48391695D01*
X143379196Y-48391695D02*
X143226815Y-48391695D01*
X143226815Y-48391695D02*
X143150625Y-48353600D01*
X143150625Y-48353600D02*
X143112530Y-48315504D01*
X143112530Y-48315504D02*
X143074434Y-48239314D01*
X143074434Y-48239314D02*
X143074434Y-47591695D01*
X142807768Y-47591695D02*
X142350625Y-47591695D01*
X142579197Y-48391695D02*
X142579197Y-47591695D01*
X141055387Y-47629790D02*
X141131577Y-47591695D01*
X141131577Y-47591695D02*
X141245863Y-47591695D01*
X141245863Y-47591695D02*
X141360149Y-47629790D01*
X141360149Y-47629790D02*
X141436339Y-47705980D01*
X141436339Y-47705980D02*
X141474434Y-47782171D01*
X141474434Y-47782171D02*
X141512530Y-47934552D01*
X141512530Y-47934552D02*
X141512530Y-48048838D01*
X141512530Y-48048838D02*
X141474434Y-48201219D01*
X141474434Y-48201219D02*
X141436339Y-48277409D01*
X141436339Y-48277409D02*
X141360149Y-48353600D01*
X141360149Y-48353600D02*
X141245863Y-48391695D01*
X141245863Y-48391695D02*
X141169672Y-48391695D01*
X141169672Y-48391695D02*
X141055387Y-48353600D01*
X141055387Y-48353600D02*
X141017291Y-48315504D01*
X141017291Y-48315504D02*
X141017291Y-48048838D01*
X141017291Y-48048838D02*
X141169672Y-48048838D01*
X140674434Y-48391695D02*
X140674434Y-47591695D01*
X140674434Y-47591695D02*
X140217291Y-48391695D01*
X140217291Y-48391695D02*
X140217291Y-47591695D01*
X139836339Y-48391695D02*
X139836339Y-47591695D01*
X139836339Y-47591695D02*
X139645863Y-47591695D01*
X139645863Y-47591695D02*
X139531577Y-47629790D01*
X139531577Y-47629790D02*
X139455387Y-47705980D01*
X139455387Y-47705980D02*
X139417292Y-47782171D01*
X139417292Y-47782171D02*
X139379196Y-47934552D01*
X139379196Y-47934552D02*
X139379196Y-48048838D01*
X139379196Y-48048838D02*
X139417292Y-48201219D01*
X139417292Y-48201219D02*
X139455387Y-48277409D01*
X139455387Y-48277409D02*
X139531577Y-48353600D01*
X139531577Y-48353600D02*
X139645863Y-48391695D01*
X139645863Y-48391695D02*
X139836339Y-48391695D01*
X138541101Y-47591695D02*
X138274434Y-48391695D01*
X138274434Y-48391695D02*
X138007768Y-47591695D01*
X137283958Y-48315504D02*
X137322054Y-48353600D01*
X137322054Y-48353600D02*
X137436339Y-48391695D01*
X137436339Y-48391695D02*
X137512530Y-48391695D01*
X137512530Y-48391695D02*
X137626816Y-48353600D01*
X137626816Y-48353600D02*
X137703006Y-48277409D01*
X137703006Y-48277409D02*
X137741101Y-48201219D01*
X137741101Y-48201219D02*
X137779197Y-48048838D01*
X137779197Y-48048838D02*
X137779197Y-47934552D01*
X137779197Y-47934552D02*
X137741101Y-47782171D01*
X137741101Y-47782171D02*
X137703006Y-47705980D01*
X137703006Y-47705980D02*
X137626816Y-47629790D01*
X137626816Y-47629790D02*
X137512530Y-47591695D01*
X137512530Y-47591695D02*
X137436339Y-47591695D01*
X137436339Y-47591695D02*
X137322054Y-47629790D01*
X137322054Y-47629790D02*
X137283958Y-47667885D01*
X136483958Y-48315504D02*
X136522054Y-48353600D01*
X136522054Y-48353600D02*
X136636339Y-48391695D01*
X136636339Y-48391695D02*
X136712530Y-48391695D01*
X136712530Y-48391695D02*
X136826816Y-48353600D01*
X136826816Y-48353600D02*
X136903006Y-48277409D01*
X136903006Y-48277409D02*
X136941101Y-48201219D01*
X136941101Y-48201219D02*
X136979197Y-48048838D01*
X136979197Y-48048838D02*
X136979197Y-47934552D01*
X136979197Y-47934552D02*
X136941101Y-47782171D01*
X136941101Y-47782171D02*
X136903006Y-47705980D01*
X136903006Y-47705980D02*
X136826816Y-47629790D01*
X136826816Y-47629790D02*
X136712530Y-47591695D01*
X136712530Y-47591695D02*
X136636339Y-47591695D01*
X136636339Y-47591695D02*
X136522054Y-47629790D01*
X136522054Y-47629790D02*
X136483958Y-47667885D01*
X50791695Y-80332708D02*
X50791695Y-80485089D01*
X50791695Y-80485089D02*
X50829790Y-80561279D01*
X50829790Y-80561279D02*
X50905980Y-80637470D01*
X50905980Y-80637470D02*
X51058361Y-80675565D01*
X51058361Y-80675565D02*
X51325028Y-80675565D01*
X51325028Y-80675565D02*
X51477409Y-80637470D01*
X51477409Y-80637470D02*
X51553600Y-80561279D01*
X51553600Y-80561279D02*
X51591695Y-80485089D01*
X51591695Y-80485089D02*
X51591695Y-80332708D01*
X51591695Y-80332708D02*
X51553600Y-80256517D01*
X51553600Y-80256517D02*
X51477409Y-80180327D01*
X51477409Y-80180327D02*
X51325028Y-80142231D01*
X51325028Y-80142231D02*
X51058361Y-80142231D01*
X51058361Y-80142231D02*
X50905980Y-80180327D01*
X50905980Y-80180327D02*
X50829790Y-80256517D01*
X50829790Y-80256517D02*
X50791695Y-80332708D01*
X50791695Y-81018422D02*
X51439314Y-81018422D01*
X51439314Y-81018422D02*
X51515504Y-81056517D01*
X51515504Y-81056517D02*
X51553600Y-81094612D01*
X51553600Y-81094612D02*
X51591695Y-81170803D01*
X51591695Y-81170803D02*
X51591695Y-81323184D01*
X51591695Y-81323184D02*
X51553600Y-81399374D01*
X51553600Y-81399374D02*
X51515504Y-81437469D01*
X51515504Y-81437469D02*
X51439314Y-81475565D01*
X51439314Y-81475565D02*
X50791695Y-81475565D01*
X50791695Y-81742231D02*
X50791695Y-82199374D01*
X51591695Y-81970802D02*
X50791695Y-81970802D01*
X50829790Y-83494612D02*
X50791695Y-83418422D01*
X50791695Y-83418422D02*
X50791695Y-83304136D01*
X50791695Y-83304136D02*
X50829790Y-83189850D01*
X50829790Y-83189850D02*
X50905980Y-83113660D01*
X50905980Y-83113660D02*
X50982171Y-83075565D01*
X50982171Y-83075565D02*
X51134552Y-83037469D01*
X51134552Y-83037469D02*
X51248838Y-83037469D01*
X51248838Y-83037469D02*
X51401219Y-83075565D01*
X51401219Y-83075565D02*
X51477409Y-83113660D01*
X51477409Y-83113660D02*
X51553600Y-83189850D01*
X51553600Y-83189850D02*
X51591695Y-83304136D01*
X51591695Y-83304136D02*
X51591695Y-83380327D01*
X51591695Y-83380327D02*
X51553600Y-83494612D01*
X51553600Y-83494612D02*
X51515504Y-83532708D01*
X51515504Y-83532708D02*
X51248838Y-83532708D01*
X51248838Y-83532708D02*
X51248838Y-83380327D01*
X51591695Y-83875565D02*
X50791695Y-83875565D01*
X50791695Y-83875565D02*
X51591695Y-84332708D01*
X51591695Y-84332708D02*
X50791695Y-84332708D01*
X51591695Y-84713660D02*
X50791695Y-84713660D01*
X50791695Y-84713660D02*
X50791695Y-84904136D01*
X50791695Y-84904136D02*
X50829790Y-85018422D01*
X50829790Y-85018422D02*
X50905980Y-85094612D01*
X50905980Y-85094612D02*
X50982171Y-85132707D01*
X50982171Y-85132707D02*
X51134552Y-85170803D01*
X51134552Y-85170803D02*
X51248838Y-85170803D01*
X51248838Y-85170803D02*
X51401219Y-85132707D01*
X51401219Y-85132707D02*
X51477409Y-85094612D01*
X51477409Y-85094612D02*
X51553600Y-85018422D01*
X51553600Y-85018422D02*
X51591695Y-84904136D01*
X51591695Y-84904136D02*
X51591695Y-84713660D01*
X50791695Y-86008898D02*
X51591695Y-86275565D01*
X51591695Y-86275565D02*
X50791695Y-86542231D01*
X51515504Y-87266041D02*
X51553600Y-87227945D01*
X51553600Y-87227945D02*
X51591695Y-87113660D01*
X51591695Y-87113660D02*
X51591695Y-87037469D01*
X51591695Y-87037469D02*
X51553600Y-86923183D01*
X51553600Y-86923183D02*
X51477409Y-86846993D01*
X51477409Y-86846993D02*
X51401219Y-86808898D01*
X51401219Y-86808898D02*
X51248838Y-86770802D01*
X51248838Y-86770802D02*
X51134552Y-86770802D01*
X51134552Y-86770802D02*
X50982171Y-86808898D01*
X50982171Y-86808898D02*
X50905980Y-86846993D01*
X50905980Y-86846993D02*
X50829790Y-86923183D01*
X50829790Y-86923183D02*
X50791695Y-87037469D01*
X50791695Y-87037469D02*
X50791695Y-87113660D01*
X50791695Y-87113660D02*
X50829790Y-87227945D01*
X50829790Y-87227945D02*
X50867885Y-87266041D01*
X51515504Y-88066041D02*
X51553600Y-88027945D01*
X51553600Y-88027945D02*
X51591695Y-87913660D01*
X51591695Y-87913660D02*
X51591695Y-87837469D01*
X51591695Y-87837469D02*
X51553600Y-87723183D01*
X51553600Y-87723183D02*
X51477409Y-87646993D01*
X51477409Y-87646993D02*
X51401219Y-87608898D01*
X51401219Y-87608898D02*
X51248838Y-87570802D01*
X51248838Y-87570802D02*
X51134552Y-87570802D01*
X51134552Y-87570802D02*
X50982171Y-87608898D01*
X50982171Y-87608898D02*
X50905980Y-87646993D01*
X50905980Y-87646993D02*
X50829790Y-87723183D01*
X50829790Y-87723183D02*
X50791695Y-87837469D01*
X50791695Y-87837469D02*
X50791695Y-87913660D01*
X50791695Y-87913660D02*
X50829790Y-88027945D01*
X50829790Y-88027945D02*
X50867885Y-88066041D01*
X109429536Y-33491695D02*
X109162869Y-34291695D01*
X109162869Y-34291695D02*
X108896203Y-33491695D01*
X108172393Y-34215504D02*
X108210489Y-34253600D01*
X108210489Y-34253600D02*
X108324774Y-34291695D01*
X108324774Y-34291695D02*
X108400965Y-34291695D01*
X108400965Y-34291695D02*
X108515251Y-34253600D01*
X108515251Y-34253600D02*
X108591441Y-34177409D01*
X108591441Y-34177409D02*
X108629536Y-34101219D01*
X108629536Y-34101219D02*
X108667632Y-33948838D01*
X108667632Y-33948838D02*
X108667632Y-33834552D01*
X108667632Y-33834552D02*
X108629536Y-33682171D01*
X108629536Y-33682171D02*
X108591441Y-33605980D01*
X108591441Y-33605980D02*
X108515251Y-33529790D01*
X108515251Y-33529790D02*
X108400965Y-33491695D01*
X108400965Y-33491695D02*
X108324774Y-33491695D01*
X108324774Y-33491695D02*
X108210489Y-33529790D01*
X108210489Y-33529790D02*
X108172393Y-33567885D01*
X107372393Y-34215504D02*
X107410489Y-34253600D01*
X107410489Y-34253600D02*
X107524774Y-34291695D01*
X107524774Y-34291695D02*
X107600965Y-34291695D01*
X107600965Y-34291695D02*
X107715251Y-34253600D01*
X107715251Y-34253600D02*
X107791441Y-34177409D01*
X107791441Y-34177409D02*
X107829536Y-34101219D01*
X107829536Y-34101219D02*
X107867632Y-33948838D01*
X107867632Y-33948838D02*
X107867632Y-33834552D01*
X107867632Y-33834552D02*
X107829536Y-33682171D01*
X107829536Y-33682171D02*
X107791441Y-33605980D01*
X107791441Y-33605980D02*
X107715251Y-33529790D01*
X107715251Y-33529790D02*
X107600965Y-33491695D01*
X107600965Y-33491695D02*
X107524774Y-33491695D01*
X107524774Y-33491695D02*
X107410489Y-33529790D01*
X107410489Y-33529790D02*
X107372393Y-33567885D01*
X98335658Y-33963123D02*
X97954705Y-33963123D01*
X98411848Y-34191695D02*
X98145181Y-33391695D01*
X98145181Y-33391695D02*
X97878515Y-34191695D01*
X97192801Y-34191695D02*
X97649944Y-34191695D01*
X97421372Y-34191695D02*
X97421372Y-33391695D01*
X97421372Y-33391695D02*
X97497563Y-33505980D01*
X97497563Y-33505980D02*
X97573753Y-33582171D01*
X97573753Y-33582171D02*
X97649944Y-33620266D01*
X96697562Y-33391695D02*
X96621372Y-33391695D01*
X96621372Y-33391695D02*
X96545181Y-33429790D01*
X96545181Y-33429790D02*
X96507086Y-33467885D01*
X96507086Y-33467885D02*
X96468991Y-33544076D01*
X96468991Y-33544076D02*
X96430896Y-33696457D01*
X96430896Y-33696457D02*
X96430896Y-33886933D01*
X96430896Y-33886933D02*
X96468991Y-34039314D01*
X96468991Y-34039314D02*
X96507086Y-34115504D01*
X96507086Y-34115504D02*
X96545181Y-34153600D01*
X96545181Y-34153600D02*
X96621372Y-34191695D01*
X96621372Y-34191695D02*
X96697562Y-34191695D01*
X96697562Y-34191695D02*
X96773753Y-34153600D01*
X96773753Y-34153600D02*
X96811848Y-34115504D01*
X96811848Y-34115504D02*
X96849943Y-34039314D01*
X96849943Y-34039314D02*
X96888039Y-33886933D01*
X96888039Y-33886933D02*
X96888039Y-33696457D01*
X96888039Y-33696457D02*
X96849943Y-33544076D01*
X96849943Y-33544076D02*
X96811848Y-33467885D01*
X96811848Y-33467885D02*
X96773753Y-33429790D01*
X96773753Y-33429790D02*
X96697562Y-33391695D01*
D12*
X84649999Y-43704819D02*
X84649999Y-42704819D01*
X84649999Y-43181009D02*
X84078571Y-43181009D01*
X84078571Y-43704819D02*
X84078571Y-42704819D01*
X83649999Y-43419104D02*
X83173809Y-43419104D01*
X83745237Y-43704819D02*
X83411904Y-42704819D01*
X83411904Y-42704819D02*
X83078571Y-43704819D01*
X82269047Y-43704819D02*
X82745237Y-43704819D01*
X82745237Y-43704819D02*
X82745237Y-42704819D01*
X81459523Y-43704819D02*
X81935713Y-43704819D01*
X81935713Y-43704819D02*
X81935713Y-42704819D01*
X81078570Y-43704819D02*
X80888094Y-43704819D01*
X80888094Y-43704819D02*
X80792856Y-43657200D01*
X80792856Y-43657200D02*
X80745237Y-43609580D01*
X80745237Y-43609580D02*
X80649999Y-43466723D01*
X80649999Y-43466723D02*
X80602380Y-43276247D01*
X80602380Y-43276247D02*
X80602380Y-42895295D01*
X80602380Y-42895295D02*
X80649999Y-42800057D01*
X80649999Y-42800057D02*
X80697618Y-42752438D01*
X80697618Y-42752438D02*
X80792856Y-42704819D01*
X80792856Y-42704819D02*
X80983332Y-42704819D01*
X80983332Y-42704819D02*
X81078570Y-42752438D01*
X81078570Y-42752438D02*
X81126189Y-42800057D01*
X81126189Y-42800057D02*
X81173808Y-42895295D01*
X81173808Y-42895295D02*
X81173808Y-43133390D01*
X81173808Y-43133390D02*
X81126189Y-43228628D01*
X81126189Y-43228628D02*
X81078570Y-43276247D01*
X81078570Y-43276247D02*
X80983332Y-43323866D01*
X80983332Y-43323866D02*
X80792856Y-43323866D01*
X80792856Y-43323866D02*
X80697618Y-43276247D01*
X80697618Y-43276247D02*
X80649999Y-43228628D01*
X80649999Y-43228628D02*
X80602380Y-43133390D01*
D11*
X103806407Y-33963123D02*
X103425454Y-33963123D01*
X103882597Y-34191695D02*
X103615930Y-33391695D01*
X103615930Y-33391695D02*
X103349264Y-34191695D01*
X102663550Y-34191695D02*
X103120693Y-34191695D01*
X102892121Y-34191695D02*
X102892121Y-33391695D01*
X102892121Y-33391695D02*
X102968312Y-33505980D01*
X102968312Y-33505980D02*
X103044502Y-33582171D01*
X103044502Y-33582171D02*
X103120693Y-33620266D01*
X102358788Y-33467885D02*
X102320692Y-33429790D01*
X102320692Y-33429790D02*
X102244502Y-33391695D01*
X102244502Y-33391695D02*
X102054026Y-33391695D01*
X102054026Y-33391695D02*
X101977835Y-33429790D01*
X101977835Y-33429790D02*
X101939740Y-33467885D01*
X101939740Y-33467885D02*
X101901645Y-33544076D01*
X101901645Y-33544076D02*
X101901645Y-33620266D01*
X101901645Y-33620266D02*
X101939740Y-33734552D01*
X101939740Y-33734552D02*
X102396883Y-34191695D01*
X102396883Y-34191695D02*
X101901645Y-34191695D01*
X111860149Y-33479790D02*
X111936339Y-33441695D01*
X111936339Y-33441695D02*
X112050625Y-33441695D01*
X112050625Y-33441695D02*
X112164911Y-33479790D01*
X112164911Y-33479790D02*
X112241101Y-33555980D01*
X112241101Y-33555980D02*
X112279196Y-33632171D01*
X112279196Y-33632171D02*
X112317292Y-33784552D01*
X112317292Y-33784552D02*
X112317292Y-33898838D01*
X112317292Y-33898838D02*
X112279196Y-34051219D01*
X112279196Y-34051219D02*
X112241101Y-34127409D01*
X112241101Y-34127409D02*
X112164911Y-34203600D01*
X112164911Y-34203600D02*
X112050625Y-34241695D01*
X112050625Y-34241695D02*
X111974434Y-34241695D01*
X111974434Y-34241695D02*
X111860149Y-34203600D01*
X111860149Y-34203600D02*
X111822053Y-34165504D01*
X111822053Y-34165504D02*
X111822053Y-33898838D01*
X111822053Y-33898838D02*
X111974434Y-33898838D01*
X111479196Y-34241695D02*
X111479196Y-33441695D01*
X111479196Y-33441695D02*
X111022053Y-34241695D01*
X111022053Y-34241695D02*
X111022053Y-33441695D01*
X110641101Y-34241695D02*
X110641101Y-33441695D01*
X110641101Y-33441695D02*
X110450625Y-33441695D01*
X110450625Y-33441695D02*
X110336339Y-33479790D01*
X110336339Y-33479790D02*
X110260149Y-33555980D01*
X110260149Y-33555980D02*
X110222054Y-33632171D01*
X110222054Y-33632171D02*
X110183958Y-33784552D01*
X110183958Y-33784552D02*
X110183958Y-33898838D01*
X110183958Y-33898838D02*
X110222054Y-34051219D01*
X110222054Y-34051219D02*
X110260149Y-34127409D01*
X110260149Y-34127409D02*
X110336339Y-34203600D01*
X110336339Y-34203600D02*
X110450625Y-34241695D01*
X110450625Y-34241695D02*
X110641101Y-34241695D01*
X86517291Y-47591695D02*
X86364910Y-47591695D01*
X86364910Y-47591695D02*
X86288720Y-47629790D01*
X86288720Y-47629790D02*
X86212529Y-47705980D01*
X86212529Y-47705980D02*
X86174434Y-47858361D01*
X86174434Y-47858361D02*
X86174434Y-48125028D01*
X86174434Y-48125028D02*
X86212529Y-48277409D01*
X86212529Y-48277409D02*
X86288720Y-48353600D01*
X86288720Y-48353600D02*
X86364910Y-48391695D01*
X86364910Y-48391695D02*
X86517291Y-48391695D01*
X86517291Y-48391695D02*
X86593482Y-48353600D01*
X86593482Y-48353600D02*
X86669672Y-48277409D01*
X86669672Y-48277409D02*
X86707768Y-48125028D01*
X86707768Y-48125028D02*
X86707768Y-47858361D01*
X86707768Y-47858361D02*
X86669672Y-47705980D01*
X86669672Y-47705980D02*
X86593482Y-47629790D01*
X86593482Y-47629790D02*
X86517291Y-47591695D01*
X85831577Y-47591695D02*
X85831577Y-48239314D01*
X85831577Y-48239314D02*
X85793482Y-48315504D01*
X85793482Y-48315504D02*
X85755387Y-48353600D01*
X85755387Y-48353600D02*
X85679196Y-48391695D01*
X85679196Y-48391695D02*
X85526815Y-48391695D01*
X85526815Y-48391695D02*
X85450625Y-48353600D01*
X85450625Y-48353600D02*
X85412530Y-48315504D01*
X85412530Y-48315504D02*
X85374434Y-48239314D01*
X85374434Y-48239314D02*
X85374434Y-47591695D01*
X85107768Y-47591695D02*
X84650625Y-47591695D01*
X84879197Y-48391695D02*
X84879197Y-47591695D01*
X83355387Y-47629790D02*
X83431577Y-47591695D01*
X83431577Y-47591695D02*
X83545863Y-47591695D01*
X83545863Y-47591695D02*
X83660149Y-47629790D01*
X83660149Y-47629790D02*
X83736339Y-47705980D01*
X83736339Y-47705980D02*
X83774434Y-47782171D01*
X83774434Y-47782171D02*
X83812530Y-47934552D01*
X83812530Y-47934552D02*
X83812530Y-48048838D01*
X83812530Y-48048838D02*
X83774434Y-48201219D01*
X83774434Y-48201219D02*
X83736339Y-48277409D01*
X83736339Y-48277409D02*
X83660149Y-48353600D01*
X83660149Y-48353600D02*
X83545863Y-48391695D01*
X83545863Y-48391695D02*
X83469672Y-48391695D01*
X83469672Y-48391695D02*
X83355387Y-48353600D01*
X83355387Y-48353600D02*
X83317291Y-48315504D01*
X83317291Y-48315504D02*
X83317291Y-48048838D01*
X83317291Y-48048838D02*
X83469672Y-48048838D01*
X82974434Y-48391695D02*
X82974434Y-47591695D01*
X82974434Y-47591695D02*
X82517291Y-48391695D01*
X82517291Y-48391695D02*
X82517291Y-47591695D01*
X82136339Y-48391695D02*
X82136339Y-47591695D01*
X82136339Y-47591695D02*
X81945863Y-47591695D01*
X81945863Y-47591695D02*
X81831577Y-47629790D01*
X81831577Y-47629790D02*
X81755387Y-47705980D01*
X81755387Y-47705980D02*
X81717292Y-47782171D01*
X81717292Y-47782171D02*
X81679196Y-47934552D01*
X81679196Y-47934552D02*
X81679196Y-48048838D01*
X81679196Y-48048838D02*
X81717292Y-48201219D01*
X81717292Y-48201219D02*
X81755387Y-48277409D01*
X81755387Y-48277409D02*
X81831577Y-48353600D01*
X81831577Y-48353600D02*
X81945863Y-48391695D01*
X81945863Y-48391695D02*
X82136339Y-48391695D01*
X80841101Y-47591695D02*
X80574434Y-48391695D01*
X80574434Y-48391695D02*
X80307768Y-47591695D01*
X79583958Y-48315504D02*
X79622054Y-48353600D01*
X79622054Y-48353600D02*
X79736339Y-48391695D01*
X79736339Y-48391695D02*
X79812530Y-48391695D01*
X79812530Y-48391695D02*
X79926816Y-48353600D01*
X79926816Y-48353600D02*
X80003006Y-48277409D01*
X80003006Y-48277409D02*
X80041101Y-48201219D01*
X80041101Y-48201219D02*
X80079197Y-48048838D01*
X80079197Y-48048838D02*
X80079197Y-47934552D01*
X80079197Y-47934552D02*
X80041101Y-47782171D01*
X80041101Y-47782171D02*
X80003006Y-47705980D01*
X80003006Y-47705980D02*
X79926816Y-47629790D01*
X79926816Y-47629790D02*
X79812530Y-47591695D01*
X79812530Y-47591695D02*
X79736339Y-47591695D01*
X79736339Y-47591695D02*
X79622054Y-47629790D01*
X79622054Y-47629790D02*
X79583958Y-47667885D01*
X78783958Y-48315504D02*
X78822054Y-48353600D01*
X78822054Y-48353600D02*
X78936339Y-48391695D01*
X78936339Y-48391695D02*
X79012530Y-48391695D01*
X79012530Y-48391695D02*
X79126816Y-48353600D01*
X79126816Y-48353600D02*
X79203006Y-48277409D01*
X79203006Y-48277409D02*
X79241101Y-48201219D01*
X79241101Y-48201219D02*
X79279197Y-48048838D01*
X79279197Y-48048838D02*
X79279197Y-47934552D01*
X79279197Y-47934552D02*
X79241101Y-47782171D01*
X79241101Y-47782171D02*
X79203006Y-47705980D01*
X79203006Y-47705980D02*
X79126816Y-47629790D01*
X79126816Y-47629790D02*
X79012530Y-47591695D01*
X79012530Y-47591695D02*
X78936339Y-47591695D01*
X78936339Y-47591695D02*
X78822054Y-47629790D01*
X78822054Y-47629790D02*
X78783958Y-47667885D01*
X106541782Y-33963123D02*
X106160829Y-33963123D01*
X106617972Y-34191695D02*
X106351305Y-33391695D01*
X106351305Y-33391695D02*
X106084639Y-34191695D01*
X105398925Y-34191695D02*
X105856068Y-34191695D01*
X105627496Y-34191695D02*
X105627496Y-33391695D01*
X105627496Y-33391695D02*
X105703687Y-33505980D01*
X105703687Y-33505980D02*
X105779877Y-33582171D01*
X105779877Y-33582171D02*
X105856068Y-33620266D01*
X105132258Y-33391695D02*
X104637020Y-33391695D01*
X104637020Y-33391695D02*
X104903686Y-33696457D01*
X104903686Y-33696457D02*
X104789401Y-33696457D01*
X104789401Y-33696457D02*
X104713210Y-33734552D01*
X104713210Y-33734552D02*
X104675115Y-33772647D01*
X104675115Y-33772647D02*
X104637020Y-33848838D01*
X104637020Y-33848838D02*
X104637020Y-34039314D01*
X104637020Y-34039314D02*
X104675115Y-34115504D01*
X104675115Y-34115504D02*
X104713210Y-34153600D01*
X104713210Y-34153600D02*
X104789401Y-34191695D01*
X104789401Y-34191695D02*
X105017972Y-34191695D01*
X105017972Y-34191695D02*
X105094163Y-34153600D01*
X105094163Y-34153600D02*
X105132258Y-34115504D01*
X101071033Y-33963123D02*
X100690080Y-33963123D01*
X101147223Y-34191695D02*
X100880556Y-33391695D01*
X100880556Y-33391695D02*
X100613890Y-34191695D01*
X99928176Y-34191695D02*
X100385319Y-34191695D01*
X100156747Y-34191695D02*
X100156747Y-33391695D01*
X100156747Y-33391695D02*
X100232938Y-33505980D01*
X100232938Y-33505980D02*
X100309128Y-33582171D01*
X100309128Y-33582171D02*
X100385319Y-33620266D01*
X99166271Y-34191695D02*
X99623414Y-34191695D01*
X99394842Y-34191695D02*
X99394842Y-33391695D01*
X99394842Y-33391695D02*
X99471033Y-33505980D01*
X99471033Y-33505980D02*
X99547223Y-33582171D01*
X99547223Y-33582171D02*
X99623414Y-33620266D01*
D12*
X163464268Y-79843214D02*
X162464268Y-79843214D01*
X162940458Y-79843214D02*
X162940458Y-80414642D01*
X163464268Y-80414642D02*
X162464268Y-80414642D01*
X163178553Y-80843214D02*
X163178553Y-81319404D01*
X163464268Y-80747976D02*
X162464268Y-81081309D01*
X162464268Y-81081309D02*
X163464268Y-81414642D01*
X163464268Y-82224166D02*
X163464268Y-81747976D01*
X163464268Y-81747976D02*
X162464268Y-81747976D01*
X163464268Y-83033690D02*
X163464268Y-82557500D01*
X163464268Y-82557500D02*
X162464268Y-82557500D01*
X163464268Y-83890833D02*
X163464268Y-83319405D01*
X163464268Y-83605119D02*
X162464268Y-83605119D01*
X162464268Y-83605119D02*
X162607125Y-83509881D01*
X162607125Y-83509881D02*
X162702363Y-83414643D01*
X162702363Y-83414643D02*
X162749982Y-83319405D01*
X163464268Y-84843214D02*
X163464268Y-84271786D01*
X163464268Y-84557500D02*
X162464268Y-84557500D01*
X162464268Y-84557500D02*
X162607125Y-84462262D01*
X162607125Y-84462262D02*
X162702363Y-84367024D01*
X162702363Y-84367024D02*
X162749982Y-84271786D01*
X163559506Y-85033691D02*
X163559506Y-85795595D01*
X163464268Y-86557500D02*
X163464268Y-85986072D01*
X163464268Y-86271786D02*
X162464268Y-86271786D01*
X162464268Y-86271786D02*
X162607125Y-86176548D01*
X162607125Y-86176548D02*
X162702363Y-86081310D01*
X162702363Y-86081310D02*
X162749982Y-85986072D01*
X85426190Y-173704819D02*
X85426190Y-172704819D01*
X85426190Y-173181009D02*
X84854762Y-173181009D01*
X84854762Y-173704819D02*
X84854762Y-172704819D01*
X84426190Y-173419104D02*
X83950000Y-173419104D01*
X84521428Y-173704819D02*
X84188095Y-172704819D01*
X84188095Y-172704819D02*
X83854762Y-173704819D01*
X83045238Y-173704819D02*
X83521428Y-173704819D01*
X83521428Y-173704819D02*
X83521428Y-172704819D01*
X82235714Y-173704819D02*
X82711904Y-173704819D01*
X82711904Y-173704819D02*
X82711904Y-172704819D01*
X81378571Y-173704819D02*
X81949999Y-173704819D01*
X81664285Y-173704819D02*
X81664285Y-172704819D01*
X81664285Y-172704819D02*
X81759523Y-172847676D01*
X81759523Y-172847676D02*
X81854761Y-172942914D01*
X81854761Y-172942914D02*
X81949999Y-172990533D01*
X81045237Y-172704819D02*
X80426190Y-172704819D01*
X80426190Y-172704819D02*
X80759523Y-173085771D01*
X80759523Y-173085771D02*
X80616666Y-173085771D01*
X80616666Y-173085771D02*
X80521428Y-173133390D01*
X80521428Y-173133390D02*
X80473809Y-173181009D01*
X80473809Y-173181009D02*
X80426190Y-173276247D01*
X80426190Y-173276247D02*
X80426190Y-173514342D01*
X80426190Y-173514342D02*
X80473809Y-173609580D01*
X80473809Y-173609580D02*
X80521428Y-173657200D01*
X80521428Y-173657200D02*
X80616666Y-173704819D01*
X80616666Y-173704819D02*
X80902380Y-173704819D01*
X80902380Y-173704819D02*
X80997618Y-173657200D01*
X80997618Y-173657200D02*
X81045237Y-173609580D01*
X143783333Y-43704819D02*
X143783333Y-42704819D01*
X143783333Y-43181009D02*
X143211905Y-43181009D01*
X143211905Y-43704819D02*
X143211905Y-42704819D01*
X142783333Y-43419104D02*
X142307143Y-43419104D01*
X142878571Y-43704819D02*
X142545238Y-42704819D01*
X142545238Y-42704819D02*
X142211905Y-43704819D01*
X141402381Y-43704819D02*
X141878571Y-43704819D01*
X141878571Y-43704819D02*
X141878571Y-42704819D01*
X140592857Y-43704819D02*
X141069047Y-43704819D01*
X141069047Y-43704819D02*
X141069047Y-42704819D01*
X139735714Y-43704819D02*
X140307142Y-43704819D01*
X140021428Y-43704819D02*
X140021428Y-42704819D01*
X140021428Y-42704819D02*
X140116666Y-42847676D01*
X140116666Y-42847676D02*
X140211904Y-42942914D01*
X140211904Y-42942914D02*
X140307142Y-42990533D01*
X138783333Y-43704819D02*
X139354761Y-43704819D01*
X139069047Y-43704819D02*
X139069047Y-42704819D01*
X139069047Y-42704819D02*
X139164285Y-42847676D01*
X139164285Y-42847676D02*
X139259523Y-42942914D01*
X139259523Y-42942914D02*
X139354761Y-42990533D01*
X138592857Y-43800057D02*
X137830952Y-43800057D01*
X137402380Y-42704819D02*
X137307142Y-42704819D01*
X137307142Y-42704819D02*
X137211904Y-42752438D01*
X137211904Y-42752438D02*
X137164285Y-42800057D01*
X137164285Y-42800057D02*
X137116666Y-42895295D01*
X137116666Y-42895295D02*
X137069047Y-43085771D01*
X137069047Y-43085771D02*
X137069047Y-43323866D01*
X137069047Y-43323866D02*
X137116666Y-43514342D01*
X137116666Y-43514342D02*
X137164285Y-43609580D01*
X137164285Y-43609580D02*
X137211904Y-43657200D01*
X137211904Y-43657200D02*
X137307142Y-43704819D01*
X137307142Y-43704819D02*
X137402380Y-43704819D01*
X137402380Y-43704819D02*
X137497618Y-43657200D01*
X137497618Y-43657200D02*
X137545237Y-43609580D01*
X137545237Y-43609580D02*
X137592856Y-43514342D01*
X137592856Y-43514342D02*
X137640475Y-43323866D01*
X137640475Y-43323866D02*
X137640475Y-43085771D01*
X137640475Y-43085771D02*
X137592856Y-42895295D01*
X137592856Y-42895295D02*
X137545237Y-42800057D01*
X137545237Y-42800057D02*
X137497618Y-42752438D01*
X137497618Y-42752438D02*
X137402380Y-42704819D01*
X114336190Y-43554819D02*
X114336190Y-42554819D01*
X114336190Y-43031009D02*
X113764762Y-43031009D01*
X113764762Y-43554819D02*
X113764762Y-42554819D01*
X113336190Y-43269104D02*
X112860000Y-43269104D01*
X113431428Y-43554819D02*
X113098095Y-42554819D01*
X113098095Y-42554819D02*
X112764762Y-43554819D01*
X111955238Y-43554819D02*
X112431428Y-43554819D01*
X112431428Y-43554819D02*
X112431428Y-42554819D01*
X111145714Y-43554819D02*
X111621904Y-43554819D01*
X111621904Y-43554819D02*
X111621904Y-42554819D01*
X110288571Y-43554819D02*
X110859999Y-43554819D01*
X110574285Y-43554819D02*
X110574285Y-42554819D01*
X110574285Y-42554819D02*
X110669523Y-42697676D01*
X110669523Y-42697676D02*
X110764761Y-42792914D01*
X110764761Y-42792914D02*
X110859999Y-42840533D01*
X109669523Y-42554819D02*
X109574285Y-42554819D01*
X109574285Y-42554819D02*
X109479047Y-42602438D01*
X109479047Y-42602438D02*
X109431428Y-42650057D01*
X109431428Y-42650057D02*
X109383809Y-42745295D01*
X109383809Y-42745295D02*
X109336190Y-42935771D01*
X109336190Y-42935771D02*
X109336190Y-43173866D01*
X109336190Y-43173866D02*
X109383809Y-43364342D01*
X109383809Y-43364342D02*
X109431428Y-43459580D01*
X109431428Y-43459580D02*
X109479047Y-43507200D01*
X109479047Y-43507200D02*
X109574285Y-43554819D01*
X109574285Y-43554819D02*
X109669523Y-43554819D01*
X109669523Y-43554819D02*
X109764761Y-43507200D01*
X109764761Y-43507200D02*
X109812380Y-43459580D01*
X109812380Y-43459580D02*
X109859999Y-43364342D01*
X109859999Y-43364342D02*
X109907618Y-43173866D01*
X109907618Y-43173866D02*
X109907618Y-42935771D01*
X109907618Y-42935771D02*
X109859999Y-42745295D01*
X109859999Y-42745295D02*
X109812380Y-42650057D01*
X109812380Y-42650057D02*
X109764761Y-42602438D01*
X109764761Y-42602438D02*
X109669523Y-42554819D01*
X53805308Y-47628365D02*
X53098201Y-46921258D01*
X53434919Y-47257976D02*
X53030858Y-47662037D01*
X53401247Y-48032426D02*
X52694140Y-47325319D01*
X52896171Y-48133441D02*
X52559453Y-48470159D01*
X53165545Y-48268128D02*
X52222736Y-47796724D01*
X52222736Y-47796724D02*
X52694140Y-48739533D01*
X52121721Y-49311953D02*
X52458438Y-48975235D01*
X52458438Y-48975235D02*
X51751331Y-48268128D01*
X51549301Y-49884373D02*
X51886018Y-49547655D01*
X51886018Y-49547655D02*
X51178911Y-48840548D01*
X50808522Y-49817029D02*
X50842194Y-49716014D01*
X50842194Y-49716014D02*
X50842194Y-49648671D01*
X50842194Y-49648671D02*
X50808522Y-49547655D01*
X50808522Y-49547655D02*
X50774850Y-49513984D01*
X50774850Y-49513984D02*
X50673835Y-49480312D01*
X50673835Y-49480312D02*
X50606491Y-49480312D01*
X50606491Y-49480312D02*
X50505476Y-49513984D01*
X50505476Y-49513984D02*
X50370789Y-49648671D01*
X50370789Y-49648671D02*
X50337117Y-49749686D01*
X50337117Y-49749686D02*
X50337117Y-49817029D01*
X50337117Y-49817029D02*
X50370789Y-49918045D01*
X50370789Y-49918045D02*
X50404461Y-49951716D01*
X50404461Y-49951716D02*
X50505476Y-49985388D01*
X50505476Y-49985388D02*
X50572820Y-49985388D01*
X50572820Y-49985388D02*
X50673835Y-49951716D01*
X50673835Y-49951716D02*
X50808522Y-49817029D01*
X50808522Y-49817029D02*
X50909537Y-49783358D01*
X50909537Y-49783358D02*
X50976881Y-49783358D01*
X50976881Y-49783358D02*
X51077896Y-49817029D01*
X51077896Y-49817029D02*
X51212583Y-49951716D01*
X51212583Y-49951716D02*
X51246255Y-50052732D01*
X51246255Y-50052732D02*
X51246255Y-50120075D01*
X51246255Y-50120075D02*
X51212583Y-50221090D01*
X51212583Y-50221090D02*
X51077896Y-50355777D01*
X51077896Y-50355777D02*
X50976881Y-50389449D01*
X50976881Y-50389449D02*
X50909537Y-50389449D01*
X50909537Y-50389449D02*
X50808522Y-50355777D01*
X50808522Y-50355777D02*
X50673835Y-50221090D01*
X50673835Y-50221090D02*
X50640163Y-50120075D01*
X50640163Y-50120075D02*
X50640163Y-50052732D01*
X50640163Y-50052732D02*
X50673835Y-49951716D01*
X50875865Y-50692495D02*
X50337117Y-51231243D01*
X49731026Y-51702648D02*
X50135087Y-51298587D01*
X49933056Y-51500617D02*
X49225949Y-50793510D01*
X49225949Y-50793510D02*
X49394308Y-50827182D01*
X49394308Y-50827182D02*
X49528995Y-50827182D01*
X49528995Y-50827182D02*
X49630010Y-50793510D01*
X46904819Y-81192857D02*
X45904819Y-81192857D01*
X46381009Y-81192857D02*
X46381009Y-81764285D01*
X46904819Y-81764285D02*
X45904819Y-81764285D01*
X46619104Y-82192857D02*
X46619104Y-82669047D01*
X46904819Y-82097619D02*
X45904819Y-82430952D01*
X45904819Y-82430952D02*
X46904819Y-82764285D01*
X46904819Y-83573809D02*
X46904819Y-83097619D01*
X46904819Y-83097619D02*
X45904819Y-83097619D01*
X46904819Y-84383333D02*
X46904819Y-83907143D01*
X46904819Y-83907143D02*
X45904819Y-83907143D01*
X46333390Y-84859524D02*
X46285771Y-84764286D01*
X46285771Y-84764286D02*
X46238152Y-84716667D01*
X46238152Y-84716667D02*
X46142914Y-84669048D01*
X46142914Y-84669048D02*
X46095295Y-84669048D01*
X46095295Y-84669048D02*
X46000057Y-84716667D01*
X46000057Y-84716667D02*
X45952438Y-84764286D01*
X45952438Y-84764286D02*
X45904819Y-84859524D01*
X45904819Y-84859524D02*
X45904819Y-85050000D01*
X45904819Y-85050000D02*
X45952438Y-85145238D01*
X45952438Y-85145238D02*
X46000057Y-85192857D01*
X46000057Y-85192857D02*
X46095295Y-85240476D01*
X46095295Y-85240476D02*
X46142914Y-85240476D01*
X46142914Y-85240476D02*
X46238152Y-85192857D01*
X46238152Y-85192857D02*
X46285771Y-85145238D01*
X46285771Y-85145238D02*
X46333390Y-85050000D01*
X46333390Y-85050000D02*
X46333390Y-84859524D01*
X46333390Y-84859524D02*
X46381009Y-84764286D01*
X46381009Y-84764286D02*
X46428628Y-84716667D01*
X46428628Y-84716667D02*
X46523866Y-84669048D01*
X46523866Y-84669048D02*
X46714342Y-84669048D01*
X46714342Y-84669048D02*
X46809580Y-84716667D01*
X46809580Y-84716667D02*
X46857200Y-84764286D01*
X46857200Y-84764286D02*
X46904819Y-84859524D01*
X46904819Y-84859524D02*
X46904819Y-85050000D01*
X46904819Y-85050000D02*
X46857200Y-85145238D01*
X46857200Y-85145238D02*
X46809580Y-85192857D01*
X46809580Y-85192857D02*
X46714342Y-85240476D01*
X46714342Y-85240476D02*
X46523866Y-85240476D01*
X46523866Y-85240476D02*
X46428628Y-85192857D01*
X46428628Y-85192857D02*
X46381009Y-85145238D01*
X46381009Y-85145238D02*
X46333390Y-85050000D01*
X47000057Y-85430953D02*
X47000057Y-86192857D01*
X45904819Y-86621429D02*
X45904819Y-86716667D01*
X45904819Y-86716667D02*
X45952438Y-86811905D01*
X45952438Y-86811905D02*
X46000057Y-86859524D01*
X46000057Y-86859524D02*
X46095295Y-86907143D01*
X46095295Y-86907143D02*
X46285771Y-86954762D01*
X46285771Y-86954762D02*
X46523866Y-86954762D01*
X46523866Y-86954762D02*
X46714342Y-86907143D01*
X46714342Y-86907143D02*
X46809580Y-86859524D01*
X46809580Y-86859524D02*
X46857200Y-86811905D01*
X46857200Y-86811905D02*
X46904819Y-86716667D01*
X46904819Y-86716667D02*
X46904819Y-86621429D01*
X46904819Y-86621429D02*
X46857200Y-86526191D01*
X46857200Y-86526191D02*
X46809580Y-86478572D01*
X46809580Y-86478572D02*
X46714342Y-86430953D01*
X46714342Y-86430953D02*
X46523866Y-86383334D01*
X46523866Y-86383334D02*
X46285771Y-86383334D01*
X46285771Y-86383334D02*
X46095295Y-86430953D01*
X46095295Y-86430953D02*
X46000057Y-86478572D01*
X46000057Y-86478572D02*
X45952438Y-86526191D01*
X45952438Y-86526191D02*
X45904819Y-86621429D01*
X106105238Y-29059580D02*
X106152857Y-29107200D01*
X106152857Y-29107200D02*
X106295714Y-29154819D01*
X106295714Y-29154819D02*
X106390952Y-29154819D01*
X106390952Y-29154819D02*
X106533809Y-29107200D01*
X106533809Y-29107200D02*
X106629047Y-29011961D01*
X106629047Y-29011961D02*
X106676666Y-28916723D01*
X106676666Y-28916723D02*
X106724285Y-28726247D01*
X106724285Y-28726247D02*
X106724285Y-28583390D01*
X106724285Y-28583390D02*
X106676666Y-28392914D01*
X106676666Y-28392914D02*
X106629047Y-28297676D01*
X106629047Y-28297676D02*
X106533809Y-28202438D01*
X106533809Y-28202438D02*
X106390952Y-28154819D01*
X106390952Y-28154819D02*
X106295714Y-28154819D01*
X106295714Y-28154819D02*
X106152857Y-28202438D01*
X106152857Y-28202438D02*
X106105238Y-28250057D01*
X105486190Y-28154819D02*
X105295714Y-28154819D01*
X105295714Y-28154819D02*
X105200476Y-28202438D01*
X105200476Y-28202438D02*
X105105238Y-28297676D01*
X105105238Y-28297676D02*
X105057619Y-28488152D01*
X105057619Y-28488152D02*
X105057619Y-28821485D01*
X105057619Y-28821485D02*
X105105238Y-29011961D01*
X105105238Y-29011961D02*
X105200476Y-29107200D01*
X105200476Y-29107200D02*
X105295714Y-29154819D01*
X105295714Y-29154819D02*
X105486190Y-29154819D01*
X105486190Y-29154819D02*
X105581428Y-29107200D01*
X105581428Y-29107200D02*
X105676666Y-29011961D01*
X105676666Y-29011961D02*
X105724285Y-28821485D01*
X105724285Y-28821485D02*
X105724285Y-28488152D01*
X105724285Y-28488152D02*
X105676666Y-28297676D01*
X105676666Y-28297676D02*
X105581428Y-28202438D01*
X105581428Y-28202438D02*
X105486190Y-28154819D01*
X104629047Y-29154819D02*
X104629047Y-28154819D01*
X104629047Y-28154819D02*
X104057619Y-29154819D01*
X104057619Y-29154819D02*
X104057619Y-28154819D01*
X103581428Y-29154819D02*
X103581428Y-28154819D01*
X103581428Y-28154819D02*
X103010000Y-29154819D01*
X103010000Y-29154819D02*
X103010000Y-28154819D01*
X102533809Y-28631009D02*
X102200476Y-28631009D01*
X102057619Y-29154819D02*
X102533809Y-29154819D01*
X102533809Y-29154819D02*
X102533809Y-28154819D01*
X102533809Y-28154819D02*
X102057619Y-28154819D01*
X101057619Y-29059580D02*
X101105238Y-29107200D01*
X101105238Y-29107200D02*
X101248095Y-29154819D01*
X101248095Y-29154819D02*
X101343333Y-29154819D01*
X101343333Y-29154819D02*
X101486190Y-29107200D01*
X101486190Y-29107200D02*
X101581428Y-29011961D01*
X101581428Y-29011961D02*
X101629047Y-28916723D01*
X101629047Y-28916723D02*
X101676666Y-28726247D01*
X101676666Y-28726247D02*
X101676666Y-28583390D01*
X101676666Y-28583390D02*
X101629047Y-28392914D01*
X101629047Y-28392914D02*
X101581428Y-28297676D01*
X101581428Y-28297676D02*
X101486190Y-28202438D01*
X101486190Y-28202438D02*
X101343333Y-28154819D01*
X101343333Y-28154819D02*
X101248095Y-28154819D01*
X101248095Y-28154819D02*
X101105238Y-28202438D01*
X101105238Y-28202438D02*
X101057619Y-28250057D01*
X100771904Y-28154819D02*
X100200476Y-28154819D01*
X100486190Y-29154819D02*
X100486190Y-28154819D01*
X99676666Y-28154819D02*
X99486190Y-28154819D01*
X99486190Y-28154819D02*
X99390952Y-28202438D01*
X99390952Y-28202438D02*
X99295714Y-28297676D01*
X99295714Y-28297676D02*
X99248095Y-28488152D01*
X99248095Y-28488152D02*
X99248095Y-28821485D01*
X99248095Y-28821485D02*
X99295714Y-29011961D01*
X99295714Y-29011961D02*
X99390952Y-29107200D01*
X99390952Y-29107200D02*
X99486190Y-29154819D01*
X99486190Y-29154819D02*
X99676666Y-29154819D01*
X99676666Y-29154819D02*
X99771904Y-29107200D01*
X99771904Y-29107200D02*
X99867142Y-29011961D01*
X99867142Y-29011961D02*
X99914761Y-28821485D01*
X99914761Y-28821485D02*
X99914761Y-28488152D01*
X99914761Y-28488152D02*
X99867142Y-28297676D01*
X99867142Y-28297676D02*
X99771904Y-28202438D01*
X99771904Y-28202438D02*
X99676666Y-28154819D01*
X98248095Y-29154819D02*
X98581428Y-28678628D01*
X98819523Y-29154819D02*
X98819523Y-28154819D01*
X98819523Y-28154819D02*
X98438571Y-28154819D01*
X98438571Y-28154819D02*
X98343333Y-28202438D01*
X98343333Y-28202438D02*
X98295714Y-28250057D01*
X98295714Y-28250057D02*
X98248095Y-28345295D01*
X98248095Y-28345295D02*
X98248095Y-28488152D01*
X98248095Y-28488152D02*
X98295714Y-28583390D01*
X98295714Y-28583390D02*
X98343333Y-28631009D01*
X98343333Y-28631009D02*
X98438571Y-28678628D01*
X98438571Y-28678628D02*
X98819523Y-28678628D01*
X97295714Y-29154819D02*
X97867142Y-29154819D01*
X97581428Y-29154819D02*
X97581428Y-28154819D01*
X97581428Y-28154819D02*
X97676666Y-28297676D01*
X97676666Y-28297676D02*
X97771904Y-28392914D01*
X97771904Y-28392914D02*
X97867142Y-28440533D01*
X115476190Y-173704819D02*
X115476190Y-172704819D01*
X115476190Y-173181009D02*
X114904762Y-173181009D01*
X114904762Y-173704819D02*
X114904762Y-172704819D01*
X114476190Y-173419104D02*
X114000000Y-173419104D01*
X114571428Y-173704819D02*
X114238095Y-172704819D01*
X114238095Y-172704819D02*
X113904762Y-173704819D01*
X113095238Y-173704819D02*
X113571428Y-173704819D01*
X113571428Y-173704819D02*
X113571428Y-172704819D01*
X112285714Y-173704819D02*
X112761904Y-173704819D01*
X112761904Y-173704819D02*
X112761904Y-172704819D01*
X111428571Y-173704819D02*
X111999999Y-173704819D01*
X111714285Y-173704819D02*
X111714285Y-172704819D01*
X111714285Y-172704819D02*
X111809523Y-172847676D01*
X111809523Y-172847676D02*
X111904761Y-172942914D01*
X111904761Y-172942914D02*
X111999999Y-172990533D01*
X111047618Y-172800057D02*
X110999999Y-172752438D01*
X110999999Y-172752438D02*
X110904761Y-172704819D01*
X110904761Y-172704819D02*
X110666666Y-172704819D01*
X110666666Y-172704819D02*
X110571428Y-172752438D01*
X110571428Y-172752438D02*
X110523809Y-172800057D01*
X110523809Y-172800057D02*
X110476190Y-172895295D01*
X110476190Y-172895295D02*
X110476190Y-172990533D01*
X110476190Y-172990533D02*
X110523809Y-173133390D01*
X110523809Y-173133390D02*
X111095237Y-173704819D01*
X111095237Y-173704819D02*
X110476190Y-173704819D01*
D13*
%TO.C,G\u002A\u002A\u002A*%
G36*
X149997813Y-37798252D02*
G01*
X149982799Y-38091717D01*
X149949997Y-38386348D01*
X149899775Y-38680089D01*
X149832498Y-38970882D01*
X149748535Y-39256669D01*
X149648253Y-39535394D01*
X149532017Y-39805000D01*
X149433634Y-40003937D01*
X149284090Y-40271170D01*
X149120177Y-40525747D01*
X148940712Y-40769351D01*
X148744510Y-41003670D01*
X148530387Y-41230386D01*
X148369651Y-41384749D01*
X148137694Y-41585989D01*
X147896935Y-41770152D01*
X147645691Y-41938421D01*
X147382274Y-42091981D01*
X147105000Y-42232016D01*
X146842545Y-42346038D01*
X146575392Y-42443634D01*
X146301686Y-42525276D01*
X146019461Y-42591487D01*
X145726751Y-42642790D01*
X145421591Y-42679706D01*
X145329593Y-42687416D01*
X145070921Y-42698119D01*
X144804389Y-42693902D01*
X144533628Y-42675078D01*
X144262270Y-42641959D01*
X143993949Y-42594859D01*
X143732296Y-42534091D01*
X143727030Y-42532705D01*
X143425155Y-42442939D01*
X143131353Y-42334942D01*
X142845513Y-42208656D01*
X142567524Y-42064023D01*
X142297272Y-41900985D01*
X142034648Y-41719484D01*
X141779538Y-41519461D01*
X141765265Y-41507449D01*
X141698576Y-41448760D01*
X141623216Y-41379033D01*
X141542606Y-41301690D01*
X141460167Y-41220151D01*
X141379320Y-41137838D01*
X141303485Y-41058172D01*
X141236085Y-40984573D01*
X141180539Y-40920462D01*
X141176940Y-40916135D01*
X140977237Y-40660897D01*
X140796053Y-40398142D01*
X140633332Y-40127759D01*
X140489016Y-39849635D01*
X140363045Y-39563659D01*
X140255362Y-39269719D01*
X140165909Y-38967704D01*
X140164719Y-38963160D01*
X140101059Y-38686916D01*
X140052838Y-38405582D01*
X140020333Y-38122338D01*
X140003821Y-37840365D01*
X140003718Y-37721244D01*
X140494086Y-37721244D01*
X140495072Y-37831832D01*
X140497486Y-37937845D01*
X140501328Y-38035440D01*
X140506597Y-38120772D01*
X140513295Y-38190000D01*
X140536295Y-38357740D01*
X140578022Y-38597059D01*
X140629335Y-38824335D01*
X140691365Y-39043416D01*
X140765238Y-39258154D01*
X140852085Y-39472399D01*
X140953034Y-39690000D01*
X141053763Y-39895000D01*
X141055525Y-39861264D01*
X141551547Y-39861264D01*
X141553016Y-39950000D01*
X141553768Y-39972981D01*
X141564932Y-40142458D01*
X141585847Y-40296300D01*
X141617013Y-40436393D01*
X141658932Y-40564626D01*
X141712106Y-40682887D01*
X141777038Y-40793064D01*
X141799991Y-40824792D01*
X141846595Y-40880612D01*
X141905132Y-40943444D01*
X141972938Y-41010582D01*
X142047347Y-41079320D01*
X142125694Y-41146955D01*
X142354415Y-41325511D01*
X142600012Y-41492605D01*
X142855055Y-41642137D01*
X143119300Y-41774004D01*
X143392502Y-41888106D01*
X143674418Y-41984339D01*
X143964802Y-42062603D01*
X144263411Y-42122795D01*
X144570000Y-42164815D01*
X144630580Y-42170263D01*
X144708617Y-42175419D01*
X144794636Y-42179606D01*
X144884648Y-42182737D01*
X144974664Y-42184727D01*
X145060695Y-42185490D01*
X145138754Y-42184940D01*
X145204852Y-42182991D01*
X145255000Y-42179557D01*
X145464329Y-42154199D01*
X145748499Y-42107501D01*
X146027262Y-42047589D01*
X146298846Y-41975047D01*
X146561482Y-41890460D01*
X146813401Y-41794410D01*
X147052833Y-41687481D01*
X147278009Y-41570258D01*
X147487158Y-41443323D01*
X147566593Y-41389102D01*
X147672624Y-41310351D01*
X147775240Y-41227139D01*
X147872407Y-41141445D01*
X147962088Y-41055248D01*
X148042250Y-40970526D01*
X148110858Y-40889258D01*
X148165877Y-40813423D01*
X148205272Y-40745000D01*
X148225788Y-40700595D01*
X148267004Y-40596369D01*
X148300895Y-40486003D01*
X148327839Y-40367294D01*
X148348216Y-40238041D01*
X148362403Y-40096042D01*
X148370779Y-39939095D01*
X148373722Y-39765000D01*
X148373736Y-39753685D01*
X148372802Y-39632918D01*
X148369704Y-39515264D01*
X148364193Y-39398678D01*
X148356016Y-39281115D01*
X148344924Y-39160530D01*
X148330665Y-39034876D01*
X148312988Y-38902110D01*
X148291643Y-38760186D01*
X148266378Y-38607057D01*
X148236943Y-38440681D01*
X148203087Y-38259010D01*
X148164558Y-38060000D01*
X148128408Y-37878210D01*
X148092607Y-37703433D01*
X148058960Y-37545475D01*
X148027046Y-37402816D01*
X147996443Y-37273932D01*
X147966730Y-37157303D01*
X147937485Y-37051407D01*
X147908288Y-36954721D01*
X147878718Y-36865725D01*
X147848352Y-36782895D01*
X147816770Y-36704712D01*
X147783551Y-36629653D01*
X147748272Y-36556195D01*
X147670471Y-36412661D01*
X147563388Y-36243256D01*
X147440828Y-36074047D01*
X147304982Y-35907425D01*
X147158042Y-35745782D01*
X147002197Y-35591510D01*
X146839638Y-35446999D01*
X146672556Y-35314642D01*
X146503141Y-35196829D01*
X146443459Y-35159287D01*
X146378256Y-35120066D01*
X146312770Y-35082211D01*
X146251251Y-35048129D01*
X146197947Y-35020224D01*
X146157105Y-35000902D01*
X146111079Y-34981172D01*
X146094746Y-35037355D01*
X146083742Y-35071775D01*
X146053317Y-35149876D01*
X146014791Y-35233221D01*
X145971387Y-35315084D01*
X145926329Y-35388740D01*
X145908223Y-35415311D01*
X145810562Y-35539567D01*
X145702861Y-35646616D01*
X145584889Y-35736661D01*
X145456421Y-35809907D01*
X145429136Y-35822730D01*
X145294859Y-35873707D01*
X145159340Y-35904890D01*
X145021742Y-35916361D01*
X144881225Y-35908203D01*
X144736950Y-35880498D01*
X144676991Y-35862863D01*
X144553763Y-35811949D01*
X144435680Y-35743604D01*
X144324329Y-35659435D01*
X144221298Y-35561051D01*
X144128175Y-35450057D01*
X144046547Y-35328063D01*
X143978001Y-35196674D01*
X143924125Y-35057500D01*
X143917266Y-35037199D01*
X143903958Y-35002701D01*
X143892469Y-34978884D01*
X143884714Y-34970000D01*
X143882528Y-34970144D01*
X143860082Y-34976973D01*
X143823890Y-34992950D01*
X143776561Y-35016593D01*
X143720707Y-35046419D01*
X143658939Y-35080944D01*
X143593867Y-35118686D01*
X143528104Y-35158161D01*
X143464259Y-35197886D01*
X143404944Y-35236379D01*
X143352769Y-35272156D01*
X143265017Y-35336929D01*
X143102392Y-35469106D01*
X142941769Y-35614713D01*
X142787206Y-35769789D01*
X142642759Y-35930373D01*
X142512485Y-36092506D01*
X142505997Y-36101131D01*
X142431269Y-36203790D01*
X142363265Y-36304268D01*
X142301275Y-36404407D01*
X142244586Y-36506050D01*
X142192486Y-36611036D01*
X142144265Y-36721208D01*
X142099209Y-36838407D01*
X142056608Y-36964474D01*
X142015749Y-37101252D01*
X141975921Y-37250580D01*
X141936413Y-37414302D01*
X141896511Y-37594259D01*
X141855505Y-37792291D01*
X141851669Y-37811367D01*
X141805254Y-38044351D01*
X141763357Y-38259196D01*
X141725811Y-38457106D01*
X141692445Y-38639289D01*
X141663091Y-38806948D01*
X141637580Y-38961290D01*
X141615742Y-39103520D01*
X141597409Y-39234843D01*
X141582412Y-39356466D01*
X141570582Y-39469594D01*
X141561749Y-39575432D01*
X141555745Y-39675186D01*
X141552401Y-39770062D01*
X141551547Y-39861264D01*
X141055525Y-39861264D01*
X141061335Y-39750000D01*
X141062976Y-39719367D01*
X141069038Y-39618570D01*
X141076088Y-39520855D01*
X141084396Y-39424335D01*
X141094231Y-39327124D01*
X141105864Y-39227337D01*
X141119565Y-39123088D01*
X141135602Y-39012491D01*
X141154247Y-38893660D01*
X141175769Y-38764710D01*
X141200437Y-38623755D01*
X141228523Y-38468908D01*
X141260294Y-38298285D01*
X141296023Y-38110000D01*
X141317086Y-38000141D01*
X141342880Y-37866870D01*
X141366009Y-37749142D01*
X141386974Y-37644577D01*
X141406274Y-37550792D01*
X141424410Y-37465406D01*
X141441880Y-37386036D01*
X141459185Y-37310302D01*
X141476824Y-37235821D01*
X141495297Y-37160212D01*
X141538684Y-36994091D01*
X141594822Y-36805226D01*
X141655382Y-36630666D01*
X141721863Y-36467309D01*
X141795762Y-36312052D01*
X141878576Y-36161795D01*
X141971804Y-36013435D01*
X142076944Y-35863871D01*
X142195492Y-35710000D01*
X142276708Y-35611344D01*
X142464504Y-35402660D01*
X142661822Y-35208846D01*
X142867625Y-35030711D01*
X143080880Y-34869065D01*
X143300551Y-34724716D01*
X143473778Y-34627544D01*
X144011544Y-34627544D01*
X144013682Y-34701063D01*
X144019202Y-34761232D01*
X144023363Y-34788757D01*
X144056535Y-34942179D01*
X144104936Y-35086838D01*
X144167731Y-35221150D01*
X144244083Y-35343535D01*
X144333157Y-35452413D01*
X144434118Y-35546202D01*
X144470049Y-35573299D01*
X144547684Y-35623219D01*
X144632042Y-35668270D01*
X144716489Y-35705062D01*
X144794387Y-35730205D01*
X144836218Y-35739096D01*
X144910221Y-35749363D01*
X144988114Y-35754831D01*
X145062253Y-35755052D01*
X145125000Y-35749579D01*
X145172752Y-35740871D01*
X145300921Y-35704123D01*
X145421640Y-35649720D01*
X145533935Y-35578678D01*
X145636834Y-35492016D01*
X145729362Y-35390750D01*
X145810547Y-35275898D01*
X145879414Y-35148478D01*
X145934990Y-35009506D01*
X145976302Y-34860000D01*
X145978958Y-34847372D01*
X145985419Y-34809491D01*
X145989956Y-34767875D01*
X145992833Y-34718462D01*
X145994319Y-34657191D01*
X145994679Y-34580000D01*
X145994485Y-34524363D01*
X145993696Y-34467063D01*
X145991930Y-34421997D01*
X145988794Y-34384793D01*
X145983889Y-34351076D01*
X145976820Y-34316474D01*
X145967191Y-34276614D01*
X145935349Y-34166206D01*
X145880581Y-34025934D01*
X145812657Y-33899131D01*
X145730653Y-33784143D01*
X145633645Y-33679313D01*
X145568493Y-33621225D01*
X145474552Y-33553040D01*
X145373697Y-33498514D01*
X145260000Y-33454075D01*
X145241034Y-33447874D01*
X145211308Y-33439093D01*
X145183612Y-33432988D01*
X145153538Y-33429064D01*
X145116682Y-33426825D01*
X145068638Y-33425778D01*
X145005000Y-33425427D01*
X144835000Y-33425035D01*
X144732376Y-33461220D01*
X144706281Y-33470782D01*
X144588135Y-33524668D01*
X144480156Y-33593171D01*
X144378010Y-33678955D01*
X144291729Y-33770944D01*
X144205135Y-33889805D01*
X144132864Y-34021149D01*
X144075763Y-34163404D01*
X144034680Y-34315000D01*
X144032413Y-34326449D01*
X144023221Y-34390128D01*
X144016532Y-34465753D01*
X144012567Y-34546999D01*
X144011544Y-34627544D01*
X143473778Y-34627544D01*
X143525603Y-34598473D01*
X143755000Y-34491145D01*
X143855000Y-34448935D01*
X143871881Y-34346967D01*
X143880092Y-34300852D01*
X143909019Y-34177503D01*
X143947891Y-34061605D01*
X143999421Y-33944595D01*
X144014033Y-33915481D01*
X144092788Y-33781489D01*
X144183120Y-33661172D01*
X144283797Y-33555233D01*
X144393586Y-33464375D01*
X144511255Y-33389299D01*
X144635571Y-33330707D01*
X144765302Y-33289301D01*
X144899216Y-33265783D01*
X145036079Y-33260855D01*
X145174660Y-33275220D01*
X145291164Y-33301899D01*
X145417430Y-33347549D01*
X145536432Y-33410052D01*
X145650087Y-33490437D01*
X145760315Y-33589734D01*
X145790887Y-33621326D01*
X145893756Y-33745632D01*
X145980543Y-33881073D01*
X146050451Y-34026064D01*
X146102685Y-34179023D01*
X146136450Y-34338366D01*
X146139784Y-34360612D01*
X146146894Y-34406921D01*
X146152356Y-34438028D01*
X146157147Y-34457250D01*
X146162245Y-34467900D01*
X146168628Y-34473295D01*
X146177274Y-34476749D01*
X146208130Y-34488900D01*
X146256419Y-34510057D01*
X146314247Y-34536891D01*
X146377316Y-34567326D01*
X146402704Y-34580000D01*
X146441330Y-34599283D01*
X146501990Y-34630683D01*
X146555000Y-34659447D01*
X146659424Y-34720446D01*
X146852000Y-34845984D01*
X147040448Y-34985408D01*
X147223209Y-35136993D01*
X147398724Y-35299018D01*
X147565434Y-35469759D01*
X147721780Y-35647493D01*
X147866203Y-35830497D01*
X147997144Y-36017049D01*
X148113044Y-36205425D01*
X148212343Y-36393902D01*
X148293484Y-36580757D01*
X148294415Y-36583174D01*
X148325053Y-36665173D01*
X148354189Y-36748535D01*
X148382242Y-36834931D01*
X148409630Y-36926035D01*
X148436773Y-37023519D01*
X148464088Y-37129054D01*
X148491994Y-37244313D01*
X148520911Y-37370968D01*
X148551256Y-37510693D01*
X148583449Y-37665158D01*
X148617908Y-37836036D01*
X148655051Y-38025000D01*
X148667348Y-38088539D01*
X148705428Y-38290441D01*
X148738665Y-38475855D01*
X148767319Y-38646963D01*
X148791652Y-38805945D01*
X148811923Y-38954982D01*
X148828395Y-39096256D01*
X148841328Y-39231946D01*
X148850983Y-39364235D01*
X148857620Y-39495303D01*
X148861501Y-39627331D01*
X148862796Y-39753685D01*
X148862886Y-39762500D01*
X148862888Y-39763187D01*
X148863063Y-39833928D01*
X148863332Y-39897611D01*
X148863677Y-39951648D01*
X148864075Y-39993451D01*
X148864509Y-40020431D01*
X148864957Y-40030000D01*
X148865321Y-40029868D01*
X148873016Y-40019442D01*
X148888007Y-39994381D01*
X148908762Y-39957552D01*
X148933744Y-39911822D01*
X148961420Y-39860058D01*
X148990254Y-39805126D01*
X149018712Y-39749895D01*
X149045260Y-39697230D01*
X149068362Y-39650000D01*
X149078891Y-39627889D01*
X149179726Y-39399991D01*
X149266066Y-39172096D01*
X149338924Y-38940675D01*
X149399310Y-38702204D01*
X149448233Y-38453154D01*
X149486706Y-38190000D01*
X149489423Y-38165795D01*
X149495577Y-38089986D01*
X149500304Y-37999533D01*
X149503602Y-37898282D01*
X149505472Y-37790074D01*
X149505915Y-37678755D01*
X149504929Y-37568167D01*
X149502515Y-37462154D01*
X149498673Y-37364559D01*
X149493404Y-37279227D01*
X149486706Y-37210000D01*
X149474438Y-37116480D01*
X149433954Y-36866060D01*
X149383452Y-36628582D01*
X149321837Y-36400253D01*
X149248011Y-36177282D01*
X149160877Y-35955876D01*
X149059340Y-35732244D01*
X149022495Y-35657516D01*
X148885352Y-35404709D01*
X148735204Y-35165737D01*
X148570450Y-34938346D01*
X148389487Y-34720280D01*
X148190715Y-34509285D01*
X148131305Y-34450857D01*
X147918529Y-34257312D01*
X147698041Y-34081122D01*
X147467586Y-33920684D01*
X147224910Y-33774397D01*
X146967756Y-33640660D01*
X146887202Y-33602585D01*
X146664803Y-33506331D01*
X146443273Y-33424088D01*
X146218819Y-33354759D01*
X145987650Y-33297248D01*
X145745975Y-33250459D01*
X145490000Y-33213294D01*
X145465796Y-33210577D01*
X145389987Y-33204423D01*
X145299534Y-33199696D01*
X145198283Y-33196398D01*
X145090075Y-33194528D01*
X144978756Y-33194085D01*
X144868168Y-33195071D01*
X144762155Y-33197485D01*
X144664560Y-33201327D01*
X144579228Y-33206596D01*
X144510000Y-33213294D01*
X144416481Y-33225562D01*
X144166061Y-33266046D01*
X143928583Y-33316548D01*
X143700254Y-33378163D01*
X143477283Y-33451989D01*
X143255877Y-33539123D01*
X143032245Y-33640660D01*
X142957517Y-33677505D01*
X142704710Y-33814648D01*
X142465738Y-33964796D01*
X142238347Y-34129550D01*
X142020281Y-34310513D01*
X141809286Y-34509285D01*
X141750858Y-34568695D01*
X141557313Y-34781471D01*
X141381123Y-35001959D01*
X141220685Y-35232414D01*
X141074398Y-35475090D01*
X140940661Y-35732244D01*
X140902586Y-35812798D01*
X140806332Y-36035197D01*
X140724089Y-36256727D01*
X140654760Y-36481181D01*
X140597249Y-36712350D01*
X140550460Y-36954025D01*
X140513295Y-37210000D01*
X140510578Y-37234204D01*
X140504424Y-37310013D01*
X140499697Y-37400466D01*
X140496399Y-37501717D01*
X140494529Y-37609925D01*
X140494086Y-37721244D01*
X140003718Y-37721244D01*
X140003580Y-37562843D01*
X140019886Y-37292953D01*
X140028497Y-37206571D01*
X140066705Y-36914436D01*
X140118080Y-36634932D01*
X140183259Y-36365648D01*
X140262879Y-36104171D01*
X140357575Y-35848092D01*
X140467984Y-35595000D01*
X140566367Y-35396062D01*
X140715911Y-35128829D01*
X140879824Y-34874252D01*
X141059289Y-34630648D01*
X141255491Y-34396329D01*
X141469614Y-34169613D01*
X141630350Y-34015250D01*
X141862307Y-33814010D01*
X142103066Y-33629847D01*
X142354310Y-33461578D01*
X142617727Y-33308018D01*
X142895000Y-33167983D01*
X142967363Y-33134700D01*
X143221066Y-33028859D01*
X143478445Y-32938548D01*
X143741912Y-32863132D01*
X144013879Y-32801974D01*
X144296756Y-32754437D01*
X144592954Y-32719885D01*
X144808013Y-32705327D01*
X145098253Y-32702187D01*
X145391718Y-32717201D01*
X145686349Y-32750003D01*
X145980090Y-32800225D01*
X146270883Y-32867502D01*
X146556670Y-32951465D01*
X146835395Y-33051747D01*
X147105000Y-33167983D01*
X147303938Y-33266366D01*
X147571171Y-33415910D01*
X147825748Y-33579823D01*
X148069352Y-33759288D01*
X148303671Y-33955490D01*
X148530387Y-34169613D01*
X148684750Y-34330349D01*
X148885990Y-34562306D01*
X149070153Y-34803065D01*
X149238422Y-35054309D01*
X149391982Y-35317726D01*
X149532017Y-35595000D01*
X149565300Y-35667362D01*
X149671141Y-35921065D01*
X149761452Y-36178444D01*
X149836868Y-36441911D01*
X149898026Y-36713878D01*
X149945563Y-36996755D01*
X149980115Y-37292953D01*
X149994673Y-37508012D01*
X149996520Y-37678755D01*
X149997813Y-37798252D01*
G37*
G36*
X145991092Y-38442733D02*
G01*
X145969610Y-38577765D01*
X145933487Y-38725716D01*
X145882713Y-38886492D01*
X145817276Y-39060000D01*
X145812713Y-39071316D01*
X145794679Y-39116902D01*
X145780065Y-39155201D01*
X145770270Y-39182479D01*
X145766694Y-39195000D01*
X145766902Y-39196416D01*
X145772077Y-39212733D01*
X145783157Y-39242924D01*
X145798740Y-39283257D01*
X145817423Y-39330000D01*
X145828346Y-39357197D01*
X145890009Y-39524096D01*
X145937968Y-39679757D01*
X145972175Y-39823753D01*
X145992581Y-39955655D01*
X145998518Y-40063791D01*
X145999135Y-40075035D01*
X145991789Y-40181464D01*
X145970494Y-40274515D01*
X145935199Y-40353758D01*
X145900099Y-40403898D01*
X145837470Y-40463952D01*
X145760200Y-40510863D01*
X145668911Y-40544185D01*
X145651056Y-40548437D01*
X145580899Y-40557936D01*
X145497130Y-40560491D01*
X145403605Y-40556363D01*
X145304183Y-40545806D01*
X145202720Y-40529079D01*
X145103073Y-40506440D01*
X145011146Y-40482376D01*
X144918074Y-40506550D01*
X144816757Y-40529554D01*
X144710078Y-40547111D01*
X144606792Y-40557654D01*
X144510628Y-40560933D01*
X144425321Y-40556693D01*
X144354601Y-40544683D01*
X144338839Y-40540395D01*
X144250216Y-40505839D01*
X144175811Y-40457335D01*
X144115793Y-40395151D01*
X144070331Y-40319557D01*
X144039591Y-40230821D01*
X144023743Y-40129212D01*
X144023027Y-40025463D01*
X144171074Y-40025463D01*
X144172025Y-40091486D01*
X144174060Y-40132553D01*
X144177678Y-40171891D01*
X144183666Y-40202361D01*
X144193347Y-40230203D01*
X144208039Y-40261658D01*
X144223627Y-40289840D01*
X144260924Y-40336585D01*
X144308337Y-40369974D01*
X144370333Y-40393641D01*
X144392888Y-40399318D01*
X144469096Y-40411095D01*
X144552906Y-40414930D01*
X144636069Y-40410305D01*
X144644125Y-40409355D01*
X144688737Y-40402977D01*
X144737632Y-40394549D01*
X144785997Y-40385061D01*
X144829016Y-40375504D01*
X144861876Y-40366869D01*
X144879762Y-40360147D01*
X144880679Y-40359028D01*
X144879442Y-40351165D01*
X145139014Y-40351165D01*
X145139882Y-40359028D01*
X145139988Y-40359992D01*
X145158161Y-40366929D01*
X145192195Y-40375707D01*
X145237338Y-40385258D01*
X145289147Y-40394714D01*
X145343182Y-40403206D01*
X145395000Y-40409865D01*
X145410951Y-40411623D01*
X145453157Y-40415924D01*
X145484483Y-40417911D01*
X145511826Y-40417589D01*
X145542083Y-40414965D01*
X145582152Y-40410046D01*
X145595198Y-40408225D01*
X145669586Y-40390470D01*
X145729044Y-40361266D01*
X145775707Y-40319247D01*
X145811709Y-40263045D01*
X145820852Y-40243844D01*
X145832869Y-40213646D01*
X145840426Y-40183354D01*
X145844960Y-40146333D01*
X145847910Y-40095947D01*
X145848770Y-40063791D01*
X145845011Y-39970951D01*
X145831733Y-39872253D01*
X145808405Y-39765096D01*
X145774496Y-39646879D01*
X145729477Y-39515000D01*
X145714299Y-39473958D01*
X145699225Y-39434667D01*
X145687433Y-39405516D01*
X145680635Y-39390857D01*
X145677644Y-39389102D01*
X145668464Y-39396401D01*
X145653767Y-39418286D01*
X145632756Y-39456018D01*
X145604630Y-39510857D01*
X145602572Y-39514961D01*
X145554021Y-39609222D01*
X145497022Y-39715736D01*
X145433964Y-39830221D01*
X145367233Y-39948396D01*
X145299217Y-40065980D01*
X145232301Y-40178689D01*
X145228795Y-40184516D01*
X145191149Y-40248137D01*
X145164020Y-40296366D01*
X145146833Y-40330333D01*
X145139014Y-40351165D01*
X144879442Y-40351165D01*
X144878707Y-40346490D01*
X144867316Y-40320502D01*
X144846089Y-40280265D01*
X144814612Y-40224979D01*
X144772467Y-40153845D01*
X144695550Y-40024138D01*
X144593757Y-39846588D01*
X144502124Y-39679018D01*
X144418946Y-39518362D01*
X144346894Y-39375000D01*
X144328516Y-39415000D01*
X144319553Y-39435942D01*
X144300799Y-39485769D01*
X144279679Y-39547645D01*
X144257640Y-39616825D01*
X144236129Y-39688566D01*
X144216593Y-39758125D01*
X144200477Y-39820759D01*
X144189229Y-39871724D01*
X144183834Y-39901249D01*
X144174740Y-39965513D01*
X144171074Y-40025463D01*
X144023027Y-40025463D01*
X144022955Y-40015000D01*
X144035100Y-39900530D01*
X144060535Y-39767793D01*
X144098438Y-39624200D01*
X144148281Y-39471745D01*
X144209532Y-39312425D01*
X144229370Y-39263822D01*
X144242382Y-39229651D01*
X144249385Y-39206100D01*
X144251235Y-39189253D01*
X144248791Y-39175192D01*
X144242910Y-39160000D01*
X144196519Y-39046760D01*
X144149315Y-38919809D01*
X144108041Y-38795787D01*
X144073799Y-38678242D01*
X144047691Y-38570722D01*
X144030817Y-38476776D01*
X144022317Y-38389057D01*
X144022025Y-38285564D01*
X144022761Y-38278937D01*
X144175435Y-38278937D01*
X144175460Y-38334811D01*
X144176211Y-38394774D01*
X144178682Y-38446129D01*
X144183653Y-38491100D01*
X144191916Y-38536714D01*
X144204266Y-38590000D01*
X144216640Y-38637963D01*
X144266809Y-38802887D01*
X144331878Y-38980273D01*
X144411891Y-39170217D01*
X144506893Y-39372816D01*
X144616927Y-39588166D01*
X144742039Y-39816361D01*
X144882273Y-40057500D01*
X144904291Y-40094208D01*
X144936704Y-40147551D01*
X144964941Y-40193179D01*
X144987505Y-40228716D01*
X145002902Y-40251782D01*
X145009635Y-40260000D01*
X145010570Y-40259359D01*
X145019922Y-40246885D01*
X145037380Y-40220422D01*
X145061332Y-40182509D01*
X145090167Y-40135689D01*
X145122272Y-40082500D01*
X145180898Y-39983447D01*
X145302291Y-39771043D01*
X145411884Y-39568657D01*
X145509560Y-39376664D01*
X145595198Y-39195439D01*
X145668680Y-39025359D01*
X145729888Y-38866797D01*
X145778702Y-38720131D01*
X145815003Y-38585733D01*
X145838673Y-38463982D01*
X145849593Y-38355250D01*
X145847644Y-38259914D01*
X145832707Y-38178350D01*
X145804663Y-38110932D01*
X145763393Y-38058036D01*
X145759715Y-38054628D01*
X145704896Y-38018056D01*
X145634699Y-37993005D01*
X145550083Y-37979563D01*
X145452005Y-37977812D01*
X145341425Y-37987839D01*
X145219299Y-38009729D01*
X145181123Y-38018157D01*
X145126088Y-38031016D01*
X145086409Y-38041806D01*
X145059330Y-38051616D01*
X145042096Y-38061536D01*
X145031950Y-38072653D01*
X145026136Y-38086058D01*
X145018804Y-38109646D01*
X145012275Y-38130000D01*
X145009917Y-38132565D01*
X145003476Y-38123956D01*
X144995914Y-38101037D01*
X144992927Y-38090005D01*
X144983468Y-38066983D01*
X144968014Y-38053790D01*
X144939775Y-38043463D01*
X144930760Y-38040773D01*
X144855550Y-38021384D01*
X144772101Y-38004268D01*
X144687180Y-37990541D01*
X144607557Y-37981315D01*
X144540000Y-37977703D01*
X144494597Y-37978357D01*
X144410113Y-37986715D01*
X144340891Y-38005224D01*
X144285146Y-38034700D01*
X144241093Y-38075957D01*
X144206949Y-38129811D01*
X144201988Y-38139919D01*
X144190785Y-38164212D01*
X144183229Y-38185699D01*
X144178619Y-38208942D01*
X144176255Y-38238501D01*
X144175435Y-38278937D01*
X144022761Y-38278937D01*
X144032619Y-38190137D01*
X144053716Y-38105912D01*
X144084929Y-38036023D01*
X144087555Y-38031620D01*
X144138655Y-37965902D01*
X144204560Y-37910810D01*
X144282072Y-37868544D01*
X144367993Y-37841302D01*
X144423572Y-37832917D01*
X144508461Y-37828912D01*
X144604371Y-37832292D01*
X144707173Y-37842739D01*
X144812735Y-37859934D01*
X144916928Y-37883559D01*
X145008855Y-37907623D01*
X145101927Y-37883449D01*
X145203244Y-37860445D01*
X145309923Y-37842888D01*
X145413209Y-37832345D01*
X145509373Y-37829066D01*
X145594680Y-37833306D01*
X145665400Y-37845316D01*
X145732525Y-37867094D01*
X145813197Y-37909074D01*
X145879310Y-37964629D01*
X145930853Y-38033664D01*
X145967814Y-38116085D01*
X145990183Y-38211799D01*
X145997946Y-38320713D01*
X145996006Y-38355250D01*
X145991092Y-38442733D01*
G37*
G36*
X146506785Y-36858072D02*
G01*
X146588726Y-36883685D01*
X146663920Y-36925460D01*
X146730065Y-36982121D01*
X146784862Y-37052393D01*
X146826010Y-37135000D01*
X146835628Y-37167962D01*
X146844152Y-37230493D01*
X146844486Y-37298819D01*
X146836758Y-37365356D01*
X146821099Y-37422520D01*
X146815845Y-37435240D01*
X146772990Y-37510839D01*
X146715340Y-37577433D01*
X146646481Y-37631494D01*
X146570000Y-37669493D01*
X146543195Y-37678035D01*
X146509428Y-37684559D01*
X146468877Y-37687299D01*
X146415000Y-37686995D01*
X146385042Y-37686044D01*
X146343903Y-37683192D01*
X146311864Y-37677625D01*
X146281969Y-37667919D01*
X146247262Y-37652651D01*
X146204928Y-37629874D01*
X146133598Y-37574984D01*
X146076476Y-37506798D01*
X146034744Y-37426892D01*
X146009587Y-37336839D01*
X146005108Y-37300996D01*
X146007930Y-37216561D01*
X146028251Y-37134986D01*
X146064321Y-37058858D01*
X146114394Y-36990767D01*
X146176721Y-36933301D01*
X146249555Y-36889048D01*
X146331147Y-36860598D01*
X146331864Y-36860434D01*
X146420398Y-36849896D01*
X146506785Y-36858072D01*
G37*
G36*
X143604204Y-36855047D02*
G01*
X143648192Y-36855860D01*
X143680326Y-36858461D01*
X143706288Y-36863843D01*
X143731755Y-36873002D01*
X143762408Y-36886931D01*
X143809117Y-36912801D01*
X143877378Y-36967402D01*
X143931890Y-37033639D01*
X143971703Y-37108888D01*
X143995871Y-37190525D01*
X144003445Y-37275926D01*
X143993476Y-37362468D01*
X143965017Y-37447526D01*
X143930723Y-37505001D01*
X143879416Y-37563386D01*
X143817860Y-37614546D01*
X143751010Y-37654402D01*
X143683823Y-37678876D01*
X143680434Y-37679657D01*
X143593007Y-37689795D01*
X143506780Y-37681811D01*
X143424483Y-37657132D01*
X143348842Y-37617185D01*
X143282586Y-37563398D01*
X143228442Y-37497197D01*
X143189139Y-37420012D01*
X143182880Y-37402246D01*
X143164040Y-37314785D01*
X143163834Y-37227689D01*
X143181269Y-37143401D01*
X143215349Y-37064365D01*
X143265082Y-36993027D01*
X143329471Y-36931828D01*
X143407524Y-36883215D01*
X143415169Y-36879500D01*
X143440653Y-36868317D01*
X143464460Y-36861161D01*
X143492009Y-36857147D01*
X143528716Y-36855389D01*
X143580000Y-36855000D01*
X143604204Y-36855047D01*
G37*
D14*
%TO.C,HALL11_1*%
X159129449Y-81946548D02*
X159129449Y-87136548D01*
X161889449Y-79296548D02*
X160509449Y-79296548D01*
X161889449Y-80676548D02*
X161889449Y-79296548D01*
X161889449Y-81946548D02*
X159129449Y-81946548D01*
X161889449Y-81946548D02*
X161889449Y-87136548D01*
X161889449Y-87136548D02*
X159129449Y-87136548D01*
%TO.C,HALL13*%
X78990000Y-172130000D02*
X78990000Y-169370000D01*
X84180000Y-169370000D02*
X78990000Y-169370000D01*
X84180000Y-172130000D02*
X78990000Y-172130000D01*
X84180000Y-172130000D02*
X84180000Y-169370000D01*
X85450000Y-172130000D02*
X86830000Y-172130000D01*
X86830000Y-172130000D02*
X86830000Y-170750000D01*
%TO.C,HALL11_0*%
X136570000Y-44370000D02*
X136570000Y-45750000D01*
X137950000Y-44370000D02*
X136570000Y-44370000D01*
X139220000Y-44370000D02*
X139220000Y-47130000D01*
X139220000Y-44370000D02*
X144410000Y-44370000D01*
X139220000Y-47130000D02*
X144410000Y-47130000D01*
X144410000Y-44370000D02*
X144410000Y-47130000D01*
%TO.C,HALL10*%
X107980000Y-44220000D02*
X107980000Y-45600000D01*
X109360000Y-44220000D02*
X107980000Y-44220000D01*
X110630000Y-44220000D02*
X110630000Y-46980000D01*
X110630000Y-44220000D02*
X115820000Y-44220000D01*
X110630000Y-46980000D02*
X115820000Y-46980000D01*
X115820000Y-44220000D02*
X115820000Y-46980000D01*
%TO.C,HALL8_1*%
X49511783Y-52862599D02*
X50487591Y-53838406D01*
X50487591Y-51886792D02*
X49511783Y-52862599D01*
X51385616Y-50988766D02*
X53337231Y-52940381D01*
X51385616Y-50988766D02*
X55055500Y-47318882D01*
X53337231Y-52940381D02*
X57007115Y-49270497D01*
X55055500Y-47318882D02*
X57007115Y-49270497D01*
%TO.C,HALL9*%
X78790000Y-44370000D02*
X78790000Y-45750000D01*
X80170000Y-44370000D02*
X78790000Y-44370000D01*
X81440000Y-44370000D02*
X81440000Y-47130000D01*
X81440000Y-44370000D02*
X86630000Y-44370000D01*
X81440000Y-47130000D02*
X86630000Y-47130000D01*
X86630000Y-44370000D02*
X86630000Y-47130000D01*
%TO.C,HALL8_0*%
X47570000Y-80090000D02*
X50330000Y-80090000D01*
X47570000Y-85280000D02*
X47570000Y-80090000D01*
X47570000Y-85280000D02*
X50330000Y-85280000D01*
X47570000Y-86550000D02*
X47570000Y-87930000D01*
X47570000Y-87930000D02*
X48950000Y-87930000D01*
X50330000Y-85280000D02*
X50330000Y-80090000D01*
%TO.C,CONNECTOR1*%
X91740000Y-32580000D02*
X91740000Y-29820000D01*
X109630000Y-29820000D02*
X91740000Y-29820000D01*
X109630000Y-32580000D02*
X91740000Y-32580000D01*
X109630000Y-32580000D02*
X109630000Y-29820000D01*
X110900000Y-32580000D02*
X112280000Y-32580000D01*
X112280000Y-32580000D02*
X112280000Y-31200000D01*
%TO.C,HALL12*%
X109040000Y-172130000D02*
X109040000Y-169370000D01*
X114230000Y-169370000D02*
X109040000Y-169370000D01*
X114230000Y-172130000D02*
X109040000Y-172130000D01*
X114230000Y-172130000D02*
X114230000Y-169370000D01*
X115500000Y-172130000D02*
X116880000Y-172130000D01*
X116880000Y-172130000D02*
X116880000Y-170750000D01*
%TD*%
M02*
